<svg width="14" height="12" viewBox="0 0 14 12" fill="none" xmlns="http://www.w3.org/2000/svg">
<path d="M13.5 0.5H0.5C0.223437 0.5 0 0.723437 0 1V11C0 11.2766 0.223437 11.5 0.5 11.5H13.5C13.7766 11.5 14 11.2766 14 11V1C14 0.723437 13.7766 0.5 13.5 0.5ZM12.2375 2.20156L7.30781 6.0375C7.18594 6.13281 7.01562 6.13281 6.89375 6.0375L1.9625 2.20156C1.94391 2.18722 1.93028 2.16741 1.92351 2.14493C1.91674 2.12245 1.91718 2.09841 1.92476 2.07618C1.93234 2.05396 1.94668 2.03466 1.96578 2.021C1.98488 2.00734 2.00777 2 2.03125 2H12.1687C12.1922 2 12.2151 2.00734 12.2342 2.021C12.2533 2.03466 12.2677 2.05396 12.2752 2.07618C12.2828 2.09841 12.2833 2.12245 12.2765 2.14493C12.2697 2.16741 12.2561 2.18722 12.2375 2.20156Z" fill="#2B4362"/>
</svg>
