<svg width="26" height="26" viewBox="0 0 26 26" fill="none" xmlns="http://www.w3.org/2000/svg">
<path d="M23.6226 10.8783H22.75V10.8333H13V15.1667H19.1225C18.2293 17.6892 15.8291 19.5 13 19.5C9.4104 19.5 6.50002 16.5896 6.50002 13C6.50002 9.41038 9.4104 6.5 13 6.5C14.657 6.5 16.1644 7.12508 17.3122 8.14613L20.3764 5.08192C18.4416 3.27871 15.8535 2.16667 13 2.16667C7.01731 2.16667 2.16669 7.01729 2.16669 13C2.16669 18.9827 7.01731 23.8333 13 23.8333C18.9827 23.8333 23.8334 18.9827 23.8334 13C23.8334 12.2736 23.7586 11.5646 23.6226 10.8783Z" fill="#FFC107"/>
<path d="M3.41583 7.95763L6.97512 10.5679C7.93821 8.1835 10.2706 6.5 13.0001 6.5C14.657 6.5 16.1645 7.12508 17.3123 8.14613L20.3765 5.08192C18.4417 3.27871 15.8536 2.16667 13.0001 2.16667C8.839 2.16667 5.23042 4.51588 3.41583 7.95763Z" fill="#FF3D00"/>
<path d="M12.9998 23.8331C15.7981 23.8331 18.3407 22.7623 20.2631 21.0208L16.9101 18.1836C15.7859 19.0385 14.4122 19.5009 12.9998 19.4998C10.1821 19.4998 7.78955 17.7031 6.88822 15.1957L3.35547 17.9176C5.14839 21.426 8.78947 23.8331 12.9998 23.8331Z" fill="#4CAF50"/>
<path d="M23.6226 10.8783H22.75V10.8333H13V15.1667H19.1225C18.6952 16.3672 17.9256 17.4163 16.9087 18.1843L16.9103 18.1832L20.2632 21.0205C20.026 21.236 23.8333 18.4167 23.8333 13C23.8333 12.2736 23.7586 11.5646 23.6226 10.8783Z" fill="#1976D2"/>
</svg>
