<svg width="14" height="14" viewBox="0 0 14 14" fill="none" xmlns="http://www.w3.org/2000/svg">
<path d="M3.0383 10.0145C4.87395 9.34576 5.46077 8.78128 5.46077 7.57266C5.46077 6.84734 4.85929 6.37727 4.65428 5.75565C4.44923 5.13401 4.33063 4.39803 4.23205 3.86266C4.13345 3.32729 4.09428 3.12021 4.04067 2.54978C3.97511 1.83787 4.4517 0 7 0C9.54754 0 10.0256 1.83787 9.95862 2.54978C9.905 3.12021 9.86561 3.32731 9.76724 3.86266C9.66885 4.39802 9.55141 5.13396 9.34651 5.75565C9.14161 6.37732 8.53929 6.84734 8.53929 7.57266C8.53929 8.78128 9.1261 9.34575 10.9617 10.0145C12.804 10.6847 14 11.3456 14 11.8125V14H0V11.8125C0 11.3463 1.1967 10.6854 3.0383 10.0145Z" fill="#2B4362"/>
</svg>
