<svg width="24" height="14" viewBox="0 0 24 14" fill="none" xmlns="http://www.w3.org/2000/svg">
<path d="M23.1755 0.99747C23.3388 0.45497 23.1755 0.0571365 22.4031 0.0571365H19.8446C19.1936 0.0571365 18.8961 0.401304 18.7328 0.779304C18.7328 0.779304 17.432 3.95147 15.5886 6.0083C14.9936 6.6068 14.7218 6.7958 14.3975 6.7958C14.2353 6.7958 13.9996 6.6068 13.9996 6.0643V0.99747C13.9996 0.34647 13.8118 0.0571365 13.2693 0.0571365H9.24898C8.84298 0.0571365 8.59798 0.358137 8.59798 0.645137C8.59798 1.26114 9.51965 1.40347 9.61415 3.13947V6.90547C9.61415 7.7303 9.46598 7.8808 9.13931 7.8808C8.27248 7.8808 6.16315 4.69697 4.91131 1.0523C4.66748 0.344137 4.42131 0.0583037 3.76798 0.0583037H1.21065C0.479146 0.0583037 0.333313 0.40247 0.333313 0.78047C0.333313 1.45947 1.20015 4.81947 4.37115 9.2633C6.48515 12.2978 9.46131 13.9428 12.1726 13.9428C13.7978 13.9428 13.9985 13.5776 13.9985 12.9476V10.654C13.9985 9.92364 14.1536 9.77664 14.6681 9.77664C15.0461 9.77664 15.6971 9.96797 17.215 11.4298C18.9486 13.1635 19.2356 13.9416 20.2098 13.9416H22.7671C23.4975 13.9416 23.8626 13.5765 23.6526 12.8555C23.4228 12.138 22.5945 11.0938 21.4955 9.8583C20.8981 9.15364 20.0056 8.3953 19.7338 8.01614C19.3546 7.5273 19.4643 7.31147 19.7338 6.87747C19.735 6.87864 22.8511 2.48964 23.1755 0.99747Z" fill="#608CAF"/>
</svg>
