<?xml version="1.0" encoding="UTF-8"?> <svg xmlns="http://www.w3.org/2000/svg" width="44" height="44" viewBox="0 0 44 44" fill="none"> <path fill-rule="evenodd" clip-rule="evenodd" d="M22 37.2318C19.9997 37.2318 18.0191 36.8378 16.1711 36.0723C14.323 35.3069 12.6439 34.1849 11.2295 32.7705C9.81511 31.3561 8.69314 29.6769 7.92768 27.8289C7.16221 25.9809 6.76823 24.0003 6.76823 22C6.76823 19.9997 7.16221 18.0191 7.92768 16.1711C8.69315 14.3231 9.81511 12.6439 11.2295 11.2295C12.6439 9.81511 14.3231 8.69315 16.1711 7.92768C18.0191 7.16221 19.9997 6.76823 22 6.76823L22 0C19.1109 -1.26286e-07 16.2501 0.569046 13.581 1.67465C13.0437 1.89718 12.5164 2.14058 12 2.40408C9.95098 3.44971 8.07535 4.81195 6.44365 6.44365C4.40076 8.48654 2.78025 10.9118 1.67465 13.581C0.569045 16.2501 -8.35365e-07 19.1109 -9.61651e-07 22C-1.08794e-06 24.8891 0.569045 27.7499 1.67465 30.419C2.78025 33.0882 4.40076 35.5135 6.44365 37.5564C8.07535 39.1881 9.95098 40.5503 12 41.5959C12.5163 41.8594 13.0437 42.1028 13.581 42.3254C16.2501 43.431 19.1109 44 22 44L22 37.2318Z" fill="#D5484C"></path> <path fill-rule="evenodd" clip-rule="evenodd" d="M30.0364 2.59853C27.7969 1.67093 25.4162 1.139 23 1.02382L23 5.79906C24.7896 5.90952 26.5509 6.31589 28.2116 7.0038C30.181 7.81952 31.9703 9.01514 33.4776 10.5224C34.9849 12.0297 36.1805 13.819 36.9962 15.7884C37.8119 17.7577 38.2318 19.8684 38.2318 22C38.2318 24.1316 37.8119 26.2423 36.9962 28.2116C36.1805 30.181 34.9849 31.9703 33.4776 33.4776C31.9703 34.9849 30.181 36.1805 28.2116 36.9962C26.5509 37.6841 24.7896 38.0905 23 38.2009L23 42.9762C25.4162 42.861 27.7969 42.3291 30.0364 41.4015C32.5842 40.3461 34.8992 38.7993 36.8492 36.8492C38.7993 34.8992 40.3461 32.5842 41.4015 30.0364C42.4568 27.4885 43 24.7578 43 22C43 19.2422 42.4568 16.5115 41.4015 13.9636C40.3461 11.4158 38.7993 9.10078 36.8492 7.15075C34.8992 5.20073 32.5842 3.65387 30.0364 2.59853ZM23 43.9773C22.6672 43.9924 22.3338 44 22 44L22 37.2318C24.0003 37.2318 25.9809 36.8378 27.8289 36.0723C29.6769 35.3069 31.3561 34.1849 32.7705 32.7705C34.1849 31.3561 35.3069 29.6769 36.0723 27.8289C36.8378 25.9809 37.2318 24.0003 37.2318 22C37.2318 19.9997 36.8378 18.0191 36.0723 16.1711C35.3069 14.323 34.1849 12.6439 32.7705 11.2295C31.3561 9.81511 29.677 8.69315 27.8289 7.92768C25.9809 7.16221 24.0003 6.76823 22 6.76823L22 -3.8147e-06C22.3338 -3.81072e-06 22.6672 0.00759507 23 0.0227356C25.5476 0.138653 28.0583 0.696781 30.419 1.67465C33.0882 2.78025 35.5135 4.40076 37.5564 6.44365C39.5992 8.48654 41.2197 10.9118 42.3254 13.581C43.431 16.2501 44 19.1109 44 22C44 24.8891 43.431 27.7499 42.3253 30.419C41.2197 33.0882 39.5992 35.5135 37.5563 37.5563C35.5135 39.5992 33.0882 41.2197 30.419 42.3254C28.0583 43.3032 25.5476 43.8613 23 43.9773Z" fill="#2B4362" fill-opacity="0.15"></path> </svg> 