<?xml version="1.0" encoding="UTF-8"?> <svg xmlns="http://www.w3.org/2000/svg" width="110" height="110" viewBox="0 0 110 110" fill="none"> <g filter="url(#filter0_d)"> <circle cx="59" cy="56" r="38" fill="white"></circle> </g> <g clip-path="url(#clip0)"> <path fill-rule="evenodd" clip-rule="evenodd" d="M76.0002 60.0957L75.9561 60.5711L75.934 60.707L75.9119 60.8428L75.8458 60.9786L75.7796 61.0918L75.6913 61.2277L75.559 61.3409L75.4266 61.454L75.2722 61.5672L56.6546 72.5925L56.5663 72.6377L56.4781 72.683L56.3899 72.7283L56.2796 72.7736L56.1913 72.7962L56.0811 72.8415L55.9928 72.8641L55.8825 72.8868L55.7722 72.9094L55.6619 72.9321L55.5516 72.9547L55.4413 72.9773H55.3311L55.2208 73H55.1105H55.0002H54.8899H54.7796L54.6693 72.9773H54.559L54.4266 72.9547L54.3384 72.9321L54.2281 72.9094L54.1178 72.8868L54.0075 72.8641L53.8972 72.8415L53.809 72.7962L53.6987 72.7736L53.6105 72.7283L53.5222 72.683L53.434 72.6377L53.3458 72.5925L44.3899 67.2949L44.2355 67.1817L44.0811 67.0685L43.9708 66.9553L43.8825 66.8195L43.7943 66.7063L43.7502 66.5705L43.7061 66.4346V66.2988L43.7502 65.8234L43.7722 65.9592L43.7943 66.0951L43.8605 66.2309L43.9266 66.3441L44.0369 66.4799L44.1472 66.5931L44.2796 66.7063L44.4561 66.8195L53.3899 72.117L53.4781 72.1623L53.5663 72.2076L53.6546 72.2529L53.7649 72.2982L53.8531 72.3208L53.9634 72.3661L54.0516 72.3887L54.1619 72.4114L54.2722 72.434L54.3825 72.4566L54.4928 72.4793L54.6031 72.5019H54.7134H54.8237L54.934 72.5245H55.0443H55.1546L55.2869 72.5019H55.3972H55.5075L55.6178 72.4793L55.7281 72.4566L55.8384 72.434L55.9266 72.4114L56.0369 72.3887L56.1472 72.3661L56.2355 72.3208L56.3458 72.2982L56.434 72.2529L56.5222 72.2076L56.6325 72.1623L56.6987 72.117L75.3163 61.0918L75.4708 60.9786L75.6252 60.8654L75.7355 60.7522L75.8237 60.6164L75.9119 60.5032L75.9561 60.3674L76.0002 60.2315V60.0957Z" fill="#AFC4E0"></path> <path fill-rule="evenodd" clip-rule="evenodd" d="M44.4343 64.8505L63.0519 53.8479C63.5681 53.5794 64.1386 53.4395 64.7173 53.4395C65.296 53.4395 65.8666 53.5794 66.3828 53.8479L75.3166 59.1454C75.5165 59.216 75.6899 59.3488 75.8126 59.5253C75.9354 59.7019 76.0014 59.9133 76.0014 60.1302C76.0014 60.3471 75.9354 60.5586 75.8126 60.7351C75.6899 60.9117 75.5165 61.0445 75.3166 61.115L56.721 72.1176C56.2048 72.3861 55.6343 72.5261 55.0556 72.5261C54.4769 72.5261 53.9063 72.3861 53.3901 72.1176L44.4343 66.8201C44.2344 66.7495 44.061 66.6167 43.9383 66.4402C43.8155 66.2636 43.7495 66.0522 43.7495 65.8353C43.7495 65.6184 43.8155 65.4069 43.9383 65.2304C44.061 65.0538 44.2344 64.921 44.4343 64.8505V64.8505Z" fill="#DBE5F1"></path> <path fill-rule="evenodd" clip-rule="evenodd" d="M66.2941 64.6451C66.7133 63.4 65.853 61.8379 63.8456 60.638C61.7848 59.4583 59.422 58.9527 57.0736 59.1891L56.7427 59.008L64.353 54.4802C64.5343 54.3866 64.7345 54.3379 64.9375 54.3379C65.1405 54.3379 65.3407 54.3866 65.5221 54.4802L74.1691 59.5966C74.5 59.8004 74.5221 60.1173 74.1691 60.2984L66.5368 64.8263L66.2941 64.6451Z" fill="#2D65AE"></path> <path fill-rule="evenodd" clip-rule="evenodd" d="M62.853 66.7535C60.5039 67.0018 58.1376 66.4955 56.0809 65.3046C54.0515 64.1274 53.1912 62.5653 53.6324 61.2975L53.3015 61.0938L45.6912 65.6216C45.3824 65.8027 45.4044 66.097 45.6912 66.3007L54.3603 71.4398C54.5373 71.535 54.7341 71.5847 54.9338 71.5847C55.1336 71.5847 55.3304 71.535 55.5074 71.4398L63.1397 66.912L62.853 66.7535Z" fill="#2D65AE"></path> <path fill-rule="evenodd" clip-rule="evenodd" d="M70.7499 61.4768L73.1323 60.0506C73.2646 60.0506 73.2646 59.8695 73.1323 59.8016L72.8455 59.6204C72.7726 59.5874 72.6937 59.5703 72.6139 59.5703C72.5342 59.5703 72.4553 59.5874 72.3823 59.6204L70.022 61.0241C69.9869 61.0241 69.9532 61.0384 69.9284 61.0639C69.9036 61.0893 69.8896 61.1239 69.8896 61.1599C69.8896 61.1959 69.9036 61.2305 69.9284 61.256C69.9532 61.2814 69.9869 61.2957 70.022 61.2957L70.3088 61.4768C70.3776 61.5109 70.453 61.5286 70.5294 61.5286C70.6057 61.5286 70.6812 61.5109 70.7499 61.4768Z" fill="#DBE5F1"></path> <path fill-rule="evenodd" clip-rule="evenodd" d="M63.1623 56.9484L65.5225 55.5447C65.6549 55.5447 65.6549 55.3636 65.5225 55.2957L65.2358 55.1146C65.1628 55.0815 65.0839 55.0645 65.0042 55.0645C64.9244 55.0645 64.8455 55.0815 64.7725 55.1146L62.4123 56.5182C62.2799 56.5182 62.2799 56.6993 62.4123 56.7899L62.699 56.9484C62.7686 56.9924 62.8488 57.0158 62.9306 57.0158C63.0124 57.0158 63.0926 56.9924 63.1623 56.9484V56.9484Z" fill="#DBE5F1"></path> <path fill-rule="evenodd" clip-rule="evenodd" d="M68.8091 58.7589C69.3164 58.442 69.3385 57.9666 68.8091 57.6496C68.5224 57.4987 68.2048 57.4199 67.8826 57.4199C67.5604 57.4199 67.2428 57.4987 66.9561 57.6496C66.8416 57.6839 66.741 57.7554 66.6694 57.8534C66.5978 57.9513 66.5591 58.0705 66.5591 58.193C66.5591 58.3154 66.5978 58.4346 66.6694 58.5326C66.741 58.6305 66.8416 58.702 66.9561 58.7363C67.2416 58.889 67.5581 58.9706 67.88 58.9746C68.2019 58.9785 68.5202 58.9046 68.8091 58.7589V58.7589Z" fill="#DBE5F1"></path> <path fill-rule="evenodd" clip-rule="evenodd" d="M57.3603 69.4019L54.978 70.8055C54.9127 70.8503 54.8359 70.8741 54.7574 70.8741C54.6789 70.8741 54.6021 70.8503 54.5368 70.8055L54.25 70.647C54.2149 70.647 54.1813 70.6327 54.1564 70.6072C54.1316 70.5817 54.1177 70.5472 54.1177 70.5112C54.1177 70.4751 54.1316 70.4406 54.1564 70.4151C54.1813 70.3896 54.2149 70.3753 54.25 70.3753L56.6103 68.9717C56.6791 68.9376 56.7545 68.9199 56.8309 68.9199C56.9073 68.9199 56.9827 68.9376 57.0515 68.9717L57.3603 69.1528C57.3839 69.1634 57.404 69.1808 57.4181 69.2029C57.4323 69.225 57.4398 69.2509 57.4398 69.2773C57.4398 69.3038 57.4323 69.3296 57.4181 69.3518C57.404 69.3739 57.3839 69.3913 57.3603 69.4019V69.4019Z" fill="#DBE5F1"></path> <path fill-rule="evenodd" clip-rule="evenodd" d="M49.7499 64.896L47.4117 66.2996C47.3446 66.3394 47.2685 66.3603 47.1911 66.3603C47.1136 66.3603 47.0376 66.3394 46.9705 66.2996L46.6837 66.1411C46.5514 66.1411 46.5514 65.9374 46.6837 65.8695L49.044 64.4659C49.1128 64.4318 49.1882 64.4141 49.2646 64.4141C49.341 64.4141 49.4164 64.4318 49.4852 64.4659L49.794 64.647C49.8167 64.6613 49.8347 64.6823 49.8455 64.7073C49.8564 64.7323 49.8597 64.76 49.8549 64.787C49.8501 64.8139 49.8376 64.8387 49.8188 64.8581C49.8001 64.8776 49.7761 64.8908 49.7499 64.896Z" fill="#DBE5F1"></path> <path fill-rule="evenodd" clip-rule="evenodd" d="M52.7723 68.2461C52.4856 68.397 52.168 68.4758 51.8458 68.4758C51.5236 68.4758 51.206 68.397 50.9193 68.2461C50.8148 68.2014 50.7255 68.1259 50.6627 68.0292C50.5999 67.9325 50.5664 67.8189 50.5664 67.7027C50.5664 67.5865 50.5999 67.4729 50.6627 67.3762C50.7255 67.2795 50.8148 67.2041 50.9193 67.1594C51.206 67.0084 51.5236 66.9297 51.8458 66.9297C52.168 66.9297 52.4856 67.0084 52.7723 67.1594C53.3017 67.4311 53.2796 67.9518 52.7723 68.2461Z" fill="#DBE5F1"></path> <path fill-rule="evenodd" clip-rule="evenodd" d="M57.6916 61.1382L59.3901 62.1569C59.8254 61.8828 60.283 61.648 60.7578 61.4551C61.1499 61.2947 61.5717 61.2251 61.9931 61.2514C62.4801 61.2923 62.9497 61.4555 63.3607 61.7268C63.7361 61.9163 64.0615 62.1958 64.3093 62.5418C64.3851 62.655 64.4258 62.7892 64.4258 62.9266C64.4258 63.0641 64.3851 63.1983 64.3093 63.3115C64.0279 63.6661 63.6927 63.9719 63.3166 64.2171L63.1181 64.3303L63.7798 64.7151L63.074 65.1679L62.4122 64.783C62.0929 64.9856 61.7614 65.1671 61.4196 65.3264C61.1009 65.4588 60.7675 65.5501 60.4269 65.5981C60.0844 65.6653 59.7326 65.6653 59.3901 65.5981C59.0523 65.5114 58.7315 65.3659 58.4416 65.1679L58.199 65.0547L59.2357 64.3755C59.4566 64.5179 59.6937 64.6319 59.9416 64.7151C60.1093 64.7471 60.2813 64.7471 60.449 64.7151C60.6091 64.694 60.7653 64.6482 60.9122 64.5793L61.596 64.1944L59.7431 63.1078L58.6843 63.6511C58.4048 63.7858 58.1075 63.8773 57.8019 63.9228C57.4807 63.9789 57.1525 63.9789 56.8313 63.9228C56.4507 63.8289 56.0863 63.6763 55.7504 63.47C55.3853 63.2982 55.0892 63.0023 54.9122 62.6323C54.879 62.4936 54.8842 62.3481 54.927 62.2121C54.9699 62.0762 55.0488 61.9552 55.1548 61.8626C55.4576 61.5316 55.8071 61.2493 56.1916 61.025L55.5078 60.6401L56.2357 60.2326L56.8313 60.5722C57.266 60.3034 57.7238 60.0761 58.199 59.893C58.5827 59.764 58.9898 59.7254 59.3901 59.7798C59.8395 59.8758 60.2665 60.0603 60.6475 60.3232L59.6328 60.9797H59.5004C59.2819 60.7899 59.013 60.6717 58.7284 60.6401C58.4431 60.6802 58.171 60.7888 57.9343 60.957L57.6916 61.1155V61.1382ZM60.2945 62.6776L62.1475 63.7869L62.346 63.6511C62.6769 63.4247 62.8754 63.2436 62.9195 63.0398C62.9637 62.8361 62.7872 62.6776 62.4343 62.4739C62.2228 62.312 61.9697 62.2176 61.7063 62.2022C61.5043 62.1442 61.2907 62.1442 61.0887 62.2022L60.2945 62.5871V62.6776ZM57.0298 61.5683H56.8754C56.6936 61.6779 56.5235 61.8069 56.3681 61.9532C56.341 62.0055 56.3269 62.0638 56.3269 62.123C56.3269 62.1822 56.341 62.2405 56.3681 62.2928C56.4597 62.4591 56.5981 62.5932 56.7651 62.6776C57.0616 62.8659 57.4115 62.9457 57.7578 62.904C58.1375 62.8433 58.4993 62.6964 58.8166 62.4739L57.0298 61.5683Z" fill="#2D65AE"></path> <path fill-rule="evenodd" clip-rule="evenodd" d="M75.0294 44.6562V51.0857L75.0074 51.1989L74.9853 51.3348L74.9191 51.4706L74.8529 51.6064L74.7647 51.7196L74.6544 51.8328L74.5 51.946L74.3456 52.0592L55.8603 62.9939L55.7721 63.0618L55.6838 63.1071L55.5956 63.1524L55.5074 63.175L55.3971 63.2203L55.3088 63.2429L55.1985 63.2882L55.0882 63.3108L54.9779 63.3335L54.8897 63.3561L54.7794 63.3788H54.6691L54.5588 63.4014H54.4485H54.3382H54.2059H54.0956H53.9853H53.875L53.7647 63.3788H53.6544L53.5441 63.3561L53.4559 63.3335L53.3456 63.3108L53.2353 63.2882L53.125 63.2429L53.0368 63.2203L52.9265 63.175L52.8382 63.1524L52.75 63.1071L52.6618 63.0618L52.5735 62.9939L43.6838 57.7416L43.5294 57.6284L43.375 57.5152L43.2647 57.402L43.1765 57.2889L43.0882 57.153L43.0441 57.0172L43.0221 56.904L43 56.7682V50.3387L43.0221 50.4519L43.0441 50.5877L43.0882 50.7235L43.1765 50.8594L43.2647 50.9726L43.375 51.0857L43.5294 51.1989L43.6838 51.3121L52.5735 56.5644L52.6618 56.6097L52.75 56.655L52.8382 56.7002L52.9265 56.7455L53.0368 56.7908L53.125 56.8134L53.2353 56.8361L53.3456 56.8813L53.4338 56.904L53.5441 56.9266H53.6544L53.7647 56.9493L53.875 56.9719H53.9853H54.0956H54.2059H54.3162H54.4265H54.5588L54.6691 56.9493L54.7794 56.9266H54.8676L54.9779 56.904L55.0882 56.8813L55.1985 56.8361L55.3088 56.8134L55.3971 56.7908L55.5074 56.7455L55.5956 56.7002L55.6838 56.655L55.7721 56.6097L55.8603 56.5644L74.3456 45.6297L74.5 45.5165L74.6324 45.4033L74.7647 45.2901L74.8529 45.1769L74.9191 45.0411L74.9853 44.9053L75.0074 44.7694L75.0294 44.6562Z" fill="#AFC4E0"></path> <path fill-rule="evenodd" clip-rule="evenodd" d="M43.6839 49.32L62.1692 38.408C62.6776 38.1399 63.241 38 63.8126 38C64.3842 38 64.9476 38.1399 65.456 38.408L74.2795 43.6603C74.4793 43.7308 74.6527 43.8636 74.7755 44.0401C74.8983 44.2167 74.9642 44.4282 74.9642 44.6451C74.9642 44.8619 74.8983 45.0734 74.7755 45.25C74.6527 45.4265 74.4793 45.5593 74.2795 45.6299L55.8604 56.5645C55.352 56.8327 54.7886 56.9725 54.217 56.9725C53.6454 56.9725 53.082 56.8327 52.5736 56.5645L43.7501 51.3123C43.526 51.2717 43.3222 51.1534 43.1729 50.9771C43.0237 50.8007 42.938 50.5771 42.9303 50.3437C42.9225 50.1102 42.9932 49.8811 43.1304 49.6948C43.2676 49.5084 43.463 49.3761 43.6839 49.32V49.32Z" fill="#DBE5F1"></path> <path fill-rule="evenodd" clip-rule="evenodd" d="M54.3823 46.8301C54.3823 47.6451 54.8676 48.5733 56.0588 49.2751C57.314 49.9805 58.7316 50.3247 60.1617 50.2712V50.2712L54.3823 46.8301Z" fill="#DBE5F1"></path> <path fill-rule="evenodd" clip-rule="evenodd" d="M65.3675 49.1622C65.8087 47.9171 65.0587 46.3776 62.8528 45.1778C60.8372 44.0293 58.5307 43.5322 56.2352 43.7515L55.9043 43.5477L63.4705 39.0199C63.6474 38.9247 63.8442 38.875 64.044 38.875C64.2438 38.875 64.4406 38.9247 64.6175 39.0199L73.2205 44.1137C73.5514 44.2948 73.5734 44.6118 73.2205 44.7929L65.6984 49.3207L65.3675 49.1622Z" fill="#2D65AE"></path> <path fill-rule="evenodd" clip-rule="evenodd" d="M57.8896 44.7934C59.3288 44.7179 60.7593 45.0633 62.0146 45.7895C63.2058 46.4913 63.7794 47.3969 63.6911 48.2119L57.8896 44.7934Z" fill="#DBE5F1"></path> <path fill-rule="evenodd" clip-rule="evenodd" d="M61.8383 51.2453C59.5428 51.4646 57.2363 50.9675 55.2206 49.8191C53.125 48.6419 52.2648 47.0571 52.6839 45.8346L52.375 45.6309L44.8089 50.1587C44.5 50.3398 44.5221 50.6567 44.8089 50.8378L53.4118 55.9543C53.5903 56.0442 53.7865 56.091 53.9853 56.091C54.1842 56.091 54.3804 56.0442 54.5589 55.9543L62.125 51.4265L61.8383 51.2453Z" fill="#2D65AE"></path> <path fill-rule="evenodd" clip-rule="evenodd" d="M69.8234 45.991L72.1616 44.61C72.1967 44.61 72.2304 44.5957 72.2552 44.5703C72.2801 44.5448 72.294 44.5102 72.294 44.4742C72.294 44.4382 72.2801 44.4036 72.2552 44.3782C72.2304 44.3527 72.1967 44.3384 72.1616 44.3384L71.8749 44.1573C71.8061 44.1232 71.7307 44.1055 71.6543 44.1055C71.5779 44.1055 71.5025 44.1232 71.4337 44.1573L69.0734 45.5609C69.0506 45.575 69.0317 45.5949 69.0186 45.6187C69.0054 45.6425 68.9985 45.6694 68.9985 45.6967C68.9985 45.7241 69.0054 45.7509 69.0186 45.7747C69.0317 45.7986 69.0506 45.8185 69.0734 45.8326L69.3822 45.991C69.4475 46.0358 69.5243 46.0597 69.6028 46.0597C69.6814 46.0597 69.7581 46.0358 69.8234 45.991V45.991Z" fill="#DBE5F1"></path> <path fill-rule="evenodd" clip-rule="evenodd" d="M62.2574 41.532L64.6177 40.1284C64.6177 40.1284 64.6177 39.9473 64.6177 39.8567L64.3089 39.6983C64.2401 39.6642 64.1647 39.6465 64.0883 39.6465C64.0119 39.6465 63.9365 39.6642 63.8677 39.6983L61.5294 41.0793C61.3971 41.0793 61.3971 41.283 61.5294 41.3509L61.8162 41.532C61.885 41.5661 61.9604 41.5838 62.0368 41.5838C62.1132 41.5838 62.1886 41.5661 62.2574 41.532V41.532Z" fill="#DBE5F1"></path> <path fill-rule="evenodd" clip-rule="evenodd" d="M67.8823 43.2986C67.9868 43.2539 68.0761 43.1785 68.1389 43.0818C68.2017 42.9851 68.2353 42.8715 68.2353 42.7553C68.2353 42.6391 68.2017 42.5255 68.1389 42.4288C68.0761 42.3321 67.9868 42.2567 67.8823 42.212C67.5995 42.0612 67.2855 41.9824 66.9669 41.9824C66.6482 41.9824 66.3342 42.0612 66.0514 42.212C65.5441 42.5063 65.522 43.0043 66.0514 43.2986C66.3342 43.4494 66.6482 43.5282 66.9669 43.5282C67.2855 43.5282 67.5995 43.4494 67.8823 43.2986V43.2986Z" fill="#DBE5F1"></path> <path fill-rule="evenodd" clip-rule="evenodd" d="M56.5 53.8465L54.1397 55.2275C54.0744 55.2722 53.9977 55.2961 53.9191 55.2961C53.8406 55.2961 53.7639 55.2722 53.6986 55.2275L53.4118 55.069C53.389 55.0549 53.3701 55.035 53.3569 55.0112C53.3438 54.9874 53.3369 54.9605 53.3369 54.9331C53.3369 54.9058 53.3438 54.8789 53.3569 54.8551C53.3701 54.8313 53.389 54.8114 53.4118 54.7973L55.7721 53.4163C55.8374 53.3716 55.9141 53.3477 55.9927 53.3477C56.0712 53.3477 56.148 53.3716 56.2133 53.4163L56.5 53.5748C56.5351 53.5748 56.5688 53.5891 56.5936 53.6146C56.6184 53.6401 56.6324 53.6746 56.6324 53.7106C56.6324 53.7467 56.6184 53.7812 56.5936 53.8067C56.5688 53.8322 56.5351 53.8465 56.5 53.8465V53.8465Z" fill="#DBE5F1"></path> <path fill-rule="evenodd" clip-rule="evenodd" d="M48.9337 49.3198L46.5954 50.7234C46.5266 50.7575 46.4512 50.7752 46.3748 50.7752C46.2984 50.7752 46.223 50.7575 46.1542 50.7234L45.8454 50.5423C45.7351 50.5423 45.7351 50.3612 45.8454 50.2707L48.2057 48.8897C48.2745 48.8556 48.3499 48.8379 48.4263 48.8379C48.5027 48.8379 48.5781 48.8556 48.6469 48.8897L48.9337 49.0482C49.066 49.3198 49.066 49.3198 48.9337 49.3198Z" fill="#DBE5F1"></path> <path fill-rule="evenodd" clip-rule="evenodd" d="M51.9562 52.7377C51.6719 52.8832 51.3585 52.9589 51.0408 52.9589C50.7231 52.9589 50.4097 52.8832 50.1254 52.7377C49.618 52.466 49.618 51.9679 50.1474 51.5831C50.4302 51.4322 50.7442 51.3535 51.0629 51.3535C51.3815 51.3535 51.6955 51.4322 51.9783 51.5831C52.108 51.6121 52.2239 51.6865 52.3061 51.7935C52.3884 51.9005 52.4319 52.0334 52.4293 52.1697C52.4267 52.3059 52.3781 52.437 52.2919 52.5406C52.2056 52.6442 52.087 52.7138 51.9562 52.7377V52.7377Z" fill="#DBE5F1"></path> <path fill-rule="evenodd" clip-rule="evenodd" d="M75.0294 45.1094V45.4263L75.0074 45.5622L74.9853 45.698L74.9191 45.8338L74.8529 45.947L74.7647 46.0829L74.6324 46.196L74.5 46.3092L74.3456 46.3998L55.8603 57.3571L55.7721 57.4024L55.6838 57.4477L55.5956 57.4929L55.5074 57.5382L55.3971 57.5609L55.3088 57.6061L55.1985 57.6288L55.0882 57.6514L54.9779 57.6741L54.8676 57.6967L54.7794 57.7193L54.6691 57.742H54.5588L54.4265 57.7646H54.3162H54.2059H54.0956H53.9853L53.875 57.742H53.7647L53.6544 57.7193L53.5441 57.6967L53.4338 57.6741L53.3456 57.6514L53.2353 57.6288L53.125 57.6061L53.0368 57.5609L52.9265 57.5382L52.8382 57.4929L52.75 57.4477L52.6618 57.4024L52.5735 57.3571L43.6838 52.0822L43.5294 51.9917L43.375 51.8785L43.2647 51.7653L43.1765 51.6294L43.0882 51.5162L43.0441 51.3804L43.0221 51.2446L43 51.1087V50.7918L43.0221 50.9276L43.0441 51.0634L43.0882 51.1993L43.1765 51.3125L43.2647 51.4483L43.375 51.5615L43.5294 51.6747L43.6838 51.7653L52.5735 57.0402L52.6618 57.0854L52.75 57.1307L52.8382 57.176L52.9265 57.2213L53.0368 57.2439L53.125 57.2892L53.2353 57.3118L53.3456 57.3345L53.4338 57.3571L53.5441 57.3797L53.6544 57.4024L53.7647 57.425H53.875L53.9853 57.4477H54.0956H54.2059H54.3162H54.4265L54.5588 57.425H54.6691L54.7794 57.4024L54.8676 57.3797L54.9779 57.3571L55.0882 57.3345L55.1985 57.3118L55.3088 57.2892L55.3971 57.2439L55.5074 57.2213L55.5956 57.176L55.6838 57.1307L55.7721 57.0854L55.8603 57.0402L74.3456 46.0829L74.5 45.9923L74.6324 45.8791L74.7647 45.7433L74.8529 45.6301L74.9191 45.4942L74.9853 45.381L75.0074 45.2452L75.0294 45.1094Z" fill="#6A92C5"></path> <path fill-rule="evenodd" clip-rule="evenodd" d="M75.0294 45.8574V46.1744L75.0074 46.3102L74.9853 46.446L74.9191 46.5592L74.8529 46.6951L74.7647 46.8083L74.6324 46.9441L74.5 47.0573L74.3456 47.1478L55.8603 58.1052L55.7721 58.1504L55.6838 58.1957L55.5956 58.241L55.5074 58.2863L55.3971 58.3089L55.3088 58.3542L55.1985 58.3768L55.0882 58.3995L54.9779 58.4221L54.8676 58.4447L54.7794 58.4674L54.6691 58.49H54.5588H54.4265L54.3162 58.5127H54.2059H54.0956L53.9853 58.49H53.875H53.7647L53.6544 58.4674L53.5441 58.4447L53.4338 58.4221L53.3456 58.3995L53.2353 58.3768L53.125 58.3542L53.0368 58.3089L52.9265 58.2863L52.8382 58.241L52.75 58.1957L52.6618 58.1504L52.5735 58.1052L43.6838 52.8303L43.5294 52.7397L43.375 52.6265L43.2647 52.5133L43.1765 52.3775L43.0882 52.2643L43.0441 52.1284L43.0221 51.9926L43 51.8568V51.5398L43.0221 51.6757L43.0441 51.8115L43.0882 51.9247L43.1765 52.0605L43.2647 52.1737L43.375 52.3096L43.5294 52.4228L43.6838 52.5133L52.5735 57.7882L52.6618 57.8335L52.75 57.8788L52.8382 57.924L52.9265 57.9693L53.0368 57.992L53.125 58.0372L53.2353 58.0599L53.3456 58.0825L53.4338 58.1052L53.5441 58.1278L53.6544 58.1504H53.7647L53.875 58.1731H53.9853H54.0956L54.2059 58.1957L54.3162 58.1731H54.4265H54.5588L54.6691 58.1504H54.7794L54.8676 58.1278L54.9779 58.1052L55.0882 58.0825L55.1985 58.0599L55.3088 58.0372L55.3971 57.992L55.5074 57.9693L55.5956 57.924L55.6838 57.8788L55.7721 57.8335L55.8603 57.7882L74.3456 46.8309L74.5 46.7177L74.6324 46.6271L74.7647 46.4913L74.8529 46.3781L74.9191 46.2423L74.9853 46.1291L75.0074 45.9933L75.0294 45.8574Z" fill="#6A92C5"></path> <path fill-rule="evenodd" clip-rule="evenodd" d="M75.0294 46.6035V46.9205L75.0074 47.0563L74.9853 47.1921L74.9191 47.3053L74.8529 47.4412L74.7647 47.5544L74.6324 47.6902L74.5 47.7807L74.3456 47.8939L55.8603 58.8513L55.7721 58.8965L55.6838 58.9418L55.5956 58.9871L55.5074 59.0324L55.3971 59.055L55.3088 59.1003L55.1985 59.1229L55.0882 59.1456L54.9779 59.1682L54.8676 59.1908L54.7794 59.2135H54.6691L54.5588 59.2361H54.4265H54.3162H54.2059H54.0956H53.9853H53.875L53.7647 59.2135H53.6544L53.5441 59.1908L53.4338 59.1682L53.3456 59.1456L53.2353 59.1229L53.125 59.1003L53.0368 59.055L52.9265 59.0324L52.8382 58.9871L52.75 58.9418L52.6618 58.8965L52.5735 58.8513L43.6838 53.5763L43.5294 53.4632L43.375 53.3726L43.2647 53.2368L43.1765 53.1236L43.0882 52.9877L43.0441 52.8745L43.0221 52.7387L43 52.6029V52.2859L43.0221 52.4218L43.0441 52.535L43.0882 52.6708L43.1765 52.8066L43.2647 52.9198L43.375 53.033L43.5294 53.1462L43.6838 53.2594L52.5735 58.5343L52.6618 58.5796L52.75 58.6249L52.8382 58.6701L52.9265 58.6928L53.0368 58.7381L53.125 58.7833L53.2353 58.806L53.3456 58.8286L53.4338 58.8513L53.5441 58.8739L53.6544 58.8965H53.7647L53.875 58.9192H53.9853H54.0956H54.2059H54.3162H54.4265H54.5588L54.6691 58.8965H54.7794L54.8676 58.8739L54.9779 58.8513L55.0882 58.8286L55.1985 58.806L55.3088 58.7833L55.3971 58.7381L55.5074 58.6928L55.5956 58.6701L55.6838 58.6249L55.7721 58.5796L55.8603 58.5343L74.3456 47.577L74.5 47.4638L74.6324 47.3506L74.7647 47.2374L74.8529 47.1242L74.9191 46.9884L74.9853 46.8525L75.0074 46.7393L75.0294 46.6035Z" fill="#6A92C5"></path> <path fill-rule="evenodd" clip-rule="evenodd" d="M75.0294 47.3516V47.6685L75.0074 47.8043L74.9853 47.9175L74.9191 48.0534L74.8529 48.1892L74.7647 48.3024L74.6324 48.4156L74.5 48.5288L74.3456 48.642L55.8603 59.5993L55.7721 59.6446L55.6838 59.6899L55.5956 59.7351L55.5074 59.7578L55.3971 59.803L55.3088 59.8257L55.1985 59.871L55.0882 59.8936L54.9779 59.9162L54.8676 59.9389L54.7794 59.9615H54.6691L54.5588 59.9842H54.4485H54.3162H54.2059H54.0956H53.9853H53.875L53.7647 59.9615H53.6544L53.5441 59.9389L53.4338 59.9162L53.3456 59.8936L53.2353 59.871L53.125 59.8257L53.0368 59.803L52.9265 59.7578L52.8382 59.7351L52.75 59.6899L52.6618 59.6446L52.5735 59.5993L43.6838 54.3244L43.5294 54.2112L43.375 54.098L43.2647 53.9848L43.1765 53.8716L43.0882 53.7358L43.0441 53.5999L43.0221 53.4867L43 53.3509V53.034L43.0221 53.1698L43.0441 53.283L43.0882 53.4188L43.1765 53.5547L43.2647 53.6679L43.375 53.7811L43.5294 53.8943L43.6838 54.0074L52.5735 59.2597L52.6618 59.3276L52.75 59.3729L52.8382 59.4182L52.9265 59.4408L53.0368 59.4861L53.125 59.5087L53.2353 59.554L53.3456 59.5767L53.4338 59.5993L53.5441 59.6219H53.6544L53.7647 59.6446L53.875 59.6672H53.9853H54.0956H54.2059H54.3162H54.4265H54.5588L54.6691 59.6446L54.7794 59.6219H54.8676L54.9779 59.5993L55.0882 59.5767L55.1985 59.554L55.3088 59.5087L55.3971 59.4861L55.5074 59.4408L55.5956 59.4182L55.6838 59.3729L55.7721 59.3276L55.8603 59.2597L74.3456 48.325L74.5 48.2118L74.6324 48.0987L74.7647 47.9855L74.8529 47.8723L74.9191 47.7364L74.9853 47.6006L75.0074 47.4648L75.0294 47.3516Z" fill="#6A92C5"></path> <path fill-rule="evenodd" clip-rule="evenodd" d="M75.0294 48.0977V48.4146L75.0074 48.5278L74.9853 48.6636L74.9191 48.7995L74.8529 48.9353L74.7647 49.0485L74.6324 49.1617L74.5 49.2749L74.3456 49.3881L55.8603 60.3228L55.7721 60.3907L55.6838 60.4359L55.5956 60.4812L55.5074 60.5039L55.3971 60.5491L55.3088 60.5718L55.1985 60.6171L55.0882 60.6397L54.9779 60.6623L54.8676 60.685L54.7794 60.7076H54.6691L54.5588 60.7303H54.4485H54.3162H54.2059H54.0956H53.9853H53.875L53.7647 60.7076H53.6544L53.5441 60.685L53.4338 60.6623L53.3456 60.6397L53.2353 60.6171L53.125 60.5718L53.0368 60.5491L52.9265 60.5039L52.8382 60.4812L52.75 60.4359L52.6618 60.3907L52.5735 60.3228L43.6838 55.0705L43.5294 54.9573L43.375 54.8441L43.2647 54.7309L43.1765 54.6177L43.0882 54.4819L43.0441 54.346L43.0221 54.2328L43 54.097V53.7801L43.0221 53.8933L43.0441 54.0291L43.0882 54.1649L43.1765 54.3008L43.2647 54.414L43.375 54.5272L43.5294 54.6403L43.6838 54.7535L52.5735 60.0058L52.6618 60.0511L52.75 60.0964L52.8382 60.1416L52.9265 60.1869L53.0368 60.2322L53.125 60.2548L53.2353 60.3001L53.3456 60.3228L53.4338 60.3454L53.5441 60.368H53.6544L53.7647 60.3907H53.875L53.9853 60.4133H54.0956H54.2059H54.3162H54.4485L54.5588 60.3907H54.6691L54.7794 60.368H54.8676L54.9779 60.3454L55.0882 60.3228L55.1985 60.3001L55.3088 60.2548L55.3971 60.2322L55.5074 60.1869L55.5956 60.1416L55.6838 60.119L55.7721 60.0511L55.8603 60.0058L74.3456 49.0711L74.5 48.9579L74.6324 48.8447L74.7647 48.7315L74.8529 48.5957L74.9191 48.4825L74.9853 48.3467L75.0074 48.2109L75.0294 48.0977Z" fill="#6A92C5"></path> <path fill-rule="evenodd" clip-rule="evenodd" d="M75.0294 48.8203V49.1373L75.0074 49.2731L74.9853 49.4089L74.9191 49.5448L74.8529 49.658L74.7647 49.7938L74.6324 49.907L74.5 50.0202L74.3456 50.1334L55.8603 61.068L55.7721 61.1133L55.6838 61.1586L55.5956 61.2039L55.5074 61.2492L55.3971 61.2944L55.3088 61.3171L55.1985 61.3397L55.0882 61.385L54.9779 61.4076L54.8676 61.4303H54.7794L54.6691 61.4529H54.5588L54.4485 61.4756H54.3162H54.2059H54.0956H53.9853L53.875 61.4529H53.7647L53.6544 61.4303H53.5441L53.4338 61.4076L53.3456 61.385L53.2353 61.3397L53.125 61.3171L53.0368 61.2944L52.9265 61.2492L52.8382 61.2039L52.75 61.1586L52.6618 61.1133L52.5735 61.068L43.6838 55.8158L43.5294 55.7026L43.375 55.5894L43.2647 55.4762L43.1765 55.363L43.0882 55.2272L43.0441 55.0913L43.0221 54.9555L43 54.8197V54.5027L43.0221 54.6386L43.0441 54.7744L43.0882 54.9102L43.1765 55.0234L43.2647 55.1593L43.375 55.2724L43.5294 55.3856L43.6838 55.4762L52.5735 60.7511L52.6618 60.7964L52.75 60.8417L52.8382 60.8869L52.9265 60.9322L53.0368 60.9549L53.125 61.0001L53.2353 61.0228L53.3456 61.068L53.4338 61.0907H53.5441L53.6544 61.1133L53.7647 61.136H53.875L53.9853 61.1586H54.0956H54.2059H54.3162H54.4485L54.5588 61.136H54.6691L54.7794 61.1133L54.8676 61.0907H54.9779L55.0882 61.068L55.1985 61.0228L55.3088 61.0001L55.3971 60.9549L55.5074 60.9322L55.5956 60.8869L55.6838 60.8417L55.7721 60.7964L55.8603 60.7511L74.3456 49.7938L74.5 49.7032L74.6324 49.59L74.7647 49.4768L74.8529 49.341L74.9191 49.2278L74.9853 49.092L75.0074 48.9561L75.0294 48.8203Z" fill="#6A92C5"></path> <path fill-rule="evenodd" clip-rule="evenodd" d="M75.0294 49.5684V49.8853L75.0074 50.0211L74.9853 50.157L74.9191 50.2928L74.8529 50.406L74.7647 50.5418L74.6324 50.655L74.5 50.7682L74.3456 50.8588L55.8603 61.8161L55.7721 61.8614L55.6838 61.9067L55.5956 61.9519L55.5074 61.9972L55.3971 62.0425L55.3088 62.0651L55.1985 62.0878L55.0882 62.1104L54.9779 62.133L54.8676 62.1557L54.7794 62.1783L54.6691 62.201H54.5588L54.4485 62.2236H54.3162H54.2059H54.0956H53.9853L53.875 62.201H53.7647L53.6544 62.1783L53.5441 62.1557L53.4338 62.133L53.3456 62.1104L53.2353 62.0878L53.125 62.0651L53.0368 62.0425L52.9265 61.9972L52.8382 61.9519L52.75 61.9067L52.6618 61.8614L52.5735 61.8161L43.6838 56.5638L43.5294 56.4506L43.375 56.3374L43.2647 56.2242L43.1765 56.0884L43.0882 55.9752L43.0441 55.8394L43.0221 55.7035L43 55.5677V55.2508L43.0221 55.3866L43.0441 55.5224L43.0882 55.6583L43.1765 55.7715L43.2647 55.9073L43.375 56.0205L43.5294 56.1337L43.6838 56.2242L52.5735 61.4991L52.6618 61.5444L52.75 61.5897L52.8382 61.635L52.9265 61.6803L53.0368 61.7029L53.125 61.7482L53.2353 61.7708L53.3456 61.7935L53.4338 61.8161L53.5441 61.8387L53.6544 61.8614L53.7647 61.884H53.875H53.9853L54.0956 61.9067H54.2059H54.3162L54.4485 61.884H54.5588H54.6691L54.7794 61.8614L54.8676 61.8387L54.9779 61.8161L55.0882 61.7935L55.1985 61.7708L55.3088 61.7482L55.3971 61.7029L55.5074 61.6803L55.5956 61.635L55.6838 61.5897L55.7721 61.5444L55.8603 61.4991L74.3456 50.5418L74.5 50.4513L74.6324 50.3381L74.7647 50.2023L74.8529 50.0891L74.9191 49.9759L74.9853 49.84L75.0074 49.7042L75.0294 49.5684Z" fill="#6A92C5"></path> <path fill-rule="evenodd" clip-rule="evenodd" d="M75.0294 50.3145V50.6314L75.0074 50.7672L74.9853 50.9031L74.9191 51.0163L74.8529 51.1521L74.7647 51.2879L74.6324 51.4011L74.5 51.5143L74.3456 51.6049L55.8603 62.5622L55.7721 62.6075L55.6838 62.6527L55.5956 62.698L55.5074 62.7433L55.3971 62.7659L55.3088 62.8112L55.1985 62.8339L55.0882 62.8565L54.9779 62.8791L54.8676 62.9018L54.7794 62.9244L54.6691 62.9471H54.5588L54.4485 62.9697H54.3162H54.2059H54.0956H53.9853L53.875 62.9471H53.7647L53.6544 62.9244L53.5441 62.9018L53.4338 62.8791L53.3456 62.8565L53.2353 62.8339L53.125 62.8112L53.0368 62.7659L52.9265 62.7433L52.8382 62.698L52.75 62.6527L52.6618 62.6075L52.5735 62.5622L43.6838 57.2873L43.5294 57.1967L43.375 57.0835L43.2647 56.9703L43.1765 56.8345L43.0882 56.7213L43.0441 56.5855L43.0221 56.4496L43 56.3138V55.9969L43.0221 56.1327L43.0441 56.2685L43.0882 56.4044L43.1765 56.5176L43.2647 56.6308L43.375 56.7666L43.5294 56.8798L43.6838 56.9703L52.5735 62.2452L52.6618 62.2905L52.75 62.3358L52.8382 62.3811L52.9265 62.4264L53.0368 62.449L53.125 62.4943L53.2353 62.5169L53.3456 62.5396L53.4338 62.5622L53.5441 62.5848L53.6544 62.6075L53.7647 62.6301H53.875H53.9853H54.0956L54.2059 62.6527L54.3162 62.6301H54.4485H54.5588H54.6691L54.7794 62.6075L54.8676 62.5848L54.9779 62.5622L55.0882 62.5396L55.1985 62.5169L55.3088 62.4943L55.3971 62.449L55.5074 62.4264L55.5956 62.3811L55.6838 62.3358L55.7721 62.2905L55.8603 62.2452L74.3456 51.2879L74.5 51.1974L74.6324 51.0842L74.7647 50.9483L74.8529 50.8352L74.9191 50.6993L74.9853 50.5861L75.0074 50.4503L75.0294 50.3145Z" fill="#6A92C5"></path> <path fill-rule="evenodd" clip-rule="evenodd" d="M67.2649 49.8184V56.2479L62.6987 58.9645V52.5124L67.2649 49.8184Z" fill="#DBE5F1"></path> <path fill-rule="evenodd" clip-rule="evenodd" d="M66.4266 56.7461L65.9854 57.0178V50.5656L66.4266 50.3166L66.8678 50.0449V56.4744L66.4266 56.7461ZM65.1031 57.5385L65.5443 57.2668V50.8373L65.1031 51.109L64.6619 51.358V57.7875L65.1031 57.5385V57.5385ZM64.2207 51.5844V58.0592L63.3384 58.5799V52.1504L64.2207 51.5844Z" fill="#85A6D0"></path> <path fill-rule="evenodd" clip-rule="evenodd" d="M75.0294 45.8574V46.1744L75.0074 46.3102L74.9853 46.446L74.9191 46.5592L74.8529 46.6951L74.7647 46.8083L74.6324 46.9441L74.5 47.0573L74.3456 47.1478L55.8603 58.1052L55.7721 58.1504L55.6838 58.1957L55.5956 58.241L55.5074 58.2863L55.3971 58.3089L55.3088 58.3542L55.1985 58.3768L55.0882 58.3995L54.9779 58.4221L54.8676 58.4447L54.7794 58.4674L54.6691 58.49H54.5588H54.4265L54.3162 58.5127H54.2059H54.0956L53.9853 58.49H53.875H53.7647L53.6544 58.4674L53.5441 58.4447L53.4338 58.4221L53.3456 58.3995L53.2353 58.3768L53.125 58.3542L53.0368 58.3089L52.9265 58.2863L52.8382 58.241L52.75 58.1957L52.6618 58.1504L52.5735 58.1052L43.6838 52.8303L43.5294 52.7397L43.375 52.6265L43.2647 52.5133L43.1765 52.3775L43.0882 52.2643L43.0441 52.1284L43.0221 51.9926L43 51.8568V51.5398L43.0221 51.6757L43.0441 51.8115L43.0882 51.9247L43.1765 52.0605L43.2647 52.1737L43.375 52.3096L43.5294 52.4228L43.6838 52.5133L52.5735 57.7882L52.6618 57.8335L52.75 57.8788L52.8382 57.924L52.9265 57.9693L53.0368 57.992L53.125 58.0372L53.2353 58.0599L53.3456 58.0825L53.4338 58.1052L53.5441 58.1278L53.6544 58.1504H53.7647L53.875 58.1731H53.9853H54.0956L54.2059 58.1957L54.3162 58.1731H54.4265H54.5588L54.6691 58.1504H54.7794L54.8676 58.1278L54.9779 58.1052L55.0882 58.0825L55.1985 58.0599L55.3088 58.0372L55.3971 57.992L55.5074 57.9693L55.5956 57.924L55.6838 57.8788L55.7721 57.8335L55.8603 57.7882L74.3456 46.8309L74.5 46.7177L74.6324 46.6271L74.7647 46.4913L74.8529 46.3781L74.9191 46.2423L74.9853 46.1291L75.0074 45.9933L75.0294 45.8574Z" fill="#6A92C5"></path> <path fill-rule="evenodd" clip-rule="evenodd" d="M75.0294 46.6035V46.9205L75.0074 47.0563L74.9853 47.1921L74.9191 47.3053L74.8529 47.4412L74.7647 47.5544L74.6324 47.6902L74.5 47.7807L74.3456 47.8939L55.8603 58.8513L55.7721 58.8965L55.6838 58.9418L55.5956 58.9871L55.5074 59.0324L55.3971 59.055L55.3088 59.1003L55.1985 59.1229L55.0882 59.1456L54.9779 59.1682L54.8676 59.1908L54.7794 59.2135H54.6691L54.5588 59.2361H54.4265H54.3162H54.2059H54.0956H53.9853H53.875L53.7647 59.2135H53.6544L53.5441 59.1908L53.4338 59.1682L53.3456 59.1456L53.2353 59.1229L53.125 59.1003L53.0368 59.055L52.9265 59.0324L52.8382 58.9871L52.75 58.9418L52.6618 58.8965L52.5735 58.8513L43.6838 53.5763L43.5294 53.4632L43.375 53.3726L43.2647 53.2368L43.1765 53.1236L43.0882 52.9877L43.0441 52.8745L43.0221 52.7387L43 52.6029V52.2859L43.0221 52.4218L43.0441 52.535L43.0882 52.6708L43.1765 52.8066L43.2647 52.9198L43.375 53.033L43.5294 53.1462L43.6838 53.2594L52.5735 58.5343L52.6618 58.5796L52.75 58.6249L52.8382 58.6701L52.9265 58.6928L53.0368 58.7381L53.125 58.7833L53.2353 58.806L53.3456 58.8286L53.4338 58.8513L53.5441 58.8739L53.6544 58.8965H53.7647L53.875 58.9192H53.9853H54.0956H54.2059H54.3162H54.4265H54.5588L54.6691 58.8965H54.7794L54.8676 58.8739L54.9779 58.8513L55.0882 58.8286L55.1985 58.806L55.3088 58.7833L55.3971 58.7381L55.5074 58.6928L55.5956 58.6701L55.6838 58.6249L55.7721 58.5796L55.8603 58.5343L74.3456 47.577L74.5 47.4638L74.6324 47.3506L74.7647 47.2374L74.8529 47.1242L74.9191 46.9884L74.9853 46.8525L75.0074 46.7393L75.0294 46.6035Z" fill="#6A92C5"></path> <path fill-rule="evenodd" clip-rule="evenodd" d="M75.0294 47.3516V47.6685L75.0074 47.8043L74.9853 47.9175L74.9191 48.0534L74.8529 48.1892L74.7647 48.3024L74.6324 48.4156L74.5 48.5288L74.3456 48.642L55.8603 59.5993L55.7721 59.6446L55.6838 59.6899L55.5956 59.7351L55.5074 59.7578L55.3971 59.803L55.3088 59.8257L55.1985 59.871L55.0882 59.8936L54.9779 59.9162L54.8676 59.9389L54.7794 59.9615H54.6691L54.5588 59.9842H54.4485H54.3162H54.2059H54.0956H53.9853H53.875L53.7647 59.9615H53.6544L53.5441 59.9389L53.4338 59.9162L53.3456 59.8936L53.2353 59.871L53.125 59.8257L53.0368 59.803L52.9265 59.7578L52.8382 59.7351L52.75 59.6899L52.6618 59.6446L52.5735 59.5993L43.6838 54.3244L43.5294 54.2112L43.375 54.098L43.2647 53.9848L43.1765 53.8716L43.0882 53.7358L43.0441 53.5999L43.0221 53.4867L43 53.3509V53.034L43.0221 53.1698L43.0441 53.283L43.0882 53.4188L43.1765 53.5547L43.2647 53.6679L43.375 53.7811L43.5294 53.8943L43.6838 54.0074L52.5735 59.2597L52.6618 59.3276L52.75 59.3729L52.8382 59.4182L52.9265 59.4408L53.0368 59.4861L53.125 59.5087L53.2353 59.554L53.3456 59.5767L53.4338 59.5993L53.5441 59.6219H53.6544L53.7647 59.6446L53.875 59.6672H53.9853H54.0956H54.2059H54.3162H54.4265H54.5588L54.6691 59.6446L54.7794 59.6219H54.8676L54.9779 59.5993L55.0882 59.5767L55.1985 59.554L55.3088 59.5087L55.3971 59.4861L55.5074 59.4408L55.5956 59.4182L55.6838 59.3729L55.7721 59.3276L55.8603 59.2597L74.3456 48.325L74.5 48.2118L74.6324 48.0987L74.7647 47.9855L74.8529 47.8723L74.9191 47.7364L74.9853 47.6006L75.0074 47.4648L75.0294 47.3516Z" fill="#6A92C5"></path> <path fill-rule="evenodd" clip-rule="evenodd" d="M75.0294 48.0977V48.4146L75.0074 48.5278L74.9853 48.6636L74.9191 48.7995L74.8529 48.9353L74.7647 49.0485L74.6324 49.1617L74.5 49.2749L74.3456 49.3881L55.8603 60.3228L55.7721 60.3907L55.6838 60.4359L55.5956 60.4812L55.5074 60.5039L55.3971 60.5491L55.3088 60.5718L55.1985 60.6171L55.0882 60.6397L54.9779 60.6623L54.8676 60.685L54.7794 60.7076H54.6691L54.5588 60.7303H54.4485H54.3162H54.2059H54.0956H53.9853H53.875L53.7647 60.7076H53.6544L53.5441 60.685L53.4338 60.6623L53.3456 60.6397L53.2353 60.6171L53.125 60.5718L53.0368 60.5491L52.9265 60.5039L52.8382 60.4812L52.75 60.4359L52.6618 60.3907L52.5735 60.3228L43.6838 55.0705L43.5294 54.9573L43.375 54.8441L43.2647 54.7309L43.1765 54.6177L43.0882 54.4819L43.0441 54.346L43.0221 54.2328L43 54.097V53.7801L43.0221 53.8933L43.0441 54.0291L43.0882 54.1649L43.1765 54.3008L43.2647 54.414L43.375 54.5272L43.5294 54.6403L43.6838 54.7535L52.5735 60.0058L52.6618 60.0511L52.75 60.0964L52.8382 60.1416L52.9265 60.1869L53.0368 60.2322L53.125 60.2548L53.2353 60.3001L53.3456 60.3228L53.4338 60.3454L53.5441 60.368H53.6544L53.7647 60.3907H53.875L53.9853 60.4133H54.0956H54.2059H54.3162H54.4485L54.5588 60.3907H54.6691L54.7794 60.368H54.8676L54.9779 60.3454L55.0882 60.3228L55.1985 60.3001L55.3088 60.2548L55.3971 60.2322L55.5074 60.1869L55.5956 60.1416L55.6838 60.119L55.7721 60.0511L55.8603 60.0058L74.3456 49.0711L74.5 48.9579L74.6324 48.8447L74.7647 48.7315L74.8529 48.5957L74.9191 48.4825L74.9853 48.3467L75.0074 48.2109L75.0294 48.0977Z" fill="#6A92C5"></path> <path fill-rule="evenodd" clip-rule="evenodd" d="M75.0294 48.8203V49.1373L75.0074 49.2731L74.9853 49.4089L74.9191 49.5448L74.8529 49.658L74.7647 49.7938L74.6324 49.907L74.5 50.0202L74.3456 50.1334L55.8603 61.068L55.7721 61.1133L55.6838 61.1586L55.5956 61.2039L55.5074 61.2492L55.3971 61.2944L55.3088 61.3171L55.1985 61.3397L55.0882 61.385L54.9779 61.4076L54.8676 61.4303H54.7794L54.6691 61.4529H54.5588L54.4485 61.4756H54.3162H54.2059H54.0956H53.9853L53.875 61.4529H53.7647L53.6544 61.4303H53.5441L53.4338 61.4076L53.3456 61.385L53.2353 61.3397L53.125 61.3171L53.0368 61.2944L52.9265 61.2492L52.8382 61.2039L52.75 61.1586L52.6618 61.1133L52.5735 61.068L43.6838 55.8158L43.5294 55.7026L43.375 55.5894L43.2647 55.4762L43.1765 55.363L43.0882 55.2272L43.0441 55.0913L43.0221 54.9555L43 54.8197V54.5027L43.0221 54.6386L43.0441 54.7744L43.0882 54.9102L43.1765 55.0234L43.2647 55.1593L43.375 55.2724L43.5294 55.3856L43.6838 55.4762L52.5735 60.7511L52.6618 60.7964L52.75 60.8417L52.8382 60.8869L52.9265 60.9322L53.0368 60.9549L53.125 61.0001L53.2353 61.0228L53.3456 61.068L53.4338 61.0907H53.5441L53.6544 61.1133L53.7647 61.136H53.875L53.9853 61.1586H54.0956H54.2059H54.3162H54.4485L54.5588 61.136H54.6691L54.7794 61.1133L54.8676 61.0907H54.9779L55.0882 61.068L55.1985 61.0228L55.3088 61.0001L55.3971 60.9549L55.5074 60.9322L55.5956 60.8869L55.6838 60.8417L55.7721 60.7964L55.8603 60.7511L74.3456 49.7938L74.5 49.7032L74.6324 49.59L74.7647 49.4768L74.8529 49.341L74.9191 49.2278L74.9853 49.092L75.0074 48.9561L75.0294 48.8203Z" fill="#6A92C5"></path> <path fill-rule="evenodd" clip-rule="evenodd" d="M75.0294 49.5684V49.8853L75.0074 50.0211L74.9853 50.157L74.9191 50.2928L74.8529 50.406L74.7647 50.5418L74.6324 50.655L74.5 50.7682L74.3456 50.8588L55.8603 61.8161L55.7721 61.8614L55.6838 61.9067L55.5956 61.9519L55.5074 61.9972L55.3971 62.0425L55.3088 62.0651L55.1985 62.0878L55.0882 62.1104L54.9779 62.133L54.8676 62.1557L54.7794 62.1783L54.6691 62.201H54.5588L54.4485 62.2236H54.3162H54.2059H54.0956H53.9853L53.875 62.201H53.7647L53.6544 62.1783L53.5441 62.1557L53.4338 62.133L53.3456 62.1104L53.2353 62.0878L53.125 62.0651L53.0368 62.0425L52.9265 61.9972L52.8382 61.9519L52.75 61.9067L52.6618 61.8614L52.5735 61.8161L43.6838 56.5638L43.5294 56.4506L43.375 56.3374L43.2647 56.2242L43.1765 56.0884L43.0882 55.9752L43.0441 55.8394L43.0221 55.7035L43 55.5677V55.2508L43.0221 55.3866L43.0441 55.5224L43.0882 55.6583L43.1765 55.7715L43.2647 55.9073L43.375 56.0205L43.5294 56.1337L43.6838 56.2242L52.5735 61.4991L52.6618 61.5444L52.75 61.5897L52.8382 61.635L52.9265 61.6803L53.0368 61.7029L53.125 61.7482L53.2353 61.7708L53.3456 61.7935L53.4338 61.8161L53.5441 61.8387L53.6544 61.8614L53.7647 61.884H53.875H53.9853L54.0956 61.9067H54.2059H54.3162L54.4485 61.884H54.5588H54.6691L54.7794 61.8614L54.8676 61.8387L54.9779 61.8161L55.0882 61.7935L55.1985 61.7708L55.3088 61.7482L55.3971 61.7029L55.5074 61.6803L55.5956 61.635L55.6838 61.5897L55.7721 61.5444L55.8603 61.4991L74.3456 50.5418L74.5 50.4513L74.6324 50.3381L74.7647 50.2023L74.8529 50.0891L74.9191 49.9759L74.9853 49.84L75.0074 49.7042L75.0294 49.5684Z" fill="#6A92C5"></path> <path fill-rule="evenodd" clip-rule="evenodd" d="M75.0294 50.3145V50.6314L75.0074 50.7672L74.9853 50.9031L74.9191 51.0163L74.8529 51.1521L74.7647 51.2879L74.6324 51.4011L74.5 51.5143L74.3456 51.6049L55.8603 62.5622L55.7721 62.6075L55.6838 62.6527L55.5956 62.698L55.5074 62.7433L55.3971 62.7659L55.3088 62.8112L55.1985 62.8339L55.0882 62.8565L54.9779 62.8791L54.8676 62.9018L54.7794 62.9244L54.6691 62.9471H54.5588L54.4485 62.9697H54.3162H54.2059H54.0956H53.9853L53.875 62.9471H53.7647L53.6544 62.9244L53.5441 62.9018L53.4338 62.8791L53.3456 62.8565L53.2353 62.8339L53.125 62.8112L53.0368 62.7659L52.9265 62.7433L52.8382 62.698L52.75 62.6527L52.6618 62.6075L52.5735 62.5622L43.6838 57.2873L43.5294 57.1967L43.375 57.0835L43.2647 56.9703L43.1765 56.8345L43.0882 56.7213L43.0441 56.5855L43.0221 56.4496L43 56.3138V55.9969L43.0221 56.1327L43.0441 56.2685L43.0882 56.4044L43.1765 56.5176L43.2647 56.6308L43.375 56.7666L43.5294 56.8798L43.6838 56.9703L52.5735 62.2452L52.6618 62.2905L52.75 62.3358L52.8382 62.3811L52.9265 62.4264L53.0368 62.449L53.125 62.4943L53.2353 62.5169L53.3456 62.5396L53.4338 62.5622L53.5441 62.5848L53.6544 62.6075L53.7647 62.6301H53.875H53.9853H54.0956L54.2059 62.6527L54.3162 62.6301H54.4485H54.5588H54.6691L54.7794 62.6075L54.8676 62.5848L54.9779 62.5622L55.0882 62.5396L55.1985 62.5169L55.3088 62.4943L55.3971 62.449L55.5074 62.4264L55.5956 62.3811L55.6838 62.3358L55.7721 62.2905L55.8603 62.2452L74.3456 51.2879L74.5 51.1974L74.6324 51.0842L74.7647 50.9483L74.8529 50.8352L74.9191 50.6993L74.9853 50.5861L75.0074 50.4503L75.0294 50.3145Z" fill="#6A92C5"></path> <path fill-rule="evenodd" clip-rule="evenodd" d="M67.2649 49.8184V56.2479L62.6987 58.9645V52.5124L67.2649 49.8184Z" fill="#DBE5F1"></path> <path fill-rule="evenodd" clip-rule="evenodd" d="M66.4266 56.7461L65.9854 57.0178V50.5656L66.4266 50.3166L66.8678 50.0449V56.4744L66.4266 56.7461ZM65.1031 57.5385L65.5443 57.2668V50.8373L65.1031 51.109L64.6619 51.358V57.7875L65.1031 57.5385V57.5385ZM64.2207 51.5844V58.0592L63.3384 58.5799V52.1504L64.2207 51.5844Z" fill="#85A6D0"></path> <path fill-rule="evenodd" clip-rule="evenodd" d="M57.0953 45.9476L58.8158 47.0569C59.2459 46.7875 59.6958 46.5528 60.1614 46.3551C60.5545 46.1982 60.9756 46.1287 61.3967 46.1513C61.9057 46.1527 62.4063 46.285 62.8526 46.5362C63.2332 46.7174 63.5604 46.9986 63.8011 47.3512C63.8742 47.4656 63.9131 47.5993 63.9131 47.7361C63.9131 47.8728 63.8742 48.0066 63.8011 48.1209C63.5332 48.4739 63.2041 48.7732 62.8306 49.0039L62.632 49.1397L63.2717 49.5246L62.632 49.9547L61.9703 49.5698L60.9556 50.1132C60.6388 50.2512 60.3046 50.3426 59.9629 50.3848C59.6278 50.452 59.2833 50.452 58.9482 50.3848C58.566 50.3079 58.2001 50.1623 57.8673 49.9547H57.6467L58.6835 49.2755C58.902 49.4078 59.1307 49.5213 59.3673 49.6151C59.5425 49.6455 59.7215 49.6455 59.8967 49.6151C60.013 49.5329 60.1171 49.4338 60.2056 49.3208L60.9114 48.9359L59.0585 47.8493L57.9776 48.3926C57.707 48.5302 57.4165 48.6219 57.1173 48.6643C56.7961 48.7204 56.4679 48.7204 56.1467 48.6643C55.7685 48.5632 55.405 48.4109 55.0658 48.2115C54.7007 48.0398 54.4046 47.7439 54.2276 47.3739C54.1943 47.237 54.1972 47.0935 54.236 46.9582C54.2747 46.8229 54.348 46.7007 54.4482 46.6041C54.7588 46.2726 55.1156 45.9903 55.507 45.7665L54.9114 45.4722L55.5732 45.042L56.235 45.3816C56.6536 45.1518 57.0887 44.955 57.5364 44.793C57.9199 44.6914 58.3221 44.6914 58.7056 44.793C59.2079 44.871 59.6888 45.0561 60.1173 45.3363L59.1026 45.9929H58.9703C58.729 45.827 58.4444 45.7401 58.1541 45.7438C57.8688 45.7839 57.5967 45.8925 57.36 46.0608L57.0953 46.2193V45.9476ZM59.6982 47.487L61.5511 48.5964L61.7497 48.4605C62.1026 48.2341 62.3011 48.0304 62.3232 47.8493C62.3453 47.6682 62.3232 47.487 61.86 47.2607C61.6306 47.1293 61.3727 47.0592 61.11 47.0569C60.9155 46.9984 60.7088 46.9984 60.5144 47.0569C60.2349 47.168 59.9624 47.2965 59.6982 47.4418V47.487ZM56.4556 46.3777L56.235 46.4683C56.0593 46.577 55.8965 46.7062 55.7497 46.8532C55.7183 46.9039 55.7016 46.9628 55.7016 47.0229C55.7016 47.0831 55.7183 47.142 55.7497 47.1927C55.7497 47.3059 55.9041 47.4418 56.1467 47.5776C56.4432 47.7659 56.7931 47.8457 57.1394 47.804C57.517 47.7353 57.8771 47.589 58.1982 47.3739L56.4556 46.3777Z" fill="#2D65AE"></path> <path fill-rule="evenodd" clip-rule="evenodd" d="M67.2868 49.8176L62.9412 52.3758L50.7427 45.1766L55.0883 42.5957L67.2868 49.8176Z" fill="#DBE5F1"></path> <path fill-rule="evenodd" clip-rule="evenodd" d="M64.2209 51.6281L63.3386 52.1488L51.1621 44.9269L52.0445 44.4062L64.2209 51.6281Z" fill="#85A6D0"></path> <path fill-rule="evenodd" clip-rule="evenodd" d="M64.6618 51.3578L65.103 51.1088L65.5442 50.8371L53.3677 43.6152L52.9265 43.8869L52.4854 44.1359L64.6618 51.3578Z" fill="#85A6D0"></path> <path fill-rule="evenodd" clip-rule="evenodd" d="M66.4267 50.3178L65.9856 50.5668L53.8091 43.3676L54.2503 43.0959L54.6914 42.8242L66.8679 50.0461L66.4267 50.3178Z" fill="#85A6D0"></path> </g> <defs> <filter id="filter0_d" x="0" y="0" width="110" height="110" filterUnits="userSpaceOnUse" color-interpolation-filters="sRGB"> <feFlood flood-opacity="0" result="BackgroundImageFix"></feFlood> <feColorMatrix in="SourceAlpha" type="matrix" values="0 0 0 0 0 0 0 0 0 0 0 0 0 0 0 0 0 0 127 0"></feColorMatrix> <feOffset dx="-4" dy="-1"></feOffset> <feGaussianBlur stdDeviation="8.5"></feGaussianBlur> <feColorMatrix type="matrix" values="0 0 0 0 1 0 0 0 0 1 0 0 0 0 1 0 0 0 0.78 0"></feColorMatrix> <feBlend mode="normal" in2="BackgroundImageFix" result="effect1_dropShadow"></feBlend> <feBlend mode="normal" in="SourceGraphic" in2="effect1_dropShadow" result="shape"></feBlend> </filter> <clipPath id="clip0"> <rect width="33" height="35" fill="white" transform="translate(43 38)"></rect> </clipPath> </defs> </svg> 