<?xml version="1.0" encoding="UTF-8"?> <svg xmlns="http://www.w3.org/2000/svg" width="38" height="76" viewBox="0 0 38 76" fill="none"> <path fill-rule="evenodd" clip-rule="evenodd" d="M37 1.01351C32.482 1.13566 28.0216 2.08469 23.8407 3.81646C19.3517 5.67588 15.2728 8.40128 11.837 11.8371C8.40128 15.2728 5.67588 19.3517 3.81645 23.8407C1.95703 28.3298 0.999998 33.1411 0.999998 38C0.999999 42.8589 1.95703 47.6702 3.81646 52.1593C5.67588 56.6483 8.40128 60.7272 11.837 64.163C15.2728 67.5987 19.3517 70.3241 23.8407 72.1835C28.0216 73.9153 32.482 74.8643 37 74.9865L37 1.01351ZM37 0.0131591C32.3506 0.13555 27.7602 1.11056 23.458 2.89258C18.8477 4.80225 14.6586 7.60132 11.1299 11.1299C7.60131 14.6586 4.80225 18.8477 2.89257 23.458C0.982896 28.0684 -1.87916e-06 33.0098 -1.66103e-06 38C-1.4429e-06 42.9902 0.982898 47.9316 2.89258 52.542C4.80226 57.1523 7.60132 61.3414 11.1299 64.8701C14.6586 68.3987 18.8477 71.1977 23.458 73.1074C27.7602 74.8894 32.3506 75.8645 37 75.9868C37.3331 75.9956 37.6664 76 38 76L38 -1.66103e-06C37.6664 -1.64645e-06 37.3331 0.0043929 37 0.0131591Z" fill="#517A9A" fill-opacity="0.07"></path> </svg> 