<?xml version="1.0" encoding="UTF-8"?> <svg xmlns="http://www.w3.org/2000/svg" width="110" height="110" viewBox="0 0 110 110" fill="none"> <g filter="url(#filter0_d)"> <circle cx="59" cy="56" r="38" fill="white"></circle> </g> <path fill-rule="evenodd" clip-rule="evenodd" d="M47.7342 74.9349L44.2839 72.9343L44.2184 72.8904L44.1529 72.8244L44.1092 72.7585L44.0655 72.6925L44.0437 72.6046L44.0218 72.5166L44 72.4067V72.2968V44.0691V44.0031L44.0218 43.9152L44.0655 43.8492L44.0873 43.7613L44.1529 43.6953L44.1965 43.6294L44.262 43.5634L44.3276 43.5194L44.3931 43.4755L44.4804 43.4315L44.5678 43.3875L44.6333 43.3436L44.7206 43.2996L44.7861 43.2337L44.8735 43.1897L44.9608 43.1457L45.0264 43.1017L45.1137 43.0578L45.1792 43.0138L45.2666 42.9698L45.3539 42.9259L45.4194 42.8819L45.5068 42.8379L45.5723 42.794L45.6378 42.75H45.7033H45.7688L45.8125 42.772L49.2628 44.7725L49.1973 44.7506H49.1536H49.0881L49.0226 44.7945L48.9571 44.8385L48.8697 44.8825L48.7824 44.9264L48.7169 44.9704L48.6295 45.0144L48.564 45.0583L48.4767 45.1023L48.3893 45.1463L48.3238 45.1902L48.2364 45.2562L48.1709 45.3002L48.0836 45.3441L47.9962 45.3881L47.9307 45.4321L47.8434 45.476L47.7779 45.52L47.7123 45.564L47.6468 45.6299L47.5813 45.6959L47.5377 45.7618L47.494 45.8498L47.4721 45.9157L47.4503 46.0037V46.0916V69.197L69.2221 56.5341L69.2876 56.4901H69.3532H69.4187L69.4623 56.5121L72.9126 58.5127L72.8471 58.4907H72.8035L72.738 58.5127L72.6724 58.5347L49.3502 72.0989L47.4503 70.9777V74.2973V74.4073L47.4721 74.5172L47.494 74.6051L47.5158 74.6931L47.5595 74.759L47.6032 74.825L47.6687 74.8909L47.7342 74.9349Z" fill="#2D65AE"></path> <path fill-rule="evenodd" clip-rule="evenodd" d="M48.3672 74.8674C48.2676 74.9253 48.1546 74.9557 48.0396 74.9557C47.9246 74.9557 47.8116 74.9253 47.7121 74.8674C47.6137 74.7952 47.5357 74.6984 47.4859 74.5866C47.4361 74.4748 47.4162 74.3518 47.4282 74.2298V46.09C47.4315 45.9774 47.4609 45.8671 47.514 45.7679C47.567 45.6687 47.6423 45.5833 47.7339 45.5184L49.0223 44.793C49.197 44.793 49.3499 44.793 49.3499 44.9688V72.0974L72.6721 58.5331C72.8468 58.4232 72.9997 58.5331 72.9997 58.709V60.1819C72.9906 60.2957 72.9565 60.406 72.8999 60.5049C72.8432 60.6037 72.7654 60.6887 72.6721 60.7535L48.3672 74.8674Z" fill="#4A7BB9"></path> <path fill-rule="evenodd" clip-rule="evenodd" d="M49.3501 49.739V49.1014L64.8328 40.0879L65.2259 40.5056L49.3501 49.739Z" fill="#C8D7EA"></path> <path fill-rule="evenodd" clip-rule="evenodd" d="M65.2259 61.0631L49.3501 70.2964V49.7412L65.2259 40.5078V61.0631Z" fill="#E8EEF6"></path> <path fill-rule="evenodd" clip-rule="evenodd" d="M51.3808 66.5581L50.1143 65.8106V65.0412V64.9092L54.7656 54.6206V54.5107L60.8146 50.4876L62.9983 44.6178L64.2649 45.3433L62.0811 51.2351L57.1022 54.159L51.2935 65.217V65.3489V65.4589V66.2503L51.3808 66.5581ZM66.8417 47.9594L65.5751 47.2339H65.4659V47.124V46.9701V46.6843V44.9256L66.7325 45.6511V47.4098V47.6077V47.7616V47.8935H66.8417V47.9594ZM61.8409 47.3658L61.4915 46.7063V45.695V45.5851L61.9501 44.7937L62.1903 44.5519L62.4087 44.288L62.6271 44.0242L62.8454 43.7824L63.0638 43.5186L63.304 43.2548L63.5224 43.013L63.6534 42.5953L63.8718 42.3315L64.0902 42.0896L64.3304 41.8258L64.5487 41.562L64.7671 41.3202L64.9855 41.0564L65.2257 40.7926L65.4441 40.5287L65.8372 40.3968L66.0555 40.133L66.2739 39.8692L66.5141 39.6274L66.7325 39.3636L66.9509 39.0998L67.1692 38.8579L67.4094 38.5941L67.6278 38.3303L67.8462 38.0885L68.0209 37.7587L68.2393 37.4949L68.4795 37.2531L68.6978 36.9893L68.9162 36.7255L67.606 36L67.3876 36.2638L67.1692 36.5056L66.9509 36.7694L66.7106 37.0333L66.4923 37.2751L66.2739 37.5389L66.0555 37.8027L65.8372 38.0445L65.5969 38.3083L65.3786 38.5722L65.1602 38.814L64.9418 39.0778L64.7234 39.3416L64.4832 39.6054L64.2649 39.8472L64.0465 40.111L63.8281 40.3968L63.6534 40.6167L63.435 40.8805L63.2167 41.1443L62.9983 41.3861L62.7799 41.6499L62.5397 41.9138L62.3213 42.1556L62.103 42.4194L61.8191 42.5953L61.6007 42.8371L61.4697 43.1888L61.2513 43.4526L61.0329 43.6945L60.8146 43.9583L60.5743 44.2221V44.332V44.4419V44.5519V45.3653L60.9456 46.0248L61.8409 47.3658Z" fill="#5B87C0"></path> <path fill-rule="evenodd" clip-rule="evenodd" d="M51.2938 65.2162L56.0325 55.3452C56.1463 55.0872 56.3012 54.8496 56.4911 54.6417C56.666 54.4467 56.8728 54.2831 57.1025 54.1581L62.1251 51.2342L64.3088 45.3424L62.8676 46.9912C62.4308 47.4969 61.9067 47.5848 61.6883 47.2111L61.3389 46.5516C61.2512 46.2736 61.2415 45.9766 61.3109 45.6934C61.3802 45.4102 61.526 45.1518 61.732 44.9467L68.8728 36.7246C68.8728 39.7584 69.0694 42.7703 69.1567 45.8041C69.1441 46.1128 69.0607 46.4144 68.9129 46.6852C68.7652 46.956 68.5571 47.1887 68.3051 47.365L67.4752 47.8706C66.9948 48.1784 66.5799 47.8706 66.5581 47.4089V45.6502L63.8939 52.4873C63.7828 52.7553 63.6359 53.0068 63.4572 53.2348C63.2796 53.4599 63.0655 53.6531 62.8239 53.8063L57.6921 56.8182L53.3246 65.8757C53.0189 66.4912 52.473 66.9089 52.0799 66.777L51.4248 66.5792C51.0536 66.4473 50.988 65.8537 51.2938 65.2162Z" fill="#7096C8"></path> <defs> <filter id="filter0_d" x="0" y="0" width="110" height="110" filterUnits="userSpaceOnUse" color-interpolation-filters="sRGB"> <feFlood flood-opacity="0" result="BackgroundImageFix"></feFlood> <feColorMatrix in="SourceAlpha" type="matrix" values="0 0 0 0 0 0 0 0 0 0 0 0 0 0 0 0 0 0 127 0"></feColorMatrix> <feOffset dx="-4" dy="-1"></feOffset> <feGaussianBlur stdDeviation="8.5"></feGaussianBlur> <feColorMatrix type="matrix" values="0 0 0 0 1 0 0 0 0 1 0 0 0 0 1 0 0 0 0.78 0"></feColorMatrix> <feBlend mode="normal" in2="BackgroundImageFix" result="effect1_dropShadow"></feBlend> <feBlend mode="normal" in="SourceGraphic" in2="effect1_dropShadow" result="shape"></feBlend> </filter> </defs> </svg> 