<?xml version="1.0" encoding="UTF-8"?> <svg xmlns="http://www.w3.org/2000/svg" width="110" height="110" viewBox="0 0 110 110" fill="none"> <g filter="url(#filter0_d)"> <circle cx="59" cy="56" r="38" fill="white"></circle> </g> <g clip-path="url(#clip0)"> <path fill-rule="evenodd" clip-rule="evenodd" d="M49.5328 73.9997C47.3021 73.9997 44.0005 72.7036 44.0005 70.0221V55.4969C43.8261 54.5615 43.9738 53.5944 44.4196 52.7541C44.8654 51.9137 45.5828 51.2499 46.4544 50.8712L63.4305 41.0835L64.0774 40.7483L64.7021 40.3908L64.8359 40.2344H65.0144H65.1928H65.6613H65.7951H65.929L67.6244 42.469C67.8745 42.31 68.1647 42.2256 68.4609 42.2256C68.7572 42.2256 69.0473 42.31 69.2974 42.469L70.3013 43.05H70.1897H70.0336H69.6544H69.4759H69.2974H69.119L51.1836 53.6422L50.6928 53.9327H50.5813V54.0444V54.1562V54.2679V54.3796V55.1841V70.8266V71.2288V71.3852V71.5416V71.6981V71.8098L49.5328 73.9997Z" fill="#386DB2"></path> <path fill-rule="evenodd" clip-rule="evenodd" d="M69.1192 43.1844C70.1231 42.6034 71.0154 43.028 71.0154 44.19C71.0154 52.5029 71.0154 51.5196 71.0154 59.8325C70.9805 60.4594 70.7987 61.0693 70.4848 61.6128C70.1709 62.1563 69.7336 62.6182 69.2085 62.961L50.47 73.7542C49.4885 74.3353 48.6631 73.866 48.6631 72.7263V57.0839C48.7187 56.4325 48.9327 55.8047 49.2866 55.2554C49.6405 54.7061 50.1234 54.252 50.6931 53.933L69.1192 43.1844Z" fill="#4476B7"></path> <path fill-rule="evenodd" clip-rule="evenodd" d="M63.721 59.92L63.0295 59.5402L62.8956 59.4061L62.7841 59.272L62.6725 59.0709L62.5833 58.8698L62.5164 58.624L62.4495 58.3558L62.3825 58.0653L62.3379 57.7748L62.3156 57.4619L62.2933 57.1267L62.271 56.7915L62.2933 56.434L62.3156 56.0988L62.3379 55.7413L62.3825 55.3837L62.4495 55.0485L62.5164 54.691L62.5833 54.3558L62.6948 54.0429L62.7841 53.7301L62.9179 53.4396L63.0518 53.1714L63.1856 52.9256L63.3418 52.7022L63.5202 52.501L63.6987 52.3223L63.8995 52.1882L71.0156 48.0765V47.5848L71.0602 47.5625H71.1718L71.261 47.5848L71.7071 47.853L71.9525 47.9871L72.3987 48.2552L72.3095 48.2105H72.1979L72.0864 48.2552L64.5687 52.5904L64.3902 52.7245L64.1895 52.9033L64.0333 53.0821L63.8772 53.3055L63.721 53.5513L63.5872 53.8418L63.4756 54.1323L63.3641 54.4452L63.2748 54.758L63.1856 55.0932L63.1187 55.4284L63.0741 55.786L63.0295 56.1435L62.9848 56.4787L62.9625 56.8362V57.1938V57.529L62.9848 57.8642L63.0295 58.177L63.0741 58.4675L63.1187 58.758L63.1856 59.0262L63.2748 59.2497L63.3641 59.4731L63.4756 59.6519L63.5872 59.8083L63.721 59.92Z" fill="#B3C8E2"></path> <path fill-rule="evenodd" clip-rule="evenodd" d="M72.0858 55.5653L64.5681 60.0346C62.3373 61.2637 62.3373 53.9564 64.5681 52.705L72.0858 48.3698C73.2904 47.543 73.335 54.8502 72.0858 55.5653Z" fill="#8EACD3"></path> <path fill-rule="evenodd" clip-rule="evenodd" d="M65.0364 58.1112L64.5456 57.8207L64.3002 57.7089L64.0771 57.4184V57.0609V56.614V56.3682V56.1223V55.8765V55.6084V55.3626V55.1168L64.1887 54.871L64.3225 54.6251L64.4787 54.3793L64.6348 54.1559L64.791 53.9547L64.9695 53.7536L65.371 53.6419L65.5718 53.4631L65.7725 53.3067C65.9944 53.1186 66.263 52.9943 66.5498 52.9471C66.8365 52.8999 67.1307 52.9315 67.401 53.0385L67.8918 53.3291H67.6018H67.2448H66.8656L66.4641 53.5078L66.3079 53.6419H66.0625L65.8618 53.8654L65.6833 54.0441L65.5048 54.2453L65.3487 54.4464L65.1925 54.6698L65.0364 54.9156V55.1391L64.9025 55.3849V55.6531V55.8989V56.1447V56.4128V56.6587V56.9045V57.3514L65.0141 57.7089L64.791 58.1112H65.0364Z" fill="#C6D5E9"></path> <path fill-rule="evenodd" clip-rule="evenodd" d="M66.4647 53.3957C67.5801 52.77 68.4724 53.3957 68.4724 54.5577C68.4436 55.2671 68.2464 55.9594 67.8973 56.5773C67.5481 57.1952 67.0571 57.7208 66.4647 58.1107C65.3493 58.7588 64.457 58.1107 64.457 56.9487C64.4859 56.2393 64.683 55.547 65.0322 54.9291C65.3813 54.3112 65.8724 53.7856 66.4647 53.3957V53.3957Z" fill="#E8EEF6"></path> <path fill-rule="evenodd" clip-rule="evenodd" d="M47.9044 52.5935L47.4136 52.303C47.3455 52.2685 47.2854 52.2199 47.2375 52.1603C47.1896 52.1008 47.155 52.0316 47.136 51.9575C47.117 51.8835 47.114 51.8062 47.1273 51.7309C47.1405 51.6555 47.1697 51.5839 47.2129 51.5208L47.3244 51.4091L53.6375 41.4426V41.3309V41.2192V41.1074H55.1544H55.9798L57.006 41.6884H56.3144H56.2029V41.8002V41.9119V42.0236L47.9044 52.5935Z" fill="#B8CBE3"></path> <path fill-rule="evenodd" clip-rule="evenodd" d="M51.5181 50.1111L50.1128 52.6139L49.8451 52.7703C49.6461 52.8904 49.4246 52.9682 49.1944 52.999C48.9641 53.0297 48.73 53.0127 48.5066 52.9491L47.9043 52.5916L54.5966 42.0217C55.4443 40.7703 56.6712 40.234 57.3851 40.7033L59.6158 42.4687L51.5181 50.1111Z" fill="#B8CBE3"></path> <path fill-rule="evenodd" clip-rule="evenodd" d="M51.4287 50.268L53.4364 48.3015C53.4364 48.3015 53.4364 47.9887 53.4364 47.8099L55.8902 44.0334C55.8902 43.8546 56.2026 43.7652 56.3141 43.8322L56.5595 44.0334C56.5595 44.0334 56.5595 44.3462 56.5595 44.5473L55.2879 46.5138L58.121 43.7205L56.9164 42.782C56.6487 42.5808 56.1803 42.782 55.8679 43.2959L51.4287 50.268Z" fill="#7499CA"></path> <path fill-rule="evenodd" clip-rule="evenodd" d="M51.7188 51.6983L49.845 52.7709C49.646 52.891 49.4245 52.9688 49.1943 52.9996C48.964 53.0303 48.73 53.0134 48.5065 52.9497H48.4619L63.0065 38.7151L63.2073 38.5587L63.3858 38.4246L63.5865 38.2905H63.7873L64.0773 38.1117V38H64.5904H64.7465H64.8804L65.9958 38.648H65.8619H65.7058H65.4381H65.2819H65.0811H64.9027H64.7242L64.5235 39.0726L64.3227 39.2067L64.0773 39.3855L51.7188 51.6983Z" fill="#B8CBE3"></path> <path fill-rule="evenodd" clip-rule="evenodd" d="M67.6023 42.1565L67.7139 42.447L66.3085 43.2738L65.6392 41.419C65.5054 41.0615 65.0815 41.0615 64.7023 41.419L57.7646 48.1229L51.7192 51.6984L64.0777 39.3855C65.1039 38.447 66.1746 38.3799 66.5315 39.3855L67.3123 41.6202L67.6023 42.1565Z" fill="#B8CBE3"></path> <path fill-rule="evenodd" clip-rule="evenodd" d="M66.3082 43.2749L57.7197 48.2134L64.6574 41.5095C65.0366 41.1296 65.4605 41.1296 65.5943 41.5095L66.3082 43.2749Z" fill="#7499CA"></path> <path fill-rule="evenodd" clip-rule="evenodd" d="M61.4451 45.1942L64.4343 42.2892C64.5904 42.1328 64.7466 42.1328 64.8135 42.2892L64.9251 42.6467C64.9475 42.7473 64.9427 42.8521 64.9114 42.9503C64.88 43.0485 64.8231 43.1365 64.7466 43.2054L62.3151 45.5741L61.3781 46.0881V45.7529C61.3411 45.6617 61.3279 45.5626 61.3396 45.4649C61.3513 45.3672 61.3876 45.274 61.4451 45.1942V45.1942Z" fill="#B8CBE3"></path> <path fill-rule="evenodd" clip-rule="evenodd" d="M49.1091 55.6082L44.4245 52.9043C44.114 53.7319 43.9699 54.6129 44.0006 55.4965V70.0216C44.0006 72.7032 47.2576 73.9099 49.5329 73.9993L49.0868 73.7535V73.6417V73.4853V73.3289V73.1724V72.7702V57.1278V56.3009V56.0775V55.9657V55.854L49.1091 55.6082Z" fill="#2D65AE"></path> </g> <defs> <filter id="filter0_d" x="0" y="0" width="110" height="110" filterUnits="userSpaceOnUse" color-interpolation-filters="sRGB"> <feFlood flood-opacity="0" result="BackgroundImageFix"></feFlood> <feColorMatrix in="SourceAlpha" type="matrix" values="0 0 0 0 0 0 0 0 0 0 0 0 0 0 0 0 0 0 127 0"></feColorMatrix> <feOffset dx="-4" dy="-1"></feOffset> <feGaussianBlur stdDeviation="8.5"></feGaussianBlur> <feColorMatrix type="matrix" values="0 0 0 0 1 0 0 0 0 1 0 0 0 0 1 0 0 0 0.78 0"></feColorMatrix> <feBlend mode="normal" in2="BackgroundImageFix" result="effect1_dropShadow"></feBlend> <feBlend mode="normal" in="SourceGraphic" in2="effect1_dropShadow" result="shape"></feBlend> </filter> <clipPath id="clip0"> <rect width="29" height="36" fill="white" transform="translate(44 38)"></rect> </clipPath> </defs> </svg> 