<?xml version="1.0" encoding="UTF-8"?> <svg xmlns="http://www.w3.org/2000/svg" width="116" height="116" viewBox="0 0 116 116" fill="none"> <circle cx="58" cy="58" r="58" fill="#517A9A" fill-opacity="0.04"></circle> <mask id="path-2-inside-1" fill="white"> <path d="M100 58C100 48.5379 96.8049 39.353 90.9325 31.9337C85.0601 24.5144 76.8544 19.2955 67.6452 17.1225C58.436 14.9496 48.7629 15.9499 40.1933 19.9616C31.6237 23.9732 24.6598 30.761 20.43 39.2251L29.8225 43.9188C32.9948 37.5708 38.2178 32.4799 44.645 29.4712C51.0722 26.4625 58.327 25.7122 65.2339 27.3419C72.1408 28.9716 78.2951 32.8858 82.6994 38.4503C87.1037 44.0148 89.5 50.9034 89.5 58H100Z"></path> </mask> <path d="M100 58C100 48.5379 96.8049 39.353 90.9325 31.9337C85.0601 24.5144 76.8544 19.2955 67.6452 17.1225C58.436 14.9496 48.7629 15.9499 40.1933 19.9616C31.6237 23.9732 24.6598 30.761 20.43 39.2251L29.8225 43.9188C32.9948 37.5708 38.2178 32.4799 44.645 29.4712C51.0722 26.4625 58.327 25.7122 65.2339 27.3419C72.1408 28.9716 78.2951 32.8858 82.6994 38.4503C87.1037 44.0148 89.5 50.9034 89.5 58H100Z" stroke="#D5484C" stroke-width="20" mask="url(#path-2-inside-1)"></path> <g clip-path="url(#clip0)"> <path d="M49.3359 51.6724V49.7138C47.424 49.1654 46.0584 47.4418 46.0584 45.3657C46.0584 42.8586 48.0873 40.8609 50.5455 40.8609H64.4359C66.8941 40.8609 68.923 42.8978 68.923 45.3657C68.923 47.8727 66.8941 49.8705 64.4359 49.8705H58.9734V51.79H64.4359C67.9476 51.79 70.8349 48.9304 70.8349 45.3657C70.8349 41.8402 67.9476 38.9414 64.4359 38.9414H50.5455C47.0338 38.9414 44.1465 41.8402 44.1465 45.3657C44.1465 48.5386 46.3705 51.124 49.3359 51.6724Z" fill="white"></path> <path d="M64.436 48.0696C65.9013 48.0696 67.0892 46.877 67.0892 45.4059C67.0892 43.9348 65.9013 42.7422 64.436 42.7422C62.9706 42.7422 61.7827 43.9348 61.7827 45.4059C61.7827 46.877 62.9706 48.0696 64.436 48.0696Z" fill="white"></path> <path d="M71.1863 60.4071C71.1863 58.9578 70.0158 57.8218 68.5721 57.8218C67.6357 57.8218 66.8163 58.331 66.3871 59.0361V58.9578C66.3871 57.5084 65.2165 56.3332 63.7729 56.3332C62.8364 56.3332 62.017 56.8033 61.5878 57.5476V57.4692C61.5878 56.0198 60.4173 54.8447 58.9736 54.8447C58.0372 54.8447 57.2178 55.3147 56.7886 56.059V47.3627C56.7886 46.6576 56.5155 45.9917 56.0082 45.5216C55.501 45.0124 54.8767 44.7773 54.1744 44.7773C52.7307 44.7773 51.5992 45.9525 51.5992 47.4019V63.5409C51.5992 63.6976 51.5211 63.8151 51.3651 63.8935C51.209 63.9327 51.0919 63.9327 50.9749 63.8151L48.3217 61.1122C47.4242 60.2113 46.0196 60.0938 45.0051 60.7989C44.3808 61.2298 43.9906 61.8957 43.8736 62.6008C43.7565 63.3451 43.9906 64.0893 44.4589 64.6769L51.0139 72.6289C52.8868 74.9009 55.6181 76.1936 58.5444 76.1936H62.6413C64.9434 76.1936 67.0894 75.2927 68.6891 73.6866C70.2889 72.0413 71.1863 69.8869 71.1863 67.6149V60.4071Z" fill="white"></path> </g> <defs> <clipPath id="clip0"> <rect width="37" height="40" fill="white" transform="translate(40 38)"></rect> </clipPath> </defs> </svg> 