<?xml version="1.0" encoding="UTF-8"?> <svg xmlns="http://www.w3.org/2000/svg" width="120" height="120" viewBox="0 0 120 120" fill="none"> <circle cx="60" cy="61" r="58" fill="#517A9A" fill-opacity="0.04"></circle> <mask id="path-2-inside-1" fill="white"> <path d="M87.8256 91.4607C82.1049 96.5205 75.1128 99.9246 67.6016 101.307C60.0905 102.689 52.3446 101.997 45.1973 99.3055C38.0501 96.6137 31.7721 92.0241 27.0389 86.0304C22.3056 80.0368 19.2962 72.8659 18.3344 65.2894L28.7508 63.9672C29.4722 69.6496 31.7292 75.0277 35.2792 79.523C38.8291 84.0182 43.5376 87.4604 48.898 89.4792C54.2584 91.498 60.0679 92.017 65.7012 90.9803C71.3346 89.9436 76.5787 87.3905 80.8692 83.5956L87.8256 91.4607Z"></path> </mask> <path d="M87.8256 91.4607C82.1049 96.5205 75.1128 99.9246 67.6016 101.307C60.0905 102.689 52.3446 101.997 45.1973 99.3055C38.0501 96.6137 31.7721 92.0241 27.0389 86.0304C22.3056 80.0368 19.2962 72.8659 18.3344 65.2894L28.7508 63.9672C29.4722 69.6496 31.7292 75.0277 35.2792 79.523C38.8291 84.0182 43.5376 87.4604 48.898 89.4792C54.2584 91.498 60.0679 92.017 65.7012 90.9803C71.3346 89.9436 76.5787 87.3905 80.8692 83.5956L87.8256 91.4607Z" stroke="#D5484C" stroke-width="20" mask="url(#path-2-inside-1)"></path> <path d="M43 63.4618C43.0023 60.0423 44.285 56.7484 46.5938 54.2326C48.9027 51.7167 52.0694 50.1624 55.4667 49.8774V64.5985H70.1433C69.8261 68.0856 68.1841 71.3167 65.5573 73.623C62.9306 75.9294 59.5202 77.1342 56.0323 76.9881C52.5443 76.842 49.246 75.3562 46.82 72.8383C44.3941 70.3204 43.0263 66.9632 43 63.4618ZM77 58.7404C77 56.6733 76.5941 54.6265 75.8055 52.7168C75.0168 50.8071 73.8609 49.0719 72.4037 47.6103C70.9464 46.1486 69.2165 44.9892 67.3125 44.1982C65.4086 43.4071 63.3679 43 61.3071 43C60.8651 43 60.4307 43.0303 60 43.0644V60.0515H76.932C76.9698 59.6195 77 59.1837 77 58.7404Z" fill="white"></path> </svg> 