<?xml version="1.0" encoding="UTF-8"?> <svg xmlns="http://www.w3.org/2000/svg" width="116" height="116" viewBox="0 0 116 116" fill="none"> <circle cx="58" cy="58" r="58" fill="#517A9A" fill-opacity="0.04"></circle> <mask id="path-2-inside-1" fill="white"> <path d="M100 58C100 50.5394 98.0127 43.2134 94.2425 36.7755C90.4723 30.3376 85.0553 25.0201 78.5486 21.37C72.0418 17.7199 64.6802 15.8688 57.2209 16.0072C49.7615 16.1456 42.4737 18.2685 36.1068 22.1574C29.74 26.0464 24.5239 31.5612 20.9951 38.1345C17.4663 44.7078 15.7522 52.1025 16.0289 59.558C16.3057 67.0135 18.5633 74.2607 22.5697 80.5543C26.5762 86.8479 32.1867 91.9608 38.8244 95.367L43.6183 86.0253C38.64 83.4706 34.4321 79.6359 31.4273 74.9157C28.4225 70.1955 26.7292 64.7601 26.5217 59.1685C26.3141 53.5769 27.5997 48.0309 30.2463 43.1009C32.8929 38.1709 36.805 34.0348 41.5801 31.1181C46.3553 28.2014 51.8212 26.6092 57.4157 26.5054C63.0102 26.4016 68.5314 27.7899 73.4114 30.5275C78.2915 33.2651 82.3542 37.2532 85.1819 42.0816C88.0095 46.91 89.5 52.4045 89.5 58H100Z"></path> </mask> <path d="M100 58C100 50.5394 98.0127 43.2134 94.2425 36.7755C90.4723 30.3376 85.0553 25.0201 78.5486 21.37C72.0418 17.7199 64.6802 15.8688 57.2209 16.0072C49.7615 16.1456 42.4737 18.2685 36.1068 22.1574C29.74 26.0464 24.5239 31.5612 20.9951 38.1345C17.4663 44.7078 15.7522 52.1025 16.0289 59.558C16.3057 67.0135 18.5633 74.2607 22.5697 80.5543C26.5762 86.8479 32.1867 91.9608 38.8244 95.367L43.6183 86.0253C38.64 83.4706 34.4321 79.6359 31.4273 74.9157C28.4225 70.1955 26.7292 64.7601 26.5217 59.1685C26.3141 53.5769 27.5997 48.0309 30.2463 43.1009C32.8929 38.1709 36.805 34.0348 41.5801 31.1181C46.3553 28.2014 51.8212 26.6092 57.4157 26.5054C63.0102 26.4016 68.5314 27.7899 73.4114 30.5275C78.2915 33.2651 82.3542 37.2532 85.1819 42.0816C88.0095 46.91 89.5 52.4045 89.5 58H100Z" stroke="#D5484C" stroke-width="20" mask="url(#path-2-inside-1)"></path> <path d="M73.6399 48.6257C73.64 48.2674 73.5223 47.9185 73.3043 47.6309C73.0863 47.3433 72.7795 47.1322 72.4295 47.029L58.9587 43.0524C58.3333 42.868 57.6664 42.868 57.0411 43.0524L51.1659 44.7857V52.429L48.0651 52.999V45.699L43.5567 47.0324C43.2097 47.1378 42.9064 47.3493 42.691 47.6361C42.4756 47.9228 42.3596 48.2696 42.3599 48.6257V66.7024C42.3588 67.059 42.4746 67.4066 42.69 67.694C42.9054 67.9814 43.2092 68.1935 43.5567 68.299L57.0411 72.2757C57.6664 72.4601 58.3333 72.4601 58.9587 72.2757L72.4431 68.299C72.7906 68.1935 73.0943 67.9814 73.3098 67.694C73.5252 67.4066 73.6409 67.059 73.6399 66.7024V48.6257ZM70.2399 65.4657L59.6999 68.5757V46.7524L70.2399 49.8657V65.4657ZM61.3081 56.4924C61.2837 56.3826 61.2837 56.2689 61.3081 56.159C61.3317 56.0604 61.3796 55.9688 61.4475 55.8924C61.5105 55.821 61.5972 55.7738 61.6923 55.759L63.9771 55.4257L64.9257 52.8824C64.9423 52.8362 64.9651 52.7925 64.9937 52.7524C65.0182 52.719 65.048 52.6897 65.0821 52.6657C65.1118 52.6444 65.1452 52.6286 65.1807 52.619C65.2155 52.6126 65.2512 52.6126 65.2861 52.619C65.3229 52.6241 65.3586 52.6353 65.3915 52.6524C65.4277 52.6707 65.461 52.6943 65.4901 52.7224C65.523 52.7541 65.5516 52.79 65.5751 52.829C65.6021 52.8743 65.6237 52.9224 65.6397 52.9724L66.5169 55.5557L68.3495 56.0224C68.4219 56.0426 68.4846 56.0875 68.5263 56.149C68.5749 56.2182 68.6085 56.2965 68.6249 56.379C68.6411 56.4695 68.6411 56.562 68.6249 56.6524C68.6123 56.7416 68.5798 56.827 68.5297 56.9024L67.2343 58.7857L67.5471 61.4524C67.5596 61.5319 67.5596 61.6128 67.5471 61.6924C67.5331 61.7636 67.5079 61.8322 67.4723 61.8957C67.4414 61.9518 67.3999 62.0016 67.3499 62.0424C67.3074 62.078 67.2556 62.1011 67.2003 62.109H67.1799H67.1357H67.0915L67.0473 62.0857L65.2997 60.9557L63.3923 62.5057L63.3413 62.5424L63.2903 62.569L63.2393 62.589H63.1883C63.1251 62.5949 63.0615 62.5834 63.0047 62.5557C62.9449 62.5248 62.8936 62.4802 62.8551 62.4257C62.8094 62.3626 62.7771 62.2912 62.7599 62.2157C62.7439 62.1275 62.7439 62.0372 62.7599 61.949L63.1509 58.949L61.4509 56.8257C61.3729 56.7296 61.3234 56.6143 61.3081 56.4924Z" fill="white"></path> </svg> 