<?xml version="1.0" encoding="UTF-8"?> <svg xmlns="http://www.w3.org/2000/svg" width="105" height="38" viewBox="0 0 105 38" fill="none"> <path d="M11.5148 0.099009C17.8493 0.099009 23.0434 5.4455 23.0434 11.9942C23.0434 18.4864 17.8493 23.8046 11.5011 23.8046C5.18029 23.8046 0 18.4864 0 11.9942C0 5.4455 5.18029 0.099009 11.5148 0.099009ZM69.8486 0.141441L82.9711 13.2814V0.509189H87.4369V23.7905H87.2308L74.0808 10.6223V23.3944H69.6288V0.141441H69.8486ZM35.2541 0L45.862 15.0635L56.4562 0H56.7035V23.3661H52.2515V13.4369L45.8757 22.9842H45.8483L39.4588 13.4369V23.3661H35.0067V0H35.2541ZM104.814 0.565766V23.3661H100.362V0.565766H104.814ZM11.5011 4.72414C7.6399 4.72414 4.49325 7.9773 4.49325 11.9659C4.49325 15.9263 7.6399 19.1653 11.5011 19.1653C15.376 19.1653 18.5364 15.9263 18.5364 11.9659C18.5364 7.9773 15.376 4.72414 11.5011 4.72414Z" fill="#2B4362"></path> <path d="M22.0893 33.6721V29H0V33.6721H22.0893Z" fill="#D5484C"></path> </svg> 