<?xml version="1.0" encoding="UTF-8"?> <svg xmlns="http://www.w3.org/2000/svg" width="110" height="110" viewBox="0 0 110 110" fill="none"> <g filter="url(#filter0_d)"> <circle cx="59" cy="56" r="38" fill="white"></circle> </g> <path fill-rule="evenodd" clip-rule="evenodd" d="M60.0529 72.9998C56.9043 70.9645 53.9046 68.7163 51.0758 66.2716C49.6566 64.5797 48.9446 62.424 49.0835 60.2386C49.2888 56.5128 50.3893 52.887 52.2954 49.6563C54.2015 46.4256 56.8594 43.6812 60.0529 41.6462C66.0987 38.2148 70.9995 40.9958 70.9995 47.8362C70.9319 50.7007 70.2533 53.5196 69.0071 56.1119C66.7171 61.1581 62.7781 67.8639 60.0529 72.9998V72.9998ZM60.0529 44.8982C57.7006 46.3994 55.7428 48.4225 54.3382 50.8033C52.9336 53.1842 52.1219 55.8558 51.969 58.6014C51.969 63.6476 55.5873 65.6884 60.0529 63.0869C62.3903 61.5934 64.3372 59.5837 65.7372 57.2193C67.1372 54.855 67.9513 52.2019 68.114 49.4734C68.114 44.4272 64.5186 42.3863 60.0529 44.8982V44.8982Z" fill="#5985BF"></path> <path fill-rule="evenodd" clip-rule="evenodd" d="M60.0538 48.5982C58.6541 49.4937 57.4893 50.6993 56.6538 52.1176C55.8183 53.5358 55.3356 55.1268 55.2446 56.7618C55.2446 59.7671 57.3973 60.9781 60.0538 59.4755C61.4535 58.58 62.6183 57.3743 63.4537 55.9561C64.2892 54.5378 64.772 52.9468 64.863 51.3119C64.863 48.3066 62.7103 47.0955 60.0538 48.5982Z" fill="#5985BF"></path> <path fill-rule="evenodd" clip-rule="evenodd" d="M63.4426 48.2634L61.3586 47.0972L61.0151 46.9402L60.6487 46.8281L60.2594 46.7832H59.8243L59.3892 46.8505L58.9311 46.985L58.4502 47.1645L57.9693 47.4112L57.4655 47.7252L56.9846 48.084L56.5266 48.4653L56.0915 48.9138L55.6792 49.3848L55.267 49.8782L54.9006 50.394L54.5571 50.9323L54.2594 51.493L53.9617 52.0761L53.7327 52.6592L53.5266 53.2423L53.3663 53.8478L53.2518 54.431L53.1831 55.0141L53.1602 55.5748L53.1831 56.113L53.2518 56.6064L53.3663 57.0774L53.5266 57.4811L53.7327 57.8399L53.9617 58.1539L54.2594 58.423L54.5571 58.6249L56.6411 59.8135L56.3434 59.5893L56.0686 59.3201L55.8166 59.0286L55.6105 58.6697L55.4502 58.2436L55.3357 57.7951L55.267 57.3017L55.2441 56.7634L55.267 56.1803L55.3357 55.5972L55.4502 55.0141L55.6105 54.431L55.8166 53.8478L56.0686 53.2647L56.3434 52.6816L56.6411 52.1209L56.9846 51.5827L57.351 51.0444L57.7632 50.551L58.1754 50.08L58.6105 49.6539L59.0915 49.2726L59.5495 48.9138L60.0533 48.5998L60.5342 48.3531L61.0151 48.1737L61.4731 48.0391L61.9082 47.9719H62.3434L62.7327 48.0167L63.0991 48.1064L63.4426 48.2634Z" fill="#4879B9"></path> <path fill-rule="evenodd" clip-rule="evenodd" d="M60.0537 72.9999L57.9698 71.8336L57.4431 71.4299L56.8934 71.0487L56.3209 70.645L55.7255 70.2413L55.153 69.8376L54.5347 69.4115L53.9392 69.0078L53.3209 68.5817L52.7255 68.1555L52.1301 67.707L51.5576 67.2809L51.0079 66.8547L50.4583 66.4062L49.9316 65.9576L49.4507 65.5091L48.9927 65.0605L51.0766 66.2268L51.5347 66.6978L52.0156 67.1463L52.5423 67.5724L53.0919 68.021L53.6415 68.4695L54.2141 68.8956L54.8095 69.3218L55.4278 69.7479L56.0232 70.174L56.6415 70.6001L57.237 71.0038L57.8324 71.4299L58.4049 71.8336L58.9774 72.2149L59.527 72.6186L60.0537 72.9999Z" fill="#4274B6"></path> <path fill-rule="evenodd" clip-rule="evenodd" d="M51.0763 66.2269L48.9924 65.0607L48.7634 64.7916L48.5344 64.5L48.3282 64.2084L48.1221 63.8945L47.9618 63.5805L47.7786 63.2216L47.6412 62.8852L47.5038 62.504L47.3893 62.1227L47.2977 61.719L47.2061 61.3153L47.1374 60.8892L47.0687 60.4406L47.0229 59.9921L47 59.5435V59.0501L47.0229 58.3997L47.0687 57.7493L47.1374 57.0989L47.229 56.4261L47.3435 55.7533L47.4809 55.0805L47.6641 54.4077L47.8702 53.7348L48.0763 53.062L48.3282 52.3892L48.5802 51.7388L48.8779 51.066L49.1756 50.4156L49.4962 49.7652L49.8397 49.1148L50.2061 48.4644L50.5954 47.8588L50.9847 47.2309L51.3969 46.6253L51.8321 46.0422L52.2672 45.4591L52.7252 44.9208L53.2061 44.3826L53.687 43.8443L54.1908 43.3509L54.6947 42.8575L55.2214 42.409L55.7481 41.9604L56.2977 41.5567L56.8473 41.153L57.3969 40.7942L57.9695 40.4578L58.5191 40.1662L59.0916 39.8971L59.6183 39.6728L60.1679 39.471L60.6947 39.314L61.2214 39.1794L61.7252 39.0897L62.229 39.0224L62.7099 39H63.1908L63.6489 39.0449L64.084 39.1121L64.5191 39.2243L64.9313 39.3588L65.3206 39.5158L65.7099 39.7177L67.7939 40.8839L67.4275 40.7045L67.0153 40.5251L66.6031 40.3905L66.1679 40.3008L65.7328 40.2335L65.2748 40.1887H64.7939L64.313 40.2111L63.8092 40.2559L63.3053 40.3681L62.7786 40.4802L62.2519 40.6372L61.7252 40.8391L61.1756 41.0858L60.6031 41.3325L60.0534 41.6464L59.4809 41.9828L58.9313 42.3417L58.3817 42.723L57.8321 43.1491L57.3053 43.5752L56.8015 44.0462L56.2748 44.5172L55.771 45.033L55.2901 45.5488L54.8321 46.0871L54.374 46.6478L53.916 47.2309L53.4809 47.814L53.0687 48.4195L52.6794 49.0251L52.2901 49.653L51.9237 50.3034L51.5802 50.9314L51.2595 51.5818L50.9618 52.2546L50.6641 52.905L50.4122 53.5778L50.1832 54.2507L49.9542 54.9235L49.7481 55.5963L49.5878 56.2691L49.4275 56.942L49.313 57.6148L49.2214 58.2876L49.1527 58.938L49.1069 59.5884L49.084 60.2388L49.1069 60.7098L49.1298 61.1807L49.1527 61.6293L49.2214 62.0778L49.2901 62.504L49.3817 62.9077L49.4733 63.3113L49.6107 63.6926L49.7252 64.0515L49.8855 64.4103L50.0458 64.7467L50.229 65.0831L50.4122 65.3971L50.6183 65.6887L50.8473 65.9802L51.0763 66.2269Z" fill="#4879B9"></path> <path fill-rule="evenodd" clip-rule="evenodd" d="M53.3892 62.9756C53.6621 63.2551 53.9791 63.4898 54.3281 63.6708L54.9006 63.9399L55.5418 64.1194H56.206H56.9159L57.6487 64.0072L58.4502 63.8951L59.2289 63.6708L60.0533 63.2671L60.4655 63.0204L60.8777 62.7513L61.267 62.4597L61.6792 62.1458L62.0685 61.8318L62.4579 61.4281L62.8243 61.0692L63.1907 60.688L63.5571 60.3067L63.9006 59.9254L64.2441 59.4993L64.5647 59.0732L64.8853 58.6471L65.1831 58.1985L65.4808 57.75L65.7556 57.279L66.0304 56.8304L66.2823 56.337L66.5113 55.8661L66.7403 55.3727L66.9464 54.9017L67.1525 54.4083L67.3357 53.9149L67.6105 53.3766V52.8832L67.7708 52.4571V51.9637V51.4703V50.9769V50.5059V48.5547L67.6334 47.7249L67.4502 46.9624L67.6105 46.2671L67.1525 45.7289L66.7403 45.213L66.2823 44.7645L65.7556 44.4281C65.4044 44.2172 65.016 44.0727 64.6105 44.002L65.0227 44.5402L65.3205 45.1009L65.5953 45.7737L65.8014 46.5363V47.3885V48.2856V48.779V49.25V49.7434V50.2144V50.7078V51.2236L65.6869 51.717L65.3205 52.2104V52.7038L65.1602 53.1972L64.954 53.6906L64.7479 54.184L64.4273 54.6998L64.1983 55.1932L63.9464 55.6642L63.6716 56.1352L63.3968 56.5837L63.0304 56.9426L62.7327 57.3687L62.4121 57.8173L62.0685 58.2434L61.7479 58.6471L61.4502 59.1853L61.1067 59.5666L60.7403 59.8582L60.351 60.217L59.9846 60.5534L59.5953 60.8898L59.1831 61.1814L58.7937 61.4281L58.4502 61.7421L58.038 61.9888L57.2136 62.4149L56.4121 62.7289L55.6334 62.9307L54.8777 63.0428H54.1907H53.5037L53.3892 62.9756Z" fill="#3C70B4"></path> <path fill-rule="evenodd" clip-rule="evenodd" d="M64.0838 59.6555L61.9998 58.4668L61.8166 58.7135L61.4502 59.1172L61.1067 59.4985L60.7402 59.8573L60.3509 60.2161L59.9845 60.5525L59.5952 60.889L59.183 61.1805L58.7937 61.4721L58.3815 61.7412L57.9692 61.9879L57.1219 62.414L56.3433 62.728L55.5647 62.9299L54.8089 63.042H54.5112L56.6181 64.2307H56.9158L57.6486 64.1185L58.4273 63.9167L59.2288 63.5803L60.0532 63.1766L60.4654 62.9299L60.8776 62.6607L61.2899 62.3692L61.6792 62.0552L62.0685 61.7412L62.4578 61.4048L62.8242 61.046L63.1906 60.6647L63.557 60.2834L63.9005 59.8797L64.0838 59.6555Z" fill="#2D65AE"></path> <path fill-rule="evenodd" clip-rule="evenodd" d="M49.542 56.4709L47.458 55.3047L47.3435 55.7532L47.229 56.4261L47.1374 57.0989L47.0687 57.7493L47.0229 58.3997L47 59.0501V59.5435L47.0229 59.992L47.0687 60.4406L47.1374 60.8891L47.2061 61.3152L47.2977 61.7189L47.3893 62.1226L47.5038 62.5039L47.6412 62.8852L47.7786 63.2216L47.9618 63.5804L48.1221 63.8944L48.3282 64.2084L48.5344 64.4999L48.7634 64.7915L48.9924 65.0606L51.0763 66.2269L50.8473 65.9801L50.6183 65.6886L50.4122 65.397L50.229 65.0831L50.0458 64.7466L49.8855 64.4102L49.7252 64.0514L49.6107 63.6925L49.4733 63.3113L49.3817 62.9076L49.2901 62.5039L49.2214 62.0778L49.1527 61.6292L49.1298 61.1807L49.1069 60.7097L49.084 60.2387L49.1069 59.5883L49.1527 58.9379L49.2214 58.2875L49.313 57.6147L49.4275 56.9419L49.542 56.4709Z" fill="#2D65AE"></path> <path fill-rule="evenodd" clip-rule="evenodd" d="M65.229 40.1887L63.1221 39H62.7099L62.229 39.0224L61.7252 39.0897L61.2214 39.1794L60.6947 39.314L60.1679 39.471L59.6183 39.6728L59.0916 39.8971L58.5191 40.1662L57.9695 40.4578L57.397 40.7942L56.8473 41.153L56.2977 41.5567L55.7481 41.9604L55.542 42.1398L57.626 43.3285L57.8321 43.1491L58.3817 42.723L58.9313 42.3417L59.4809 41.9828L60.0534 41.6464L60.6031 41.3325L61.1756 41.0858L61.7252 40.8391L62.2519 40.6372L62.7786 40.4802L63.3054 40.3681L63.8092 40.2559L64.313 40.2111L64.7939 40.1887H65.229Z" fill="#5381BD"></path> <path fill-rule="evenodd" clip-rule="evenodd" d="M59.8016 46.8047L59.3894 46.8495L58.9313 46.9841L58.4504 47.1635L57.9695 47.4102L57.4657 47.7242L56.9848 48.0831L56.5268 48.4643L56.0917 48.9129L56.0229 48.9577L58.1298 50.1464L58.1756 50.0791L58.6107 49.653L59.0917 49.2717L59.5497 48.9129L60.0535 48.5989L60.5344 48.3522L61.0153 48.1728L61.4733 48.0382L61.8855 47.9709L59.8016 46.8047Z" fill="#5381BD"></path> <path fill-rule="evenodd" clip-rule="evenodd" d="M56.5953 59.7671L56.3434 59.5877L56.0686 59.3186L55.8166 59.027L55.6105 58.6682L55.4502 58.242L55.3357 57.7935L55.267 57.3001L55.2441 56.7618L55.267 56.1787L55.3357 55.5956L55.4502 55.0125L55.6105 54.4294L55.8166 53.8463L55.9999 53.4201L53.9388 52.2539L53.893 52.2763L53.7327 52.6576L53.5266 53.2407L53.3663 53.8463L53.2518 54.4294L53.1831 55.0125L53.1602 55.5732L53.1831 56.1114L53.2518 56.6048L53.3663 57.0758L53.5266 57.4795L53.7327 57.8383L53.9617 58.1523L54.2594 58.399L54.5571 58.6233L56.5953 59.7671Z" fill="#2D65AE"></path> <defs> <filter id="filter0_d" x="0" y="0" width="110" height="110" filterUnits="userSpaceOnUse" color-interpolation-filters="sRGB"> <feFlood flood-opacity="0" result="BackgroundImageFix"></feFlood> <feColorMatrix in="SourceAlpha" type="matrix" values="0 0 0 0 0 0 0 0 0 0 0 0 0 0 0 0 0 0 127 0"></feColorMatrix> <feOffset dx="-4" dy="-1"></feOffset> <feGaussianBlur stdDeviation="8.5"></feGaussianBlur> <feColorMatrix type="matrix" values="0 0 0 0 1 0 0 0 0 1 0 0 0 0 1 0 0 0 0.78 0"></feColorMatrix> <feBlend mode="normal" in2="BackgroundImageFix" result="effect1_dropShadow"></feBlend> <feBlend mode="normal" in="SourceGraphic" in2="effect1_dropShadow" result="shape"></feBlend> </filter> </defs> </svg> 