<?xml version="1.0" encoding="UTF-8"?> <svg xmlns="http://www.w3.org/2000/svg" width="2638" height="513" viewBox="0 0 2638 513" fill="none"> <path d="M44.4 198.68L44.1575 197.71L43.4 197.899V198.68H44.4ZM61.68 194.36L61.9225 195.33L62.68 195.141V194.36H61.68ZM61.68 8.6H62.68V7.6H61.68V8.6ZM28.56 8.6V7.6H27.56V8.6H28.56ZM19.056 42.296L19.9102 42.8159L19.9139 42.8098L19.9175 42.8037L19.056 42.296ZM9.84 53.24V54.24H10.2021L10.4802 54.0082L9.84 53.24ZM1.2 53.24H0.2V54.24H1.2V53.24ZM1.2 1.39999V0.399986H0.2V1.39999H1.2ZM169.68 1.39999H170.68V0.399986H169.68V1.39999ZM169.68 53.24V54.24H170.68V53.24H169.68ZM161.04 53.24L160.42 54.0249L160.693 54.24H161.04V53.24ZM151.536 42.296L150.676 42.8058L150.682 42.8159L151.536 42.296ZM142.32 8.6H143.32V7.6H142.32V8.6ZM109.2 8.6V7.6H108.2V8.6H109.2ZM109.2 194.36H108.2V195.141L108.957 195.33L109.2 194.36ZM126.48 198.68H127.48V197.899L126.723 197.71L126.48 198.68ZM126.48 203V204H127.48V203H126.48ZM44.4 203H43.4V204H44.4V203ZM44.6425 199.65L61.9225 195.33L61.4375 193.39L44.1575 197.71L44.6425 199.65ZM62.68 194.36V8.6H60.68V194.36H62.68ZM61.68 7.6H28.56V9.6H61.68V7.6ZM27.56 8.6C27.56 20.1217 24.446 31.1797 18.1945 41.7883L19.9175 42.8037C26.338 31.9083 29.56 20.5023 29.56 8.6H27.56ZM18.2018 41.776C15.5626 46.1119 12.5598 49.6718 9.19982 52.4718L10.4802 54.0082C14.0323 51.0482 17.1734 47.3121 19.9102 42.8159L18.2018 41.776ZM9.84 52.24H1.2V54.24H9.84V52.24ZM2.2 53.24V1.39999H0.2V53.24H2.2ZM1.2 2.39999H169.68V0.399986H1.2V2.39999ZM168.68 1.39999V53.24H170.68V1.39999H168.68ZM169.68 52.24H161.04V54.24H169.68V52.24ZM161.66 52.4551C158.115 49.6566 155.023 46.1018 152.39 41.776L150.682 42.8159C153.425 47.3221 156.669 51.0634 160.42 54.0249L161.66 52.4551ZM152.396 41.7862C146.344 31.5731 143.32 20.5173 143.32 8.6H141.32C141.32 20.8747 144.44 32.2829 150.676 42.8058L152.396 41.7862ZM142.32 7.6H109.2V9.6H142.32V7.6ZM108.2 8.6V194.36H110.2V8.6H108.2ZM108.957 195.33L126.237 199.65L126.723 197.71L109.443 193.39L108.957 195.33ZM125.48 198.68V203H127.48V198.68H125.48ZM126.48 202H44.4V204H126.48V202ZM45.4 203V198.68H43.4V203H45.4ZM194.149 187.16L193.437 187.862L193.442 187.867L193.447 187.872L194.149 187.16ZM194.149 75.128L193.442 74.4209L193.442 74.4209L194.149 75.128ZM306.181 75.128L305.469 75.8301L305.474 75.8351L305.479 75.8401L306.181 75.128ZM306.181 187.16L305.474 186.453L305.474 186.453L306.181 187.16ZM269.605 185.432L268.71 184.985L268.707 184.991L268.704 184.998L269.605 185.432ZM269.605 76.568L268.704 77.0023L268.707 77.0088L268.71 77.0152L269.605 76.568ZM230.725 76.568L229.83 76.1208L229.827 76.1272L229.824 76.1337L230.725 76.568ZM230.725 185.432L229.824 185.866L229.827 185.873L229.83 185.879L230.725 185.432ZM250.309 206.32C226.696 206.32 208.253 199.661 194.851 186.448L193.447 187.872C207.309 201.539 226.306 208.32 250.309 208.32V206.32ZM194.861 186.458C181.648 173.056 174.989 154.613 174.989 131H172.989C172.989 155.003 179.77 174 193.437 187.862L194.861 186.458ZM174.989 131C174.989 107.387 181.648 89.0429 194.856 75.8351L193.442 74.4209C179.769 88.0931 172.989 106.997 172.989 131H174.989ZM194.856 75.8351C208.258 62.4327 226.7 55.68 250.309 55.68V53.68C226.302 53.68 207.303 60.5593 193.442 74.4209L194.856 75.8351ZM250.309 55.68C273.918 55.68 292.26 62.4329 305.469 75.8301L306.893 74.4259C293.221 60.5591 274.315 53.68 250.309 53.68V55.68ZM305.479 75.8401C318.876 89.0486 325.629 107.391 325.629 131H327.629C327.629 106.993 320.75 88.0874 306.883 74.4159L305.479 75.8401ZM325.629 131C325.629 154.609 318.876 173.05 305.474 186.453L306.888 187.867C320.749 174.006 327.629 155.007 327.629 131H325.629ZM305.474 186.453C292.266 199.661 273.922 206.32 250.309 206.32V208.32C274.311 208.32 293.216 201.539 306.888 187.867L305.474 186.453ZM250.309 202.56C258.562 202.56 265.257 196.752 270.506 185.866L268.704 184.998C263.584 195.616 257.415 200.56 250.309 200.56V202.56ZM270.499 185.879C275.987 174.903 278.669 156.554 278.669 131H276.669C276.669 156.518 273.974 174.457 268.71 184.985L270.499 185.879ZM278.669 131C278.669 105.446 275.987 87.0967 270.499 76.1208L268.71 77.0152C273.974 87.5433 276.669 105.482 276.669 131H278.669ZM270.506 76.1337C265.257 65.248 258.562 59.44 250.309 59.44V61.44C257.415 61.44 263.584 66.384 268.704 77.0023L270.506 76.1337ZM250.309 59.44C242.062 59.44 235.271 65.2399 229.83 76.1208L231.619 77.0152C236.931 66.3921 243.196 61.44 250.309 61.44V59.44ZM229.824 76.1337C224.534 87.1045 221.949 105.447 221.949 131H223.949C223.949 105.481 226.547 87.5355 231.626 77.0023L229.824 76.1337ZM221.949 131C221.949 156.553 224.534 174.895 229.824 185.866L231.626 184.998C226.547 174.465 223.949 156.519 223.949 131H221.949ZM229.83 185.879C235.271 196.76 242.062 202.56 250.309 202.56V200.56C243.196 200.56 236.931 195.608 231.619 184.985L229.83 185.879ZM349.77 198.68L349.527 197.71L348.77 197.899V198.68H349.77ZM367.05 194.36L367.293 195.33L368.05 195.141V194.36H367.05ZM367.05 67.64H368.05V66.8592L367.293 66.6698L367.05 67.64ZM349.77 63.32H348.77V64.1008L349.527 64.2901L349.77 63.32ZM349.77 59V58H348.77V59H349.77ZM464.394 64.184L464.088 65.136L464.093 65.1376L464.394 64.184ZM488.01 77.72L487.253 78.3729L487.258 78.3795L487.264 78.386L488.01 77.72ZM487.722 113.72L487.029 112.999L487.022 113.006L487.015 113.013L487.722 113.72ZM469.29 124.088L469.019 123.126L469.006 123.129L468.994 123.133L469.29 124.088ZM443.37 128.12L443.349 127.12L442.37 127.141V128.12H443.37ZM443.37 129.56H442.37V130.543L443.353 130.56L443.37 129.56ZM473.61 133.88L473.92 132.929L473.911 132.926L473.901 132.923L473.61 133.88ZM495.21 145.4L494.557 146.157L494.571 146.169L494.585 146.181L495.21 145.4ZM485.994 192.056L485.471 191.203L485.465 191.207L485.994 192.056ZM349.77 203H348.77V204H349.77V203ZM440.49 116.888L439.733 116.235L439.733 116.235L440.49 116.888ZM413.13 66.2V65.2H412.13V66.2H413.13ZM413.13 125.24H412.13V126.24H413.13V125.24ZM448.842 187.448L448.097 186.78L448.097 186.78L448.842 187.448ZM448.842 140.792L448.097 141.46L448.097 141.46L448.842 140.792ZM413.13 132.44V131.44H412.13V132.44H413.13ZM413.13 195.8H412.13V196.8H413.13V195.8ZM350.013 199.65L367.293 195.33L366.807 193.39L349.527 197.71L350.013 199.65ZM368.05 194.36V67.64H366.05V194.36H368.05ZM367.293 66.6698L350.013 62.3499L349.527 64.2901L366.807 68.6101L367.293 66.6698ZM350.77 63.32V59H348.77V63.32H350.77ZM349.77 60H423.21V58H349.77V60ZM423.21 60C439.855 60 453.47 61.7231 464.088 65.136L464.7 63.232C453.814 59.7329 439.973 58 423.21 58V60ZM464.093 65.1376C474.951 68.5664 482.624 73.0036 487.253 78.3729L488.767 77.0671C483.796 71.3004 475.725 66.7136 464.695 63.2304L464.093 65.1376ZM487.264 78.386C491.93 83.6124 494.21 89.1433 494.21 95H496.21C496.21 88.5687 493.69 82.5796 488.756 77.054L487.264 78.386ZM494.21 95C494.21 102.441 491.802 108.409 487.029 112.999L488.415 114.441C493.626 109.431 496.21 102.919 496.21 95H494.21ZM487.015 113.013C482.353 117.675 476.366 121.053 469.019 123.126L469.561 125.05C477.19 122.899 483.491 119.365 488.429 114.427L487.015 113.013ZM468.994 123.133C461.027 125.599 452.48 126.93 443.349 127.12L443.391 129.12C452.692 128.926 461.425 127.569 469.586 125.043L468.994 123.133ZM442.37 128.12V129.56H444.37V128.12H442.37ZM443.353 130.56C454.608 130.751 464.593 132.181 473.319 134.837L473.901 132.923C464.963 130.203 454.788 128.753 443.387 128.56L443.353 130.56ZM473.3 134.831C482.038 137.68 489.112 141.463 494.557 146.157L495.863 144.643C490.172 139.737 482.846 135.84 473.92 132.929L473.3 134.831ZM494.585 146.181C500.09 150.585 502.85 156.528 502.85 164.12H504.85C504.85 155.968 501.85 149.431 495.835 144.619L494.585 146.181ZM502.85 164.12C502.85 175.016 497.159 184.04 485.471 191.203L486.517 192.909C498.637 185.48 504.85 175.88 504.85 164.12H502.85ZM485.465 191.207C474 198.349 455.229 202 428.97 202V204C455.319 204 474.564 200.355 486.523 192.905L485.465 191.207ZM428.97 202H349.77V204H428.97V202ZM350.77 203V198.68H348.77V203H350.77ZM423.21 126.24C430.25 126.24 436.278 123.306 441.247 117.541L439.733 116.235C435.102 121.606 429.61 124.24 423.21 124.24V126.24ZM441.247 117.541C446.237 111.753 448.69 104.207 448.69 95H446.69C446.69 103.841 444.343 110.887 439.733 116.235L441.247 117.541ZM448.69 95C448.69 86.3512 446.227 79.1881 441.236 73.598L439.744 74.93C444.353 80.0918 446.69 86.7528 446.69 95H448.69ZM441.236 73.598C436.262 68.0268 430.237 65.2 423.21 65.2V67.2C429.623 67.2 435.118 69.7491 439.744 74.93L441.236 73.598ZM423.21 65.2H413.13V67.2H423.21V65.2ZM412.13 66.2V125.24H414.13V66.2H412.13ZM413.13 126.24H423.21V124.24H413.13V126.24ZM428.97 196.8C437.477 196.8 444.384 193.919 449.587 188.116L448.097 186.78C443.316 192.113 436.975 194.8 428.97 194.8V196.8ZM449.587 188.116C454.792 182.31 457.33 174.266 457.33 164.12H455.33C455.33 173.941 452.876 181.45 448.097 186.78L449.587 188.116ZM457.33 164.12C457.33 153.973 454.792 145.93 449.587 140.124L448.097 141.46C452.876 146.79 455.33 154.298 455.33 164.12H457.33ZM449.587 140.124C444.384 134.321 437.477 131.44 428.97 131.44V133.44C436.975 133.44 443.316 136.127 448.097 141.46L449.587 140.124ZM428.97 131.44H413.13V133.44H428.97V131.44ZM412.13 132.44V195.8H414.13V132.44H412.13ZM413.13 196.8H428.97V194.8H413.13V196.8ZM540.849 196.376L540.228 197.16L540.228 197.16L540.849 196.376ZM531.921 146.264L532.834 146.672L532.844 146.65L532.853 146.626L531.921 146.264ZM537.105 136.76L536.868 135.788L536.514 135.875L536.299 136.169L537.105 136.76ZM562.737 131.576L562.573 130.59L562.573 130.59L562.737 131.576ZM617.745 125.24L617.793 126.239L618.745 126.193V125.24H617.745ZM609.969 72.536L610.81 71.9952L610.81 71.9952L609.969 72.536ZM575.697 61.88L575.381 60.9313L575.371 60.9347L575.361 60.9383L575.697 61.88ZM571.665 63.32L571.329 62.3783L570.665 62.6153V63.32H571.665ZM571.665 106.52L571.89 107.494L572.665 107.316V106.52H571.665ZM567.921 107.384L568.045 108.376L568.096 108.37L568.146 108.358L567.921 107.384ZM544.305 102.2L543.581 102.89L543.598 102.907L543.615 102.924L544.305 102.2ZM551.793 63.896L551.23 63.0694L551.222 63.0751L551.793 63.896ZM630.417 62.744L629.97 63.6384L629.979 63.6432L629.989 63.6477L630.417 62.744ZM655.185 84.632L654.324 85.1413L654.331 85.1517L654.337 85.162L655.185 84.632ZM663.825 194.36H662.825V195.141L663.582 195.33L663.825 194.36ZM681.105 198.68H682.105V197.899L681.348 197.71L681.105 198.68ZM681.105 203V204H682.105V203H681.105ZM628.401 192.344L629.147 191.678L629.14 191.67L629.132 191.662L628.401 192.344ZM622.065 181.4L623.01 181.071L622.279 178.971L621.193 180.911L622.065 181.4ZM612.561 194.36L613.268 195.067L613.277 195.058L613.286 195.049L612.561 194.36ZM611.121 185.72L611.921 186.32L611.927 186.311L611.121 185.72ZM617.745 174.2L618.647 174.633L618.745 174.428V174.2H617.745ZM617.745 132.44H618.745V131.44H617.745V132.44ZM592.401 133.88L592.283 132.887L592.273 132.888L592.401 133.88ZM580.305 135.32L580.214 134.324L579.635 134.377L579.395 134.906L580.305 135.32ZM577.425 143.96L578.392 144.214L578.392 144.214L577.425 143.96ZM579.441 189.464L580.287 188.931L580.287 188.931L579.441 189.464ZM580.305 206.32C563.343 206.32 550.445 202.697 541.47 195.592L540.228 197.16C549.685 204.647 563.091 208.32 580.305 208.32V206.32ZM541.47 195.592C532.483 188.477 528.025 179.449 528.025 168.44H526.025C526.025 180.087 530.783 189.683 540.228 197.16L541.47 195.592ZM528.025 168.44C528.025 161.102 529.623 153.849 532.834 146.672L531.008 145.856C527.691 153.271 526.025 160.802 526.025 168.44H528.025ZM532.853 146.626C534.167 143.249 535.853 140.158 537.911 137.351L536.299 136.169C534.133 139.122 532.363 142.367 530.989 145.902L532.853 146.626ZM537.342 137.732C545.187 135.818 553.706 134.095 562.901 132.562L562.573 130.59C553.336 132.129 544.767 133.862 536.868 135.788L537.342 137.732ZM562.901 132.562C583.61 129.111 601.906 127.004 617.793 126.239L617.697 124.241C601.712 125.012 583.336 127.129 562.573 130.59L562.901 132.562ZM618.745 125.24V116.6H616.745V125.24H618.745ZM618.745 116.6C618.745 105.908 618.095 96.8462 616.786 89.4262C615.478 82.0164 613.503 76.1834 610.81 71.9952L609.128 73.0768C611.619 76.9526 613.532 82.4956 614.816 89.7738C616.099 97.0418 616.745 105.98 616.745 116.6H618.745ZM610.81 71.9952C605.417 63.6062 597.108 59.44 586.065 59.44V61.44C596.526 61.44 604.153 65.3378 609.128 73.0768L610.81 71.9952ZM586.065 59.44C581.959 59.44 578.39 59.9282 575.381 60.9313L576.013 62.8287C578.764 61.9117 582.107 61.44 586.065 61.44V59.44ZM575.361 60.9383L571.329 62.3783L572.001 64.2617L576.033 62.8217L575.361 60.9383ZM570.665 63.32V106.52H572.665V63.32H570.665ZM571.44 105.546L567.696 106.41L568.146 108.358L571.89 107.494L571.44 105.546ZM567.797 106.392C564.749 106.773 562.201 106.96 560.145 106.96V108.96C562.313 108.96 564.949 108.763 568.045 108.376L567.797 106.392ZM560.145 106.96C553.826 106.96 548.809 105.109 544.995 101.476L543.615 102.924C547.865 106.971 553.408 108.96 560.145 108.96V106.96ZM545.029 101.51C541.396 97.696 539.545 92.6786 539.545 86.36H537.545C537.545 93.0974 539.534 98.64 543.581 102.89L545.029 101.51ZM539.545 86.36C539.545 77.9288 543.734 70.7202 552.364 64.7169L551.222 63.0751C542.188 69.3598 537.545 77.1272 537.545 86.36H539.545ZM552.356 64.7226C561.14 58.7418 574.249 55.68 591.825 55.68V53.68C574.073 53.68 560.494 56.7622 551.23 63.0694L552.356 64.7226ZM591.825 55.68C606.683 55.68 619.387 58.3468 629.97 63.6384L630.864 61.8496C619.943 56.3892 606.919 53.68 591.825 53.68V55.68ZM629.989 63.6477C640.773 68.7559 648.869 75.9233 654.324 85.1413L656.046 84.1227C650.365 74.5247 641.949 67.1001 630.845 61.8403L629.989 63.6477ZM654.337 85.162C659.987 94.2015 662.825 104.67 662.825 116.6H664.825C664.825 104.338 661.903 93.4945 656.033 84.102L654.337 85.162ZM662.825 116.6V194.36H664.825V116.6H662.825ZM663.582 195.33L680.862 199.65L681.348 197.71L664.068 193.39L663.582 195.33ZM680.105 198.68V203H682.105V198.68H680.105ZM681.105 202H655.185V204H681.105V202ZM655.185 202C643.885 202 635.254 198.525 629.147 191.678L627.655 193.01C634.22 200.371 643.445 204 655.185 204V202ZM629.132 191.662C626.555 188.901 624.508 185.38 623.01 181.071L621.121 181.729C622.694 186.252 624.871 190.027 627.67 193.026L629.132 191.662ZM621.193 180.911C618.544 185.642 615.425 189.894 611.836 193.671L613.286 195.049C616.993 191.146 620.21 186.758 622.938 181.889L621.193 180.911ZM611.854 193.653C603.412 202.095 592.919 206.32 580.305 206.32V208.32C593.419 208.32 604.43 203.905 613.268 195.067L611.854 193.653ZM591.825 198.24C599.347 198.24 606.044 194.156 611.921 186.32L610.321 185.12C604.678 192.644 598.511 196.24 591.825 196.24V198.24ZM611.927 186.311C614.089 183.364 616.327 179.464 618.647 174.633L616.843 173.767C614.555 178.536 612.377 182.316 610.315 185.129L611.927 186.311ZM618.745 174.2V132.44H616.745V174.2H618.745ZM617.745 131.44C608.877 131.44 600.389 131.922 592.283 132.887L592.519 134.873C600.541 133.918 608.949 133.44 617.745 133.44V131.44ZM592.273 132.888C586.319 133.657 582.305 134.134 580.214 134.324L580.396 136.316C582.529 136.122 586.579 135.639 592.529 134.872L592.273 132.888ZM579.395 134.906C578.401 137.091 577.425 140.032 576.458 143.706L578.392 144.214C579.345 140.592 580.289 137.773 581.215 135.734L579.395 134.906ZM576.458 143.706C574.517 151.079 573.545 158.365 573.545 165.56H575.545C575.545 158.547 576.493 151.433 578.392 144.214L576.458 143.706ZM573.545 165.56C573.545 176.376 575.18 184.573 578.595 189.997L580.287 188.931C577.174 183.987 575.545 176.248 575.545 165.56H573.545ZM578.595 189.997C581.994 195.395 586.408 198.24 591.825 198.24V196.24C587.258 196.24 583.416 193.901 580.287 188.931L578.595 189.997ZM695.64 256.28L695.397 255.31L694.64 255.499V256.28H695.64ZM712.92 251.96L713.163 252.93L713.92 252.741V251.96H712.92ZM712.92 67.64H713.92V66.8592L713.163 66.6698L712.92 67.64ZM695.64 63.32H694.64V64.1008L695.397 64.2901L695.64 63.32ZM695.64 59V58H694.64V59H695.64ZM748.344 69.944L749.1 69.2891L749.095 69.2831L749.089 69.2772L748.344 69.944ZM754.68 80.6L753.754 80.9786L754.589 83.0183L755.574 81.0472L754.68 80.6ZM764.184 67.64L764.873 68.365L764.882 68.3562L764.891 68.3471L764.184 67.64ZM826.68 63.608L826.121 64.4373L826.127 64.4415L826.134 64.4456L826.68 63.608ZM847.704 89.528L846.792 89.9384L846.795 89.9441L847.704 89.528ZM838.2 187.736L837.445 187.08L837.445 187.081L838.2 187.736ZM767.928 201.56L768.414 200.686L768.383 200.669L768.351 200.654L767.928 201.56ZM759 195.8L759.631 195.024L758 193.699V195.8H759ZM759 251.96H758V252.741L758.757 252.93L759 251.96ZM776.28 256.28H777.28V255.499L776.523 255.31L776.28 256.28ZM776.28 260.6V261.6H777.28V260.6H776.28ZM695.64 260.6H694.64V261.6H695.64V260.6ZM799.608 184.28L798.706 183.847L798.703 183.855L798.7 183.862L799.608 184.28ZM800.184 79.448L799.259 79.8287L799.264 79.8398L799.269 79.8507L800.184 79.448ZM765.336 76.28L766.13 76.8875L766.136 76.88L765.336 76.28ZM759 87.8L758.069 87.4356L758 87.6113V87.8H759ZM759 187.16H758V187.574L758.293 187.867L759 187.16ZM765.336 192.92L764.736 193.72L764.741 193.724L765.336 192.92ZM695.883 257.25L713.163 252.93L712.677 250.99L695.397 255.31L695.883 257.25ZM713.92 251.96V67.64H711.92V251.96H713.92ZM713.163 66.6698L695.883 62.3499L695.397 64.2901L712.677 68.6101L713.163 66.6698ZM696.64 63.32V59H694.64V63.32H696.64ZM695.64 60H721.56V58H695.64V60ZM721.56 60C732.653 60 741.291 63.5609 747.599 70.6108L749.089 69.2772C742.341 61.735 733.123 58 721.56 58V60ZM747.588 70.5989C750.001 73.3823 752.06 76.8361 753.754 80.9786L755.606 80.2214C753.844 75.9159 751.679 72.2657 749.1 69.2891L747.588 70.5989ZM755.574 81.0472C758.021 76.1534 761.121 71.9288 764.873 68.365L763.495 66.915C759.567 70.6472 756.331 75.0626 753.786 80.1528L755.574 81.0472ZM764.891 68.3471C773.333 59.9054 783.826 55.68 796.44 55.68V53.68C783.326 53.68 772.315 58.0946 763.477 66.9329L764.891 68.3471ZM796.44 55.68C807.582 55.68 817.465 58.6038 826.121 64.4373L827.239 62.7787C818.231 56.7082 807.954 53.68 796.44 53.68V55.68ZM826.134 64.4456C834.776 70.082 841.671 78.5579 846.792 89.9384L848.616 89.1176C843.369 77.4581 836.248 68.654 827.226 62.7704L826.134 64.4456ZM846.795 89.9441C851.903 101.108 854.48 114.781 854.48 131H856.48C856.48 114.579 853.873 100.604 848.613 89.1119L846.795 89.9441ZM854.48 131C854.48 155.431 848.754 174.075 837.445 187.08L838.955 188.392C850.686 174.901 856.48 155.721 856.48 131H854.48ZM837.445 187.081C826.331 199.89 811.262 206.32 792.12 206.32V208.32C811.762 208.32 827.413 201.694 838.955 188.391L837.445 187.081ZM792.12 206.32C783.046 206.32 775.154 204.431 768.414 200.686L767.442 202.434C774.526 206.369 782.762 208.32 792.12 208.32V206.32ZM768.351 200.654C765.561 199.352 762.654 197.48 759.631 195.024L758.369 196.576C761.49 199.112 764.535 201.08 767.505 202.466L768.351 200.654ZM758 195.8V251.96H760V195.8H758ZM758.757 252.93L776.037 257.25L776.523 255.31L759.243 250.99L758.757 252.93ZM775.28 256.28V260.6H777.28V256.28H775.28ZM776.28 259.6H695.64V261.6H776.28V259.6ZM696.64 260.6V256.28H694.64V260.6H696.64ZM780.6 199.68C784.937 199.68 788.799 198.414 792.148 195.877C795.483 193.35 798.262 189.6 800.516 184.698L798.7 183.862C796.539 188.56 793.941 192.01 790.94 194.283C787.953 196.546 784.519 197.68 780.6 197.68V199.68ZM800.51 184.713C802.88 179.773 804.626 172.813 805.784 163.889C806.943 154.952 807.52 143.986 807.52 131H805.52C805.52 143.934 804.945 154.808 803.8 163.631C802.654 172.467 800.944 179.187 798.706 183.847L800.51 184.713ZM807.52 131C807.52 106.232 805.416 88.8566 801.099 79.0453L799.269 79.8507C803.4 89.2394 805.52 106.232 805.52 131H807.52ZM801.109 79.0672C797.044 69.1947 791.713 63.76 784.92 63.76V65.76C790.415 65.76 795.26 70.1173 799.259 79.8287L801.109 79.0672ZM784.92 63.76C777.215 63.76 770.42 67.8348 764.536 75.68L766.136 76.88C771.772 69.3652 778.033 65.76 784.92 65.76V63.76ZM764.542 75.6725C761.981 79.0212 759.826 82.9457 758.069 87.4356L759.931 88.1644C761.63 83.8223 763.699 80.0668 766.13 76.8874L764.542 75.6725ZM758 87.8V187.16H760V87.8H758ZM758.293 187.867C760.989 190.563 763.141 192.524 764.736 193.72L765.936 192.12C764.459 191.012 762.387 189.133 759.707 186.453L758.293 187.867ZM764.741 193.724C770.047 197.654 775.338 199.68 780.6 199.68V197.68C775.878 197.68 770.993 195.866 765.931 192.116L764.741 193.724ZM878.52 203H877.52V204H878.52V203ZM878.52 198.68L878.277 197.71L877.52 197.899V198.68H878.52ZM895.8 194.36L896.043 195.33L896.8 195.141V194.36H895.8ZM895.8 67.64H896.8V66.8592L896.043 66.6698L895.8 67.64ZM878.52 63.32H877.52V64.1008L878.277 64.2901L878.52 63.32ZM878.52 59V58H877.52V59H878.52ZM959.16 59H960.16V58H959.16V59ZM959.16 63.32L959.403 64.2901L960.16 64.1008V63.32H959.16ZM941.88 67.64L941.637 66.6698L940.88 66.8592V67.64H941.88ZM941.88 126.68H940.88V127.68H941.88V126.68ZM985.08 126.68V127.68H986.08V126.68H985.08ZM985.08 67.64H986.08V66.8592L985.323 66.6698L985.08 67.64ZM967.8 63.32H966.8V64.1008L967.557 64.2901L967.8 63.32ZM967.8 59V58H966.8V59H967.8ZM1048.44 59H1049.44V58H1048.44V59ZM1048.44 63.32L1048.68 64.2901L1049.44 64.1008V63.32H1048.44ZM1031.16 67.64L1030.92 66.6698L1030.16 66.8592V67.64H1031.16ZM1031.16 194.36H1030.16V195.141L1030.92 195.33L1031.16 194.36ZM1048.44 198.68H1049.44V197.899L1048.68 197.71L1048.44 198.68ZM1048.44 203V204H1049.44V203H1048.44ZM967.8 203H966.8V204H967.8V203ZM967.8 198.68L967.557 197.71L966.8 197.899V198.68H967.8ZM985.08 194.36L985.323 195.33L986.08 195.141V194.36H985.08ZM985.08 133.88H986.08V132.88H985.08V133.88ZM941.88 133.88V132.88H940.88V133.88H941.88ZM941.88 194.36H940.88V195.141L941.637 195.33L941.88 194.36ZM959.16 198.68H960.16V197.899L959.403 197.71L959.16 198.68ZM959.16 203V204H960.16V203H959.16ZM879.52 203V198.68H877.52V203H879.52ZM878.763 199.65L896.043 195.33L895.557 193.39L878.277 197.71L878.763 199.65ZM896.8 194.36V67.64H894.8V194.36H896.8ZM896.043 66.6698L878.763 62.3499L878.277 64.2901L895.557 68.6101L896.043 66.6698ZM879.52 63.32V59H877.52V63.32H879.52ZM878.52 60H959.16V58H878.52V60ZM958.16 59V63.32H960.16V59H958.16ZM958.917 62.3499L941.637 66.6698L942.123 68.6101L959.403 64.2901L958.917 62.3499ZM940.88 67.64V126.68H942.88V67.64H940.88ZM941.88 127.68H985.08V125.68H941.88V127.68ZM986.08 126.68V67.64H984.08V126.68H986.08ZM985.323 66.6698L968.043 62.3499L967.557 64.2901L984.837 68.6101L985.323 66.6698ZM968.8 63.32V59H966.8V63.32H968.8ZM967.8 60H1048.44V58H967.8V60ZM1047.44 59V63.32H1049.44V59H1047.44ZM1048.2 62.3499L1030.92 66.6698L1031.4 68.6101L1048.68 64.2901L1048.2 62.3499ZM1030.16 67.64V194.36H1032.16V67.64H1030.16ZM1030.92 195.33L1048.2 199.65L1048.68 197.71L1031.4 193.39L1030.92 195.33ZM1047.44 198.68V203H1049.44V198.68H1047.44ZM1048.44 202H967.8V204H1048.44V202ZM968.8 203V198.68H966.8V203H968.8ZM968.043 199.65L985.323 195.33L984.837 193.39L967.557 197.71L968.043 199.65ZM986.08 194.36V133.88H984.08V194.36H986.08ZM985.08 132.88H941.88V134.88H985.08V132.88ZM940.88 133.88V194.36H942.88V133.88H940.88ZM941.637 195.33L958.917 199.65L959.403 197.71L942.123 193.39L941.637 195.33ZM958.16 198.68V203H960.16V198.68H958.16ZM959.16 202H878.52V204H959.16V202ZM1088.16 196.376L1087.54 197.16L1087.54 197.16L1088.16 196.376ZM1079.23 146.264L1080.15 146.672L1080.16 146.65L1080.17 146.626L1079.23 146.264ZM1084.42 136.76L1084.18 135.788L1083.83 135.875L1083.61 136.169L1084.42 136.76ZM1110.05 131.576L1109.89 130.59L1109.89 130.59L1110.05 131.576ZM1165.06 125.24L1165.11 126.239L1166.06 126.193V125.24H1165.06ZM1157.28 72.536L1158.12 71.9952L1158.12 71.9952L1157.28 72.536ZM1123.01 61.88L1122.69 60.9313L1122.68 60.9347L1122.67 60.9383L1123.01 61.88ZM1118.98 63.32L1118.64 62.3783L1117.98 62.6153V63.32H1118.98ZM1118.98 106.52L1119.2 107.494L1119.98 107.316V106.52H1118.98ZM1115.23 107.384L1115.36 108.376L1115.41 108.37L1115.46 108.358L1115.23 107.384ZM1091.62 102.2L1090.89 102.89L1090.91 102.907L1090.93 102.924L1091.62 102.2ZM1099.11 63.896L1098.54 63.0694L1098.53 63.0751L1099.11 63.896ZM1177.73 62.744L1177.28 63.6384L1177.29 63.6432L1177.3 63.6477L1177.73 62.744ZM1202.5 84.632L1201.64 85.1413L1201.64 85.1517L1201.65 85.162L1202.5 84.632ZM1211.14 194.36H1210.14V195.141L1210.89 195.33L1211.14 194.36ZM1228.42 198.68H1229.42V197.899L1228.66 197.71L1228.42 198.68ZM1228.42 203V204H1229.42V203H1228.42ZM1175.71 192.344L1176.46 191.678L1176.45 191.67L1176.44 191.662L1175.71 192.344ZM1169.38 181.4L1170.32 181.071L1169.59 178.971L1168.51 180.911L1169.38 181.4ZM1159.87 194.36L1160.58 195.067L1160.59 195.058L1160.6 195.049L1159.87 194.36ZM1158.43 185.72L1159.23 186.32L1159.24 186.311L1158.43 185.72ZM1165.06 174.2L1165.96 174.633L1166.06 174.428V174.2H1165.06ZM1165.06 132.44H1166.06V131.44H1165.06V132.44ZM1139.71 133.88L1139.6 132.887L1139.59 132.888L1139.71 133.88ZM1127.62 135.32L1127.53 134.324L1126.95 134.377L1126.71 134.906L1127.62 135.32ZM1124.74 143.96L1125.7 144.214L1125.7 144.214L1124.74 143.96ZM1126.75 189.464L1127.6 188.931L1127.6 188.931L1126.75 189.464ZM1127.62 206.32C1110.66 206.32 1097.76 202.697 1088.78 195.592L1087.54 197.16C1097 204.647 1110.4 208.32 1127.62 208.32V206.32ZM1088.78 195.592C1079.8 188.477 1075.34 179.449 1075.34 168.44H1073.34C1073.34 180.087 1078.1 189.683 1087.54 197.16L1088.78 195.592ZM1075.34 168.44C1075.34 161.102 1076.94 153.849 1080.15 146.672L1078.32 145.856C1075 153.271 1073.34 160.802 1073.34 168.44H1075.34ZM1080.17 146.626C1081.48 143.249 1083.17 140.158 1085.22 137.351L1083.61 136.169C1081.45 139.122 1079.68 142.367 1078.3 145.902L1080.17 146.626ZM1084.65 137.732C1092.5 135.818 1101.02 134.095 1110.21 132.562L1109.89 130.59C1100.65 132.129 1092.08 133.862 1084.18 135.788L1084.65 137.732ZM1110.21 132.562C1130.92 129.111 1149.22 127.004 1165.11 126.239L1165.01 124.241C1149.02 125.012 1130.65 127.129 1109.89 130.59L1110.21 132.562ZM1166.06 125.24V116.6H1164.06V125.24H1166.06ZM1166.06 116.6C1166.06 105.908 1165.41 96.8462 1164.1 89.4262C1162.79 82.0164 1160.82 76.1834 1158.12 71.9952L1156.44 73.0768C1158.93 76.9526 1160.84 82.4956 1162.13 89.7738C1163.41 97.0418 1164.06 105.98 1164.06 116.6H1166.06ZM1158.12 71.9952C1152.73 63.6062 1144.42 59.44 1133.38 59.44V61.44C1143.84 61.44 1151.47 65.3378 1156.44 73.0768L1158.12 71.9952ZM1133.38 59.44C1129.27 59.44 1125.7 59.9282 1122.69 60.9313L1123.33 62.8287C1126.08 61.9117 1129.42 61.44 1133.38 61.44V59.44ZM1122.67 60.9383L1118.64 62.3783L1119.31 64.2617L1123.35 62.8217L1122.67 60.9383ZM1117.98 63.32V106.52H1119.98V63.32H1117.98ZM1118.75 105.546L1115.01 106.41L1115.46 108.358L1119.2 107.494L1118.75 105.546ZM1115.11 106.392C1112.06 106.773 1109.51 106.96 1107.46 106.96V108.96C1109.63 108.96 1112.26 108.763 1115.36 108.376L1115.11 106.392ZM1107.46 106.96C1101.14 106.96 1096.12 105.109 1092.31 101.476L1090.93 102.924C1095.18 106.971 1100.72 108.96 1107.46 108.96V106.96ZM1092.34 101.51C1088.71 97.696 1086.86 92.6786 1086.86 86.36H1084.86C1084.86 93.0974 1086.85 98.64 1090.89 102.89L1092.34 101.51ZM1086.86 86.36C1086.86 77.9288 1091.05 70.7202 1099.68 64.7169L1098.53 63.0751C1089.5 69.3598 1084.86 77.1272 1084.86 86.36H1086.86ZM1099.67 64.7226C1108.45 58.7418 1121.56 55.68 1139.14 55.68V53.68C1121.39 53.68 1107.81 56.7622 1098.54 63.0694L1099.67 64.7226ZM1139.14 55.68C1154 55.68 1166.7 58.3468 1177.28 63.6384L1178.18 61.8496C1167.26 56.3892 1154.23 53.68 1139.14 53.68V55.68ZM1177.3 63.6477C1188.09 68.7559 1196.18 75.9233 1201.64 85.1413L1203.36 84.1227C1197.68 74.5247 1189.26 67.1001 1178.16 61.8403L1177.3 63.6477ZM1201.65 85.162C1207.3 94.2015 1210.14 104.67 1210.14 116.6H1212.14C1212.14 104.338 1209.22 93.4945 1203.35 84.102L1201.65 85.162ZM1210.14 116.6V194.36H1212.14V116.6H1210.14ZM1210.89 195.33L1228.17 199.65L1228.66 197.71L1211.38 193.39L1210.89 195.33ZM1227.42 198.68V203H1229.42V198.68H1227.42ZM1228.42 202H1202.5V204H1228.42V202ZM1202.5 202C1191.2 202 1182.57 198.525 1176.46 191.678L1174.97 193.01C1181.53 200.371 1190.76 204 1202.5 204V202ZM1176.44 191.662C1173.87 188.901 1171.82 185.38 1170.32 181.071L1168.43 181.729C1170.01 186.252 1172.18 190.027 1174.98 193.026L1176.44 191.662ZM1168.51 180.911C1165.86 185.642 1162.74 189.894 1159.15 193.671L1160.6 195.049C1164.31 191.146 1167.52 186.758 1170.25 181.889L1168.51 180.911ZM1159.17 193.653C1150.72 202.095 1140.23 206.32 1127.62 206.32V208.32C1140.73 208.32 1151.74 203.905 1160.58 195.067L1159.17 193.653ZM1139.14 198.24C1146.66 198.24 1153.36 194.156 1159.23 186.32L1157.63 185.12C1151.99 192.644 1145.82 196.24 1139.14 196.24V198.24ZM1159.24 186.311C1161.4 183.364 1163.64 179.464 1165.96 174.633L1164.16 173.767C1161.87 178.536 1159.69 182.316 1157.63 185.129L1159.24 186.311ZM1166.06 174.2V132.44H1164.06V174.2H1166.06ZM1165.06 131.44C1156.19 131.44 1147.7 131.922 1139.6 132.887L1139.83 134.873C1147.85 133.918 1156.26 133.44 1165.06 133.44V131.44ZM1139.59 132.888C1133.63 133.657 1129.62 134.134 1127.53 134.324L1127.71 136.316C1129.84 136.122 1133.89 135.639 1139.84 134.872L1139.59 132.888ZM1126.71 134.906C1125.71 137.091 1124.74 140.032 1123.77 143.706L1125.7 144.214C1126.66 140.592 1127.6 137.773 1128.53 135.734L1126.71 134.906ZM1123.77 143.706C1121.83 151.079 1120.86 158.365 1120.86 165.56H1122.86C1122.86 158.547 1123.81 151.433 1125.7 144.214L1123.77 143.706ZM1120.86 165.56C1120.86 176.376 1122.49 184.573 1125.91 189.997L1127.6 188.931C1124.49 183.987 1122.86 176.248 1122.86 165.56H1120.86ZM1125.91 189.997C1129.31 195.395 1133.72 198.24 1139.14 198.24V196.24C1134.57 196.24 1130.73 193.901 1127.6 188.931L1125.91 189.997ZM1235.75 198.68L1235.47 197.722L1234.75 197.936V198.68H1235.75ZM1250.15 194.36L1250.44 195.318L1250.94 195.169L1251.1 194.676L1250.15 194.36ZM1261.67 159.8L1262.62 160.116L1261.67 159.8ZM1286.15 139.64L1285.88 138.678L1285.86 138.683L1285.85 138.687L1286.15 139.64ZM1304.87 136.76L1304.93 137.759L1305.87 137.707V136.76H1304.87ZM1304.87 135.32H1305.87V134.341L1304.89 134.32L1304.87 135.32ZM1278.95 130.712L1278.62 131.654L1278.63 131.659L1278.95 130.712ZM1270.6 70.232L1270.07 69.3855L1270.06 69.3895L1270.6 70.232ZM1404.23 59H1405.23V58H1404.23V59ZM1404.23 63.32L1404.48 64.2901L1405.23 64.1008V63.32H1404.23ZM1386.95 67.64L1386.71 66.6698L1385.95 66.8592V67.64H1386.95ZM1386.95 194.36H1385.95V195.141L1386.71 195.33L1386.95 194.36ZM1404.23 198.68H1405.23V197.899L1404.48 197.71L1404.23 198.68ZM1404.23 203V204H1405.23V203H1404.23ZM1323.59 203H1322.59V204H1323.59V203ZM1323.59 198.68L1323.35 197.71L1322.59 197.899V198.68H1323.59ZM1340.87 194.36L1341.12 195.33L1341.87 195.141V194.36H1340.87ZM1340.87 139.64H1341.87V138.64H1340.87V139.64ZM1317.83 139.64V138.64H1317.1L1316.88 139.334L1317.83 139.64ZM1304.87 179.96L1305.82 180.276L1305.82 180.266L1304.87 179.96ZM1292.49 196.376L1293.08 197.179L1293.09 197.176L1292.49 196.376ZM1235.75 203H1234.75V204H1235.75V203ZM1340.87 132.44V133.44H1341.87V132.44H1340.87ZM1340.87 66.2H1341.87V65.2H1340.87V66.2ZM1308.04 74.84L1308.79 75.5075L1308.79 75.5013L1308.8 75.4949L1308.04 74.84ZM1308.04 124.088L1307.28 124.743L1307.29 124.749L1307.3 124.756L1308.04 124.088ZM1236.04 199.638L1250.44 195.318L1249.87 193.402L1235.47 197.722L1236.04 199.638ZM1251.1 194.676L1262.62 160.116L1260.72 159.484L1249.2 194.044L1251.1 194.676ZM1262.62 160.116C1265.55 151.319 1273.37 144.764 1286.46 140.593L1285.85 138.687C1272.44 142.964 1263.94 149.849 1260.72 159.484L1262.62 160.116ZM1286.43 140.602C1291.71 139.091 1297.88 138.14 1304.93 137.759L1304.82 135.761C1297.66 136.148 1291.34 137.117 1285.88 138.678L1286.43 140.602ZM1305.87 136.76V135.32H1303.87V136.76H1305.87ZM1304.89 134.32C1296.17 134.13 1287.63 132.613 1279.28 129.765L1278.63 131.659C1287.17 134.571 1295.92 136.126 1304.85 136.32L1304.89 134.32ZM1279.29 129.77C1270.76 126.738 1264.45 122.671 1260.28 117.619C1256.13 112.583 1254.03 106.502 1254.03 99.32H1252.03C1252.03 106.922 1254.26 113.465 1258.74 118.893C1263.21 124.305 1269.86 128.542 1278.62 131.654L1279.29 129.77ZM1254.03 99.32C1254.03 87.819 1259.66 78.4148 1271.14 71.0745L1270.06 69.3895C1258.12 77.0252 1252.03 87.013 1252.03 99.32H1254.03ZM1271.13 71.0785C1282.79 63.7454 1301.66 60 1327.91 60V58C1301.56 58 1282.22 61.7426 1270.07 69.3855L1271.13 71.0785ZM1327.91 60H1404.23V58H1327.91V60ZM1403.23 59V63.32H1405.23V59H1403.23ZM1403.99 62.3499L1386.71 66.6698L1387.2 68.6101L1404.48 64.2901L1403.99 62.3499ZM1385.95 67.64V194.36H1387.95V67.64H1385.95ZM1386.71 195.33L1403.99 199.65L1404.48 197.71L1387.2 193.39L1386.71 195.33ZM1403.23 198.68V203H1405.23V198.68H1403.23ZM1404.23 202H1323.59V204H1404.23V202ZM1324.59 203V198.68H1322.59V203H1324.59ZM1323.84 199.65L1341.12 195.33L1340.63 193.39L1323.35 197.71L1323.84 199.65ZM1341.87 194.36V139.64H1339.87V194.36H1341.87ZM1340.87 138.64H1317.83V140.64H1340.87V138.64ZM1316.88 139.334L1303.92 179.654L1305.82 180.266L1318.78 139.946L1316.88 139.334ZM1303.92 179.644C1301.89 185.759 1297.89 191.071 1291.89 195.576L1293.09 197.176C1299.37 192.465 1303.64 186.833 1305.82 180.276L1303.92 179.644ZM1291.89 195.573C1286.14 199.838 1278.97 202 1270.31 202V204C1279.32 204 1286.93 201.746 1293.08 197.179L1291.89 195.573ZM1270.31 202H1235.75V204H1270.31V202ZM1236.75 203V198.68H1234.75V203H1236.75ZM1341.87 132.44V66.2H1339.87V132.44H1341.87ZM1340.87 65.2H1327.91V67.2H1340.87V65.2ZM1327.91 65.2C1319.39 65.2 1312.48 68.1861 1307.28 74.1851L1308.8 75.4949C1313.58 69.9739 1319.92 67.2 1327.91 67.2V65.2ZM1307.3 74.1724C1302.08 79.9902 1299.55 88.4283 1299.55 99.32H1301.55C1301.55 88.7077 1304.02 80.8258 1308.79 75.5075L1307.3 74.1724ZM1299.55 99.32C1299.55 110.215 1302.08 118.739 1307.28 124.743L1308.8 123.433C1304.02 117.917 1301.55 109.929 1301.55 99.32H1299.55ZM1307.3 124.756C1312.5 130.559 1319.41 133.44 1327.91 133.44V131.44C1319.91 131.44 1313.57 128.753 1308.79 123.42L1307.3 124.756ZM1327.91 133.44H1340.87V131.44H1327.91V133.44ZM5.52 454H4.52V455H5.52V454ZM5.52 449.68L5.27747 448.71L4.52 448.899V449.68H5.52ZM22.8 445.36L23.0425 446.33L23.8 446.141V445.36H22.8ZM22.8 318.64H23.8V317.859L23.0425 317.67L22.8 318.64ZM5.52 314.32H4.52V315.101L5.27747 315.29L5.52 314.32ZM5.52 310V309H4.52V310H5.52ZM175.44 310H176.44V309H175.44V310ZM175.44 314.32L175.683 315.29L176.44 315.101V314.32H175.44ZM158.16 318.64L157.917 317.67L157.16 317.859V318.64H158.16ZM158.16 445.36H157.16V446.141L157.917 446.33L158.16 445.36ZM175.44 449.68H176.44V448.899L175.683 448.71L175.44 449.68ZM175.44 454V455H176.44V454H175.44ZM94.8 454H93.8V455H94.8V454ZM94.8 449.68L94.5575 448.71L93.8 448.899V449.68H94.8ZM112.08 445.36L112.323 446.33L113.08 446.141V445.36H112.08ZM112.08 317.2H113.08V316.2H112.08V317.2ZM68.88 317.2V316.2H67.88V317.2H68.88ZM68.88 445.36H67.88V446.141L68.6375 446.33L68.88 445.36ZM86.16 449.68H87.16V448.899L86.4025 448.71L86.16 449.68ZM86.16 454V455H87.16V454H86.16ZM6.52 454V449.68H4.52V454H6.52ZM5.76254 450.65L23.0425 446.33L22.5575 444.39L5.27747 448.71L5.76254 450.65ZM23.8 445.36V318.64H21.8V445.36H23.8ZM23.0425 317.67L5.76254 313.35L5.27747 315.29L22.5575 319.61L23.0425 317.67ZM6.52 314.32V310H4.52V314.32H6.52ZM5.52 311H175.44V309H5.52V311ZM174.44 310V314.32H176.44V310H174.44ZM175.197 313.35L157.917 317.67L158.403 319.61L175.683 315.29L175.197 313.35ZM157.16 318.64V445.36H159.16V318.64H157.16ZM157.917 446.33L175.197 450.65L175.683 448.71L158.403 444.39L157.917 446.33ZM174.44 449.68V454H176.44V449.68H174.44ZM175.44 453H94.8V455H175.44V453ZM95.8 454V449.68H93.8V454H95.8ZM95.0425 450.65L112.323 446.33L111.837 444.39L94.5575 448.71L95.0425 450.65ZM113.08 445.36V317.2H111.08V445.36H113.08ZM112.08 316.2H68.88V318.2H112.08V316.2ZM67.88 317.2V445.36H69.88V317.2H67.88ZM68.6375 446.33L85.9175 450.65L86.4025 448.71L69.1225 444.39L68.6375 446.33ZM85.16 449.68V454H87.16V449.68H85.16ZM86.16 453H5.52V455H86.16V453ZM215.162 447.376L214.541 448.16L214.541 448.16L215.162 447.376ZM206.234 397.264L207.146 397.672L207.156 397.65L207.166 397.626L206.234 397.264ZM211.418 387.76L211.181 386.788L210.827 386.875L210.611 387.169L211.418 387.76ZM237.05 382.576L236.885 381.59L236.885 381.59L237.05 382.576ZM292.058 376.24L292.106 377.239L293.058 377.193V376.24H292.058ZM284.282 323.536L285.123 322.995L285.123 322.995L284.282 323.536ZM250.01 312.88L249.693 311.931L249.683 311.935L249.673 311.938L250.01 312.88ZM245.978 314.32L245.641 313.378L244.978 313.615V314.32H245.978ZM245.978 357.52L246.202 358.494L246.978 358.316V357.52H245.978ZM242.234 358.384L242.358 359.376L242.408 359.37L242.458 359.358L242.234 358.384ZM218.618 353.2L217.893 353.89L217.91 353.907L217.928 353.924L218.618 353.2ZM226.106 314.896L225.543 314.069L225.534 314.075L226.106 314.896ZM304.73 313.744L304.282 314.638L304.292 314.643L304.301 314.648L304.73 313.744ZM329.498 335.632L328.637 336.141L328.643 336.152L328.65 336.162L329.498 335.632ZM338.138 445.36H337.138V446.141L337.895 446.33L338.138 445.36ZM355.418 449.68H356.418V448.899L355.66 448.71L355.418 449.68ZM355.418 454V455H356.418V454H355.418ZM302.714 443.344L303.46 442.678L303.452 442.67L303.445 442.662L302.714 443.344ZM296.378 432.4L297.322 432.071L296.591 429.971L295.505 431.911L296.378 432.4ZM286.874 445.36L287.581 446.067L287.59 446.058L287.598 446.049L286.874 445.36ZM285.434 436.72L286.234 437.32L286.24 437.311L285.434 436.72ZM292.058 425.2L292.959 425.633L293.058 425.428V425.2H292.058ZM292.058 383.44H293.058V382.44H292.058V383.44ZM266.714 384.88L266.595 383.887L266.586 383.888L266.714 384.88ZM254.618 386.32L254.527 385.324L253.948 385.377L253.707 385.906L254.618 386.32ZM251.738 394.96L252.705 395.214L252.705 395.214L251.738 394.96ZM253.754 440.464L254.6 439.931L254.6 439.931L253.754 440.464ZM254.618 457.32C237.656 457.32 224.757 453.697 215.782 446.592L214.541 448.16C223.998 455.647 237.403 459.32 254.618 459.32V457.32ZM215.782 446.592C206.795 439.477 202.338 430.449 202.338 419.44H200.338C200.338 431.087 205.096 440.683 214.541 448.16L215.782 446.592ZM202.338 419.44C202.338 412.102 203.936 404.849 207.146 397.672L205.321 396.856C202.003 404.271 200.338 411.802 200.338 419.44H202.338ZM207.166 397.626C208.479 394.249 210.166 391.158 212.224 388.351L210.611 387.169C208.445 390.122 206.676 393.367 205.301 396.902L207.166 397.626ZM211.654 388.732C219.499 386.818 228.019 385.095 237.214 383.562L236.885 381.59C227.648 383.129 219.08 384.862 211.181 386.788L211.654 388.732ZM237.214 383.562C257.923 380.111 276.219 378.004 292.106 377.239L292.009 375.241C276.024 376.012 257.648 378.129 236.885 381.59L237.214 383.562ZM293.058 376.24V367.6H291.058V376.24H293.058ZM293.058 367.6C293.058 356.908 292.408 347.846 291.098 340.426C289.791 333.016 287.815 327.183 285.123 322.995L283.44 324.077C285.932 327.953 287.844 333.496 289.129 340.774C290.411 348.042 291.058 356.98 291.058 367.6H293.058ZM285.123 322.995C279.73 314.606 271.421 310.44 260.378 310.44V312.44C270.838 312.44 278.465 316.338 283.44 324.077L285.123 322.995ZM260.378 310.44C256.271 310.44 252.702 310.928 249.693 311.931L250.326 313.829C253.077 312.912 256.42 312.44 260.378 312.44V310.44ZM249.673 311.938L245.641 313.378L246.314 315.262L250.346 313.822L249.673 311.938ZM244.978 314.32V357.52H246.978V314.32H244.978ZM245.753 356.546L242.009 357.41L242.458 359.358L246.202 358.494L245.753 356.546ZM242.109 357.392C239.062 357.773 236.514 357.96 234.458 357.96V359.96C236.625 359.96 239.261 359.763 242.358 359.376L242.109 357.392ZM234.458 357.96C228.139 357.96 223.122 356.109 219.307 352.476L217.928 353.924C222.177 357.971 227.72 359.96 234.458 359.96V357.96ZM219.342 352.51C215.709 348.696 213.858 343.679 213.858 337.36H211.858C211.858 344.097 213.846 349.64 217.893 353.89L219.342 352.51ZM213.858 337.36C213.858 328.929 218.047 321.72 226.677 315.717L225.534 314.075C216.5 320.36 211.858 328.127 211.858 337.36H213.858ZM226.668 315.723C235.453 309.742 248.561 306.68 266.138 306.68V304.68C248.386 304.68 234.806 307.762 225.543 314.069L226.668 315.723ZM266.138 306.68C280.996 306.68 293.699 309.347 304.282 314.638L305.177 312.85C294.256 307.389 281.231 304.68 266.138 304.68V306.68ZM304.301 314.648C315.085 319.756 323.181 326.923 328.637 336.141L330.358 335.123C324.678 325.525 316.262 318.1 305.158 312.84L304.301 314.648ZM328.65 336.162C334.299 345.202 337.138 355.67 337.138 367.6H339.138C339.138 355.338 336.216 344.494 330.346 335.102L328.65 336.162ZM337.138 367.6V445.36H339.138V367.6H337.138ZM337.895 446.33L355.175 450.65L355.66 448.71L338.38 444.39L337.895 446.33ZM354.418 449.68V454H356.418V449.68H354.418ZM355.418 453H329.498V455H355.418V453ZM329.498 453C318.197 453 309.567 449.525 303.46 442.678L301.967 444.01C308.532 451.371 317.758 455 329.498 455V453ZM303.445 442.662C300.868 439.901 298.821 436.38 297.322 432.071L295.433 432.729C297.006 437.252 299.183 441.027 301.982 444.026L303.445 442.662ZM295.505 431.911C292.856 436.642 289.737 440.894 286.149 444.671L287.598 446.049C291.306 442.146 294.523 437.758 297.25 432.889L295.505 431.911ZM286.166 444.653C277.725 453.095 267.232 457.32 254.618 457.32V459.32C267.731 459.32 278.742 454.905 287.581 446.067L286.166 444.653ZM266.138 449.24C273.659 449.24 280.356 445.156 286.234 437.32L284.634 436.12C278.991 443.644 272.824 447.24 266.138 447.24V449.24ZM286.24 437.311C288.402 434.364 290.64 430.464 292.959 425.633L291.156 424.767C288.867 429.536 286.689 433.316 284.627 436.129L286.24 437.311ZM293.058 425.2V383.44H291.058V425.2H293.058ZM292.058 382.44C283.189 382.44 274.702 382.922 266.595 383.887L266.832 385.873C274.853 384.918 283.262 384.44 292.058 384.44V382.44ZM266.586 383.888C260.631 384.657 256.617 385.134 254.527 385.324L254.708 387.316C256.842 387.122 260.892 386.639 266.841 385.872L266.586 383.888ZM253.707 385.906C252.714 388.091 251.737 391.032 250.77 394.706L252.705 395.214C253.658 391.592 254.601 388.773 255.528 386.734L253.707 385.906ZM250.77 394.706C248.83 402.079 247.858 409.365 247.858 416.56H249.858C249.858 409.547 250.805 402.433 252.705 395.214L250.77 394.706ZM247.858 416.56C247.858 427.376 249.492 435.573 252.907 440.997L254.6 439.931C251.487 434.987 249.858 427.248 249.858 416.56H247.858ZM252.907 440.997C256.306 446.395 260.721 449.24 266.138 449.24V447.24C261.57 447.24 257.729 444.901 254.6 439.931L252.907 440.997ZM369.953 507.28L369.71 506.31L368.953 506.499V507.28H369.953ZM387.233 502.96L387.475 503.93L388.233 503.741V502.96H387.233ZM387.233 318.64H388.233V317.859L387.475 317.67L387.233 318.64ZM369.953 314.32H368.953V315.101L369.71 315.29L369.953 314.32ZM369.953 310V309H368.953V310H369.953ZM422.657 320.944L423.412 320.289L423.407 320.283L423.402 320.277L422.657 320.944ZM428.993 331.6L428.067 331.979L428.901 334.018L429.887 332.047L428.993 331.6ZM438.497 318.64L439.185 319.365L439.195 319.356L439.204 319.347L438.497 318.64ZM500.993 314.608L500.434 315.437L500.44 315.441L500.446 315.446L500.993 314.608ZM522.017 340.528L521.105 340.938L521.107 340.944L522.017 340.528ZM512.513 438.736L511.758 438.08L511.757 438.081L512.513 438.736ZM442.241 452.56L442.726 451.686L442.695 451.669L442.663 451.654L442.241 452.56ZM433.312 446.8L433.943 446.024L432.312 444.699V446.8H433.312ZM433.312 502.96H432.312V503.741L433.07 503.93L433.312 502.96ZM450.593 507.28H451.593V506.499L450.835 506.31L450.593 507.28ZM450.593 511.6V512.6H451.593V511.6H450.593ZM369.953 511.6H368.953V512.6H369.953V511.6ZM473.921 435.28L473.019 434.847L473.015 434.855L473.012 434.862L473.921 435.28ZM474.497 330.448L473.572 330.829L473.576 330.84L473.581 330.851L474.497 330.448ZM439.649 327.28L440.443 327.887L440.449 327.88L439.649 327.28ZM433.312 338.8L432.381 338.436L432.312 338.611V338.8H433.312ZM433.312 438.16H432.312V438.574L432.605 438.867L433.312 438.16ZM439.649 443.92L439.048 444.72L439.053 444.724L439.649 443.92ZM370.195 508.25L387.475 503.93L386.99 501.99L369.71 506.31L370.195 508.25ZM388.233 502.96V318.64H386.233V502.96H388.233ZM387.475 317.67L370.195 313.35L369.71 315.29L386.99 319.61L387.475 317.67ZM370.953 314.32V310H368.953V314.32H370.953ZM369.953 311H395.873V309H369.953V311ZM395.873 311C406.965 311 415.604 314.561 421.911 321.611L423.402 320.277C416.653 312.735 407.436 309 395.873 309V311ZM421.901 321.599C424.313 324.382 426.372 327.836 428.067 331.979L429.918 331.221C428.157 326.916 425.992 323.266 423.412 320.289L421.901 321.599ZM429.887 332.047C432.334 327.153 435.434 322.929 439.185 319.365L437.808 317.915C433.879 321.647 430.643 326.063 428.098 331.153L429.887 332.047ZM439.204 319.347C447.645 310.905 458.138 306.68 470.753 306.68V304.68C457.639 304.68 446.628 309.095 437.789 317.933L439.204 319.347ZM470.753 306.68C481.895 306.68 491.778 309.604 500.434 315.437L501.551 313.779C492.544 307.708 482.266 304.68 470.753 304.68V306.68ZM500.446 315.446C509.089 321.082 515.983 329.558 521.105 340.938L522.928 340.118C517.682 328.458 510.56 319.654 501.539 313.77L500.446 315.446ZM521.107 340.944C526.216 352.108 528.793 365.781 528.793 382H530.793C530.793 365.579 528.185 351.604 522.926 340.112L521.107 340.944ZM528.793 382C528.793 406.431 523.066 425.075 511.758 438.08L513.267 439.392C524.999 425.901 530.793 406.721 530.793 382H528.793ZM511.757 438.081C500.644 450.89 485.574 457.32 466.433 457.32V459.32C486.075 459.32 501.725 452.694 513.268 439.391L511.757 438.081ZM466.433 457.32C457.358 457.32 449.467 455.431 442.726 451.686L441.755 453.434C448.838 457.369 457.075 459.32 466.433 459.32V457.32ZM442.663 451.654C439.873 450.352 436.966 448.48 433.943 446.024L432.682 447.576C435.803 450.112 438.848 452.08 441.818 453.466L442.663 451.654ZM432.312 446.8V502.96H434.312V446.8H432.312ZM433.07 503.93L450.35 508.25L450.835 506.31L433.555 501.99L433.07 503.93ZM449.593 507.28V511.6H451.593V507.28H449.593ZM450.593 510.6H369.953V512.6H450.593V510.6ZM370.953 511.6V507.28H368.953V511.6H370.953ZM454.913 450.68C459.249 450.68 463.112 449.414 466.46 446.877C469.796 444.35 472.574 440.6 474.829 435.698L473.012 434.862C470.851 439.56 468.253 443.01 465.253 445.283C462.266 447.546 458.832 448.68 454.913 448.68V450.68ZM474.822 435.713C477.193 430.773 478.938 423.813 480.096 414.889C481.256 405.952 481.833 394.986 481.833 382H479.833C479.833 394.934 479.257 405.808 478.113 414.631C476.967 423.467 475.256 430.187 473.019 434.847L474.822 435.713ZM481.833 382C481.833 357.232 479.729 339.857 475.412 330.045L473.581 330.851C477.712 340.239 479.833 357.232 479.833 382H481.833ZM475.421 330.067C471.356 320.195 466.026 314.76 459.233 314.76V316.76C464.727 316.76 469.573 321.117 473.572 330.829L475.421 330.067ZM459.233 314.76C451.527 314.76 444.732 318.835 438.849 326.68L440.449 327.88C446.085 320.365 452.346 316.76 459.233 316.76V314.76ZM438.854 326.673C436.293 330.021 434.138 333.946 432.381 338.436L434.244 339.164C435.943 334.822 438.012 331.067 440.443 327.887L438.854 326.673ZM432.312 338.8V438.16H434.312V338.8H432.312ZM432.605 438.867C435.301 441.563 437.454 443.524 439.049 444.72L440.249 443.12C438.771 442.012 436.7 440.133 434.02 437.453L432.605 438.867ZM439.053 444.724C444.359 448.654 449.651 450.68 454.913 450.68V448.68C450.19 448.68 445.306 446.866 440.244 443.116L439.053 444.724ZM580.193 449.68L579.95 448.71L579.193 448.899V449.68H580.193ZM597.473 445.36L597.715 446.33L598.473 446.141V445.36H597.473ZM597.473 317.2H598.473V316.2H597.473V317.2ZM575.873 317.2V316.2H574.873V317.2H575.873ZM566.369 349.168L567.219 349.694L567.225 349.685L567.23 349.676L566.369 349.168ZM557.153 360.4V361.4H557.551L557.84 361.126L557.153 360.4ZM548.513 360.4H547.513V361.4H548.513V360.4ZM548.513 310V309H547.513V310H548.513ZM692.513 310H693.513V309H692.513V310ZM692.513 360.4V361.4H693.513V360.4H692.513ZM683.873 360.4L683.206 361.145L683.49 361.4H683.873V360.4ZM674.369 349.168L673.508 349.678L673.516 349.691L673.525 349.705L674.369 349.168ZM665.153 317.2H666.153V316.2H665.153V317.2ZM643.553 317.2V316.2H642.553V317.2H643.553ZM643.553 445.36H642.553V446.141L643.31 446.33L643.553 445.36ZM660.833 449.68H661.833V448.899L661.075 448.71L660.833 449.68ZM660.833 454V455H661.833V454H660.833ZM580.193 454H579.193V455H580.193V454ZM580.435 450.65L597.715 446.33L597.23 444.39L579.95 448.71L580.435 450.65ZM598.473 445.36V317.2H596.473V445.36H598.473ZM597.473 316.2H575.873V318.2H597.473V316.2ZM574.873 317.2C574.873 327.551 571.769 338.034 565.507 348.66L567.23 349.676C573.64 338.798 576.873 327.969 576.873 317.2H574.873ZM565.518 348.642C563.07 352.596 560.054 356.274 556.465 359.674L557.84 361.126C561.547 357.614 564.675 353.804 567.219 349.694L565.518 348.642ZM557.153 359.4H548.513V361.4H557.153V359.4ZM549.513 360.4V310H547.513V360.4H549.513ZM548.513 311H692.513V309H548.513V311ZM691.513 310V360.4H693.513V310H691.513ZM692.513 359.4H683.873V361.4H692.513V359.4ZM684.539 359.655C680.961 356.453 677.852 352.78 675.212 348.631L673.525 349.705C676.261 354.004 679.488 357.819 683.206 361.145L684.539 359.655ZM675.229 348.658C669.167 338.428 666.153 327.947 666.153 317.2H664.153C664.153 328.341 667.282 339.172 673.508 349.678L675.229 348.658ZM665.153 316.2H643.553V318.2H665.153V316.2ZM642.553 317.2V445.36H644.553V317.2H642.553ZM643.31 446.33L660.59 450.65L661.075 448.71L643.795 444.39L643.31 446.33ZM659.833 449.68V454H661.833V449.68H659.833ZM660.833 453H580.193V455H660.833V453ZM581.193 454V449.68H579.193V454H581.193ZM711.176 454H710.176V455H711.176V454ZM711.176 449.68L710.934 448.71L710.176 448.899V449.68H711.176ZM728.456 445.36L728.699 446.33L729.456 446.141V445.36H728.456ZM728.456 318.64H729.456V317.859L728.699 317.67L728.456 318.64ZM711.176 314.32H710.176V315.101L710.934 315.29L711.176 314.32ZM711.176 310V309H710.176V310H711.176ZM791.816 310H792.816V309H791.816V310ZM791.816 314.32L792.059 315.29L792.816 315.101V314.32H791.816ZM774.536 318.64L774.294 317.67L773.536 317.859V318.64H774.536ZM774.536 377.68H773.536V378.68H774.536V377.68ZM817.736 377.68V378.68H818.736V377.68H817.736ZM817.736 318.64H818.736V317.859L817.979 317.67L817.736 318.64ZM800.456 314.32H799.456V315.101L800.214 315.29L800.456 314.32ZM800.456 310V309H799.456V310H800.456ZM881.096 310H882.096V309H881.096V310ZM881.096 314.32L881.339 315.29L882.096 315.101V314.32H881.096ZM863.816 318.64L863.574 317.67L862.816 317.859V318.64H863.816ZM863.816 445.36H862.816V446.141L863.574 446.33L863.816 445.36ZM881.096 449.68H882.096V448.899L881.339 448.71L881.096 449.68ZM881.096 454V455H882.096V454H881.096ZM800.456 454H799.456V455H800.456V454ZM800.456 449.68L800.214 448.71L799.456 448.899V449.68H800.456ZM817.736 445.36L817.979 446.33L818.736 446.141V445.36H817.736ZM817.736 384.88H818.736V383.88H817.736V384.88ZM774.536 384.88V383.88H773.536V384.88H774.536ZM774.536 445.36H773.536V446.141L774.294 446.33L774.536 445.36ZM791.816 449.68H792.816V448.899L792.059 448.71L791.816 449.68ZM791.816 454V455H792.816V454H791.816ZM712.176 454V449.68H710.176V454H712.176ZM711.419 450.65L728.699 446.33L728.214 444.39L710.934 448.71L711.419 450.65ZM729.456 445.36V318.64H727.456V445.36H729.456ZM728.699 317.67L711.419 313.35L710.934 315.29L728.214 319.61L728.699 317.67ZM712.176 314.32V310H710.176V314.32H712.176ZM711.176 311H791.816V309H711.176V311ZM790.816 310V314.32H792.816V310H790.816ZM791.574 313.35L774.294 317.67L774.779 319.61L792.059 315.29L791.574 313.35ZM773.536 318.64V377.68H775.536V318.64H773.536ZM774.536 378.68H817.736V376.68H774.536V378.68ZM818.736 377.68V318.64H816.736V377.68H818.736ZM817.979 317.67L800.699 313.35L800.214 315.29L817.494 319.61L817.979 317.67ZM801.456 314.32V310H799.456V314.32H801.456ZM800.456 311H881.096V309H800.456V311ZM880.096 310V314.32H882.096V310H880.096ZM880.854 313.35L863.574 317.67L864.059 319.61L881.339 315.29L880.854 313.35ZM862.816 318.64V445.36H864.816V318.64H862.816ZM863.574 446.33L880.854 450.65L881.339 448.71L864.059 444.39L863.574 446.33ZM880.096 449.68V454H882.096V449.68H880.096ZM881.096 453H800.456V455H881.096V453ZM801.456 454V449.68H799.456V454H801.456ZM800.699 450.65L817.979 446.33L817.494 444.39L800.214 448.71L800.699 450.65ZM818.736 445.36V384.88H816.736V445.36H818.736ZM817.736 383.88H774.536V385.88H817.736V383.88ZM773.536 384.88V445.36H775.536V384.88H773.536ZM774.294 446.33L791.574 450.65L792.059 448.71L774.779 444.39L774.294 446.33ZM790.816 449.68V454H792.816V449.68H790.816ZM791.816 453H711.176V455H791.816V453ZM924.562 438.16L923.855 438.867L923.86 438.872L924.562 438.16ZM913.042 341.392L912.153 340.933L912.153 340.933L913.042 341.392ZM937.81 314.896L937.314 314.028L937.307 314.032L937.81 314.896ZM1010.96 313.456L1010.51 314.35L1010.52 314.354L1010.96 313.456ZM1035.15 334.48L1034.31 335.013L1034.31 335.024L1034.32 335.035L1035.15 334.48ZM1042.35 375.664L1043.31 375.946L1043.32 375.939L1043.32 375.932L1042.35 375.664ZM1040.91 380.56L1041.12 381.539L1041.7 381.416L1041.87 380.842L1040.91 380.56ZM1014.13 384.88L1014.01 383.887L1014 383.888L1013.99 383.89L1014.13 384.88ZM953.074 389.2V388.2H952.074V389.2H953.074ZM962.29 437.008L961.447 437.547L961.452 437.555L962.29 437.008ZM1008.37 445.936L1008.85 446.814L1008.86 446.809L1008.37 445.936ZM1023.63 431.824L1022.79 431.282L1022.79 431.289L1023.63 431.824ZM1029.39 413.68V412.68H1028.39V413.68H1029.39ZM1036.59 413.68H1037.59V412.68H1036.59V413.68ZM1029.68 435.568L1028.85 435.013L1028.85 435.013L1029.68 435.568ZM1010.39 452.272L1010.82 453.171L1010.83 453.166L1010.84 453.162L1010.39 452.272ZM953.074 382H952.074V383H953.074V382ZM983.026 380.56L982.967 379.562L982.934 379.564L982.902 379.568L983.026 380.56ZM993.394 379.12L993.6 380.099L994.245 379.963L994.374 379.316L993.394 379.12ZM994.834 372.784L995.807 373.013L995.811 372.997L995.814 372.98L994.834 372.784ZM989.938 322.672L989.067 323.163L989.072 323.173L989.938 322.672ZM981.874 457.32C957.483 457.32 938.66 450.655 925.264 437.448L923.86 438.872C937.728 452.545 957.113 459.32 981.874 459.32V457.32ZM925.269 437.453C911.866 424.05 905.114 405.609 905.114 382H903.114C903.114 406.007 909.993 425.006 923.855 438.867L925.269 437.453ZM905.114 382C905.114 366.576 908.065 353.203 913.93 341.851L912.153 340.933C906.115 352.621 903.114 366.32 903.114 382H905.114ZM913.93 341.851C919.8 330.489 927.927 321.803 938.313 315.76L937.307 314.032C926.572 320.277 918.187 329.255 912.153 340.933L913.93 341.851ZM938.306 315.764C948.89 309.716 961.003 306.68 974.674 306.68V304.68C960.696 304.68 948.234 307.788 937.314 314.028L938.306 315.764ZM974.674 306.68C988.372 306.68 1000.31 309.248 1010.51 314.35L1011.41 312.562C1000.88 307.296 988.623 304.68 974.674 304.68V306.68ZM1010.52 314.354C1020.94 319.467 1028.85 326.357 1034.31 335.013L1036 333.947C1030.32 324.939 1022.11 317.813 1011.4 312.558L1010.52 314.354ZM1034.32 335.035C1039.97 343.507 1042.79 352.914 1042.79 363.28H1044.79C1044.79 352.526 1041.86 342.733 1035.99 333.925L1034.32 335.035ZM1042.79 363.28C1042.79 368.018 1042.32 372.051 1041.39 375.396L1043.32 375.932C1044.31 372.365 1044.79 368.142 1044.79 363.28H1042.79ZM1041.39 375.382L1039.95 380.278L1041.87 380.842L1043.31 375.946L1041.39 375.382ZM1040.71 379.581C1032.48 381.302 1023.59 382.738 1014.01 383.887L1014.25 385.873C1023.87 384.718 1032.83 383.274 1041.12 381.539L1040.71 379.581ZM1013.99 383.89C993.876 386.763 973.571 388.2 953.074 388.2V390.2C973.665 390.2 994.064 388.757 1014.27 385.87L1013.99 383.89ZM952.074 389.2C952.074 411.511 955.141 427.694 961.447 437.547L963.132 436.469C957.15 427.122 954.074 411.433 954.074 389.2H952.074ZM961.452 437.555C967.771 447.23 976.526 452.12 987.634 452.12V450.12C977.237 450.12 969.096 445.602 963.127 436.461L961.452 437.555ZM987.634 452.12C995.283 452.12 1002.36 450.353 1008.85 446.814L1007.89 445.058C1001.71 448.431 994.961 450.12 987.634 450.12V452.12ZM1008.86 446.809C1015.52 443.088 1020.73 438.273 1024.48 432.359L1022.79 431.289C1019.24 436.895 1014.28 441.488 1007.88 445.063L1008.86 446.809ZM1024.47 432.366C1028.4 426.278 1030.39 420.044 1030.39 413.68H1028.39C1028.39 419.604 1026.55 425.466 1022.79 431.282L1024.47 432.366ZM1029.39 414.68H1036.59V412.68H1029.39V414.68ZM1035.59 413.68C1035.59 421.146 1033.36 428.252 1028.85 435.013L1030.51 436.123C1035.22 429.06 1037.59 421.574 1037.59 413.68H1035.59ZM1028.85 435.013C1024.35 441.767 1018.05 447.226 1009.93 451.382L1010.84 453.162C1019.23 448.87 1025.8 443.193 1030.51 436.123L1028.85 435.013ZM1009.95 451.373C1001.85 455.328 992.499 457.32 981.874 457.32V459.32C992.752 459.32 1002.41 457.28 1010.82 453.171L1009.95 451.373ZM953.074 383C965.382 383 975.412 382.519 983.15 381.552L982.902 379.568C975.279 380.521 965.341 381 953.074 381V383ZM983.084 381.558C986.404 381.363 989.91 380.875 993.6 380.099L993.188 378.141C989.582 378.901 986.175 379.373 982.967 379.562L983.084 381.558ZM994.374 379.316C994.562 378.376 995.038 376.281 995.807 373.013L993.86 372.555C993.093 375.815 992.609 377.944 992.413 378.924L994.374 379.316ZM995.814 372.98C996.788 368.11 997.274 362.955 997.274 357.52H995.274C995.274 362.837 994.799 367.858 993.853 372.588L995.814 372.98ZM997.274 357.52C997.274 341.539 995.164 329.703 990.803 322.171L989.072 323.173C993.16 330.233 995.274 341.629 995.274 357.52H997.274ZM990.809 322.181C986.495 314.533 981.135 310.44 974.674 310.44V312.44C980.117 312.44 984.933 315.835 989.067 323.163L990.809 322.181ZM974.674 310.44C966.76 310.44 961.142 316.947 957.518 328.787C953.873 340.693 952.074 358.454 952.074 382H954.074C954.074 358.506 955.875 340.987 959.43 329.373C963.005 317.693 968.187 312.44 974.674 312.44V310.44ZM1062.39 507.28L1062.15 506.31L1061.39 506.499V507.28H1062.39ZM1079.67 502.96L1079.91 503.93L1080.67 503.741V502.96H1079.67ZM1079.67 318.64H1080.67V317.859L1079.91 317.67L1079.67 318.64ZM1062.39 314.32H1061.39V315.101L1062.15 315.29L1062.39 314.32ZM1062.39 310V309H1061.39V310H1062.39ZM1115.09 320.944L1115.85 320.289L1115.84 320.283L1115.84 320.277L1115.09 320.944ZM1121.43 331.6L1120.5 331.979L1121.34 334.018L1122.32 332.047L1121.43 331.6ZM1130.93 318.64L1131.62 319.365L1131.63 319.356L1131.64 319.347L1130.93 318.64ZM1193.43 314.608L1192.87 315.437L1192.88 315.441L1192.88 315.446L1193.43 314.608ZM1214.45 340.528L1213.54 340.938L1213.54 340.944L1214.45 340.528ZM1204.95 438.736L1204.2 438.08L1204.19 438.081L1204.95 438.736ZM1134.68 452.56L1135.16 451.686L1135.13 451.669L1135.1 451.654L1134.68 452.56ZM1125.75 446.8L1126.38 446.024L1124.75 444.699V446.8H1125.75ZM1125.75 502.96H1124.75V503.741L1125.51 503.93L1125.75 502.96ZM1143.03 507.28H1144.03V506.499L1143.27 506.31L1143.03 507.28ZM1143.03 511.6V512.6H1144.03V511.6H1143.03ZM1062.39 511.6H1061.39V512.6H1062.39V511.6ZM1166.36 435.28L1165.46 434.847L1165.45 434.855L1165.45 434.862L1166.36 435.28ZM1166.93 330.448L1166.01 330.829L1166.01 330.84L1166.02 330.851L1166.93 330.448ZM1132.09 327.28L1132.88 327.887L1132.89 327.88L1132.09 327.28ZM1125.75 338.8L1124.82 338.436L1124.75 338.611V338.8H1125.75ZM1125.75 438.16H1124.75V438.574L1125.04 438.867L1125.75 438.16ZM1132.09 443.92L1131.49 444.72L1131.49 444.724L1132.09 443.92ZM1062.63 508.25L1079.91 503.93L1079.43 501.99L1062.15 506.31L1062.63 508.25ZM1080.67 502.96V318.64H1078.67V502.96H1080.67ZM1079.91 317.67L1062.63 313.35L1062.15 315.29L1079.43 319.61L1079.91 317.67ZM1063.39 314.32V310H1061.39V314.32H1063.39ZM1062.39 311H1088.31V309H1062.39V311ZM1088.31 311C1099.4 311 1108.04 314.561 1114.35 321.611L1115.84 320.277C1109.09 312.735 1099.87 309 1088.31 309V311ZM1114.34 321.599C1116.75 324.382 1118.81 327.836 1120.5 331.979L1122.36 331.221C1120.59 326.916 1118.43 323.266 1115.85 320.289L1114.34 321.599ZM1122.32 332.047C1124.77 327.153 1127.87 322.929 1131.62 319.365L1130.25 317.915C1126.32 321.647 1123.08 326.063 1120.54 331.153L1122.32 332.047ZM1131.64 319.347C1140.08 310.905 1150.58 306.68 1163.19 306.68V304.68C1150.08 304.68 1139.07 309.095 1130.23 317.933L1131.64 319.347ZM1163.19 306.68C1174.33 306.68 1184.22 309.604 1192.87 315.437L1193.99 313.779C1184.98 307.708 1174.7 304.68 1163.19 304.68V306.68ZM1192.88 315.446C1201.53 321.082 1208.42 329.558 1213.54 340.938L1215.37 340.118C1210.12 328.458 1203 319.654 1193.98 313.77L1192.88 315.446ZM1213.54 340.944C1218.65 352.108 1221.23 365.781 1221.23 382H1223.23C1223.23 365.579 1220.62 351.604 1215.36 340.112L1213.54 340.944ZM1221.23 382C1221.23 406.431 1215.5 425.075 1204.2 438.08L1205.7 439.392C1217.44 425.901 1223.23 406.721 1223.23 382H1221.23ZM1204.19 438.081C1193.08 450.89 1178.01 457.32 1158.87 457.32V459.32C1178.51 459.32 1194.16 452.694 1205.71 439.391L1204.19 438.081ZM1158.87 457.32C1149.8 457.32 1141.9 455.431 1135.16 451.686L1134.19 453.434C1141.28 457.369 1149.51 459.32 1158.87 459.32V457.32ZM1135.1 451.654C1132.31 450.352 1129.4 448.48 1126.38 446.024L1125.12 447.576C1128.24 450.112 1131.29 452.08 1134.26 453.466L1135.1 451.654ZM1124.75 446.8V502.96H1126.75V446.8H1124.75ZM1125.51 503.93L1142.79 508.25L1143.27 506.31L1125.99 501.99L1125.51 503.93ZM1142.03 507.28V511.6H1144.03V507.28H1142.03ZM1143.03 510.6H1062.39V512.6H1143.03V510.6ZM1063.39 511.6V507.28H1061.39V511.6H1063.39ZM1147.35 450.68C1151.69 450.68 1155.55 449.414 1158.9 446.877C1162.23 444.35 1165.01 440.6 1167.27 435.698L1165.45 434.862C1163.29 439.56 1160.69 443.01 1157.69 445.283C1154.7 447.546 1151.27 448.68 1147.35 448.68V450.68ZM1167.26 435.713C1169.63 430.773 1171.38 423.813 1172.53 414.889C1173.69 405.952 1174.27 394.986 1174.27 382H1172.27C1172.27 394.934 1171.69 405.808 1170.55 414.631C1169.4 423.467 1167.69 430.187 1165.46 434.847L1167.26 435.713ZM1174.27 382C1174.27 357.232 1172.17 339.857 1167.85 330.045L1166.02 330.851C1170.15 340.239 1172.27 357.232 1172.27 382H1174.27ZM1167.86 330.067C1163.79 320.195 1158.46 314.76 1151.67 314.76V316.76C1157.16 316.76 1162.01 321.117 1166.01 330.829L1167.86 330.067ZM1151.67 314.76C1143.96 314.76 1137.17 318.835 1131.29 326.68L1132.89 327.88C1138.52 320.365 1144.78 316.76 1151.67 316.76V314.76ZM1131.29 326.673C1128.73 330.021 1126.58 333.946 1124.82 338.436L1126.68 339.164C1128.38 334.822 1130.45 331.067 1132.88 327.887L1131.29 326.673ZM1124.75 338.8V438.16H1126.75V338.8H1124.75ZM1125.04 438.867C1127.74 441.563 1129.89 443.524 1131.49 444.72L1132.69 443.12C1131.21 442.012 1129.14 440.133 1126.46 437.453L1125.04 438.867ZM1131.49 444.724C1136.8 448.654 1142.09 450.68 1147.35 450.68V448.68C1142.63 448.68 1137.74 446.866 1132.68 443.116L1131.49 444.724ZM1265.72 438.16L1265.01 438.867L1265.02 438.872L1265.72 438.16ZM1265.72 326.128L1266.42 326.84L1266.43 326.835L1265.72 326.128ZM1362.77 314.896L1362.2 315.717L1362.21 315.723L1362.77 314.896ZM1346.65 358.384L1346.4 359.354L1346.45 359.367L1346.5 359.374L1346.65 358.384ZM1343.19 357.52H1342.19V358.301L1342.95 358.49L1343.19 357.52ZM1343.19 314.32H1344.19V313.615L1343.53 313.378L1343.19 314.32ZM1339.16 312.88L1339.49 311.938L1339.48 311.935L1339.47 311.931L1339.16 312.88ZM1303.16 326.992L1302.3 326.482L1302.29 326.494L1303.16 326.992ZM1303.16 435.856L1302.29 436.354L1302.3 436.363L1302.3 436.373L1303.16 435.856ZM1349.53 445.936L1350 446.814L1350.01 446.809L1349.53 445.936ZM1364.79 431.824L1363.95 431.282L1363.95 431.289L1364.79 431.824ZM1370.55 413.68V412.68H1369.55V413.68H1370.55ZM1377.75 413.68H1378.75V412.68H1377.75V413.68ZM1370.84 435.568L1370.01 435.013L1370.01 435.013L1370.84 435.568ZM1351.54 452.272L1351.98 453.171L1351.99 453.166L1352 453.162L1351.54 452.272ZM1323.03 457.32C1298.64 457.32 1279.82 450.655 1266.42 437.448L1265.02 438.872C1278.88 452.545 1298.27 459.32 1323.03 459.32V457.32ZM1266.43 437.453C1253.02 424.05 1246.27 405.609 1246.27 382H1244.27C1244.27 406.007 1251.15 425.006 1265.01 438.867L1266.43 437.453ZM1246.27 382C1246.27 358.391 1253.02 340.049 1266.42 326.84L1265.02 325.416C1251.15 339.087 1244.27 357.993 1244.27 382H1246.27ZM1266.43 326.835C1279.82 313.439 1298.64 306.68 1323.03 306.68V304.68C1298.27 304.68 1278.88 311.553 1265.01 325.421L1266.43 326.835ZM1323.03 306.68C1340.61 306.68 1353.62 309.743 1362.2 315.717L1363.35 314.075C1354.27 307.761 1340.78 304.68 1323.03 304.68V306.68ZM1362.21 315.723C1371.03 321.73 1375.31 328.939 1375.31 337.36H1377.31C1377.31 328.117 1372.56 320.35 1363.34 314.069L1362.21 315.723ZM1375.31 337.36C1375.31 343.664 1373.37 348.676 1369.55 352.493L1370.97 353.907C1375.22 349.66 1377.31 344.111 1377.31 337.36H1375.31ZM1369.55 352.493C1365.94 356.108 1361.03 357.96 1354.71 357.96V359.96C1361.45 359.96 1366.9 357.972 1370.97 353.907L1369.55 352.493ZM1354.71 357.96C1352.07 357.96 1349.43 357.771 1346.79 357.394L1346.5 359.374C1349.24 359.765 1351.97 359.96 1354.71 359.96V357.96ZM1346.89 357.414L1343.43 356.55L1342.95 358.49L1346.4 359.354L1346.89 357.414ZM1344.19 357.52V314.32H1342.19V357.52H1344.19ZM1343.53 313.378L1339.49 311.938L1338.82 313.822L1342.85 315.262L1343.53 313.378ZM1339.47 311.931C1336.47 310.928 1332.9 310.44 1328.79 310.44V312.44C1332.75 312.44 1336.09 312.912 1338.84 313.829L1339.47 311.931ZM1328.79 310.44C1317.45 310.44 1308.6 315.847 1302.3 326.482L1304.02 327.502C1310 317.401 1318.24 312.44 1328.79 312.44V310.44ZM1302.29 326.494C1296.2 337.11 1293.23 355.684 1293.23 382H1295.23C1295.23 355.708 1298.22 337.61 1304.03 327.49L1302.29 326.494ZM1293.23 382C1293.23 407.554 1296.2 425.74 1302.29 436.354L1304.03 435.358C1298.21 425.236 1295.23 407.518 1295.23 382H1293.23ZM1302.3 436.373C1308.61 446.818 1317.46 452.12 1328.79 452.12V450.12C1318.23 450.12 1310 445.246 1304.01 435.339L1302.3 436.373ZM1328.79 452.12C1336.44 452.12 1343.52 450.353 1350 446.814L1349.05 445.058C1342.86 448.431 1336.12 450.12 1328.79 450.12V452.12ZM1350.01 446.809C1356.67 443.088 1361.89 438.273 1365.63 432.359L1363.95 431.289C1360.39 436.895 1355.44 441.488 1349.04 445.063L1350.01 446.809ZM1365.63 432.366C1369.56 426.278 1371.55 420.044 1371.55 413.68H1369.55C1369.55 419.604 1367.7 425.466 1363.95 431.282L1365.63 432.366ZM1370.55 414.68H1377.75V412.68H1370.55V414.68ZM1376.75 413.68C1376.75 421.146 1374.51 428.252 1370.01 435.013L1371.67 436.123C1376.38 429.06 1378.75 421.574 1378.75 413.68H1376.75ZM1370.01 435.013C1365.5 441.767 1359.21 447.226 1351.09 451.382L1352 453.162C1360.39 448.87 1366.96 443.193 1371.67 436.123L1370.01 435.013ZM1351.1 451.373C1343.01 455.328 1333.66 457.32 1323.03 457.32V459.32C1333.91 459.32 1343.57 457.28 1351.98 453.171L1351.1 451.373ZM1397.99 449.68L1397.75 448.71L1396.99 448.899V449.68H1397.99ZM1415.27 445.36L1415.51 446.33L1416.27 446.141V445.36H1415.27ZM1415.27 318.64H1416.27V317.859L1415.51 317.67L1415.27 318.64ZM1397.99 314.32H1396.99V315.101L1397.75 315.29L1397.99 314.32ZM1397.99 310V309H1396.99V310H1397.99ZM1478.63 310H1479.63V309H1478.63V310ZM1478.63 314.32L1478.87 315.29L1479.63 315.101V314.32H1478.63ZM1461.35 318.64L1461.11 317.67L1460.35 317.859V318.64H1461.35ZM1461.35 374.8H1460.35V375.8H1461.35V374.8ZM1485.83 369.616L1486.48 370.375L1486.49 370.367L1486.5 370.358L1485.83 369.616ZM1494.47 356.08L1495.42 356.386L1495.43 356.367L1495.43 356.348L1494.47 356.08ZM1501.67 330.16L1500.71 329.873L1500.71 329.882L1500.71 329.892L1501.67 330.16ZM1547.75 314.032L1547.06 314.753L1547.06 314.753L1547.75 314.032ZM1548.9 350.032L1548.19 349.325L1548.19 349.334L1548.18 349.342L1548.9 350.032ZM1525.28 355.504L1525.04 356.474L1525.09 356.487L1525.14 356.494L1525.28 355.504ZM1521.83 354.64H1520.83V355.421L1521.59 355.61L1521.83 354.64ZM1521.83 315.76H1522.83V314.458L1521.57 314.794L1521.83 315.76ZM1510.31 330.16L1511.27 330.428L1511.28 330.41L1511.28 330.392L1510.31 330.16ZM1503.11 356.08L1504.07 356.355L1504.07 356.348L1503.11 356.08ZM1493.6 372.208L1492.93 371.47L1492.91 371.485L1492.9 371.501L1493.6 372.208ZM1487.27 376.24L1486.87 375.321L1487.27 377.24V376.24ZM1522.4 383.152L1521.82 383.961L1521.83 383.971L1521.84 383.98L1522.4 383.152ZM1536.23 400.72L1537.18 400.413L1537.17 400.394L1537.17 400.374L1536.23 400.72ZM1550.63 445.36L1549.68 445.667L1549.84 446.167L1550.34 446.318L1550.63 445.36ZM1565.03 449.68H1566.03V448.936L1565.32 448.722L1565.03 449.68ZM1565.03 454V455H1566.03V454H1565.03ZM1510.02 447.088L1509.42 447.888L1509.43 447.892L1509.43 447.897L1510.02 447.088ZM1497.35 429.52L1498.3 429.211L1498.3 429.204L1497.35 429.52ZM1481.51 382L1482.46 381.684L1482.23 381H1481.51V382ZM1461.35 382V381H1460.35V382H1461.35ZM1461.35 445.36H1460.35V446.141L1461.11 446.33L1461.35 445.36ZM1478.63 449.68H1479.63V448.899L1478.87 448.71L1478.63 449.68ZM1478.63 454V455H1479.63V454H1478.63ZM1397.99 454H1396.99V455H1397.99V454ZM1398.23 450.65L1415.51 446.33L1415.03 444.39L1397.75 448.71L1398.23 450.65ZM1416.27 445.36V318.64H1414.27V445.36H1416.27ZM1415.51 317.67L1398.23 313.35L1397.75 315.29L1415.03 319.61L1415.51 317.67ZM1398.99 314.32V310H1396.99V314.32H1398.99ZM1397.99 311H1478.63V309H1397.99V311ZM1477.63 310V314.32H1479.63V310H1477.63ZM1478.39 313.35L1461.11 317.67L1461.59 319.61L1478.87 315.29L1478.39 313.35ZM1460.35 318.64V374.8H1462.35V318.64H1460.35ZM1461.35 375.8H1471.43V373.8H1461.35V375.8ZM1471.43 375.8C1477.22 375.8 1482.26 373.995 1486.48 370.375L1485.18 368.857C1481.34 372.149 1476.77 373.8 1471.43 373.8V375.8ZM1486.5 370.358C1490.67 366.587 1493.64 361.923 1495.42 356.386L1493.52 355.774C1491.84 360.989 1489.05 365.349 1485.16 368.874L1486.5 370.358ZM1495.43 356.348L1502.63 330.428L1500.71 329.892L1493.51 355.812L1495.43 356.348ZM1502.63 330.447C1504.9 322.879 1508.13 317.305 1512.27 313.627C1516.39 309.966 1521.47 308.12 1527.59 308.12V306.12C1521.03 306.12 1515.46 308.114 1510.94 312.133C1506.44 316.135 1503.05 322.081 1500.71 329.873L1502.63 330.447ZM1527.59 308.12C1536.05 308.12 1542.49 310.373 1547.06 314.753L1548.44 313.311C1543.4 308.475 1536.41 306.12 1527.59 306.12V308.12ZM1547.06 314.753C1551.62 319.134 1553.95 325.186 1553.95 333.04H1555.95C1555.95 324.766 1553.48 318.146 1548.44 313.311L1547.06 314.753ZM1553.95 333.04C1553.95 340.148 1551.99 345.529 1548.19 349.325L1549.61 350.739C1553.88 346.471 1555.95 340.524 1555.95 333.04H1553.95ZM1548.18 349.342C1544.56 353.142 1539.65 355.08 1533.35 355.08V357.08C1540.1 357.08 1545.56 354.986 1549.62 350.722L1548.18 349.342ZM1533.35 355.08C1530.71 355.08 1528.07 354.891 1525.43 354.514L1525.14 356.494C1527.88 356.885 1530.61 357.08 1533.35 357.08V355.08ZM1525.53 354.534L1522.07 353.67L1521.59 355.61L1525.04 356.474L1525.53 354.534ZM1522.83 354.64V315.76H1520.83V354.64H1522.83ZM1521.57 314.794C1515.32 316.46 1511.3 321.665 1509.34 329.928L1511.28 330.392C1513.15 322.527 1516.82 318.132 1522.09 316.726L1521.57 314.794ZM1509.35 329.892L1502.15 355.812L1504.07 356.348L1511.27 330.428L1509.35 329.892ZM1502.15 355.805C1500.27 362.378 1497.19 367.582 1492.93 371.47L1494.28 372.946C1498.85 368.77 1502.11 363.222 1504.07 356.355L1502.15 355.805ZM1492.9 371.501C1491.48 372.922 1489.48 374.203 1486.87 375.321L1487.66 377.159C1490.43 375.973 1492.66 374.566 1494.31 372.915L1492.9 371.501ZM1487.27 377.24H1495.91V375.24H1487.27V377.24ZM1495.91 377.24C1507.12 377.24 1515.71 379.521 1521.82 383.961L1522.99 382.343C1516.43 377.567 1507.36 375.24 1495.91 375.24V377.24ZM1521.84 383.98C1528.2 388.281 1532.68 393.969 1535.29 401.066L1537.17 400.374C1534.41 392.879 1529.66 386.855 1522.97 382.324L1521.84 383.98ZM1535.28 401.027L1549.68 445.667L1551.58 445.053L1537.18 400.413L1535.28 401.027ZM1550.34 446.318L1564.74 450.638L1565.32 448.722L1550.92 444.402L1550.34 446.318ZM1564.03 449.68V454H1566.03V449.68H1564.03ZM1565.03 453H1534.79V455H1565.03V453ZM1534.79 453C1524.76 453 1516.73 450.73 1510.61 446.279L1509.43 447.897C1515.98 452.662 1524.46 455 1534.79 455V453ZM1510.62 446.288C1504.64 441.8 1500.54 436.114 1498.3 429.211L1496.4 429.829C1498.77 437.134 1503.12 443.16 1509.42 447.888L1510.62 446.288ZM1498.3 429.204L1482.46 381.684L1480.56 382.316L1496.4 429.836L1498.3 429.204ZM1481.51 381H1461.35V383H1481.51V381ZM1460.35 382V445.36H1462.35V382H1460.35ZM1461.11 446.33L1478.39 450.65L1478.87 448.71L1461.59 444.39L1461.11 446.33ZM1477.63 449.68V454H1479.63V449.68H1477.63ZM1478.63 453H1397.99V455H1478.63V453ZM1398.99 454V449.68H1396.99V454H1398.99ZM1594.69 447.376L1594.07 448.16L1594.07 448.16L1594.69 447.376ZM1585.76 397.264L1586.68 397.672L1586.69 397.65L1586.7 397.626L1585.76 397.264ZM1590.95 387.76L1590.71 386.788L1590.36 386.875L1590.14 387.169L1590.95 387.76ZM1616.58 382.576L1616.42 381.59L1616.42 381.59L1616.58 382.576ZM1671.59 376.24L1671.64 377.239L1672.59 377.193V376.24H1671.59ZM1663.81 323.536L1664.65 322.995L1664.65 322.995L1663.81 323.536ZM1629.54 312.88L1629.22 311.931L1629.21 311.935L1629.2 311.938L1629.54 312.88ZM1625.51 314.32L1625.17 313.378L1624.51 313.615V314.32H1625.51ZM1625.51 357.52L1625.73 358.494L1626.51 358.316V357.52H1625.51ZM1621.76 358.384L1621.89 359.376L1621.94 359.37L1621.99 359.358L1621.76 358.384ZM1598.15 353.2L1597.42 353.89L1597.44 353.907L1597.46 353.924L1598.15 353.2ZM1605.64 314.896L1605.07 314.069L1605.07 314.075L1605.64 314.896ZM1684.26 313.744L1683.81 314.638L1683.82 314.643L1683.83 314.648L1684.26 313.744ZM1709.03 335.632L1708.17 336.141L1708.17 336.152L1708.18 336.162L1709.03 335.632ZM1717.67 445.36H1716.67V446.141L1717.43 446.33L1717.67 445.36ZM1734.95 449.68H1735.95V448.899L1735.19 448.71L1734.95 449.68ZM1734.95 454V455H1735.95V454H1734.95ZM1682.24 443.344L1682.99 442.678L1682.98 442.67L1682.98 442.662L1682.24 443.344ZM1675.91 432.4L1676.85 432.071L1676.12 429.971L1675.04 431.911L1675.91 432.4ZM1666.4 445.36L1667.11 446.067L1667.12 446.058L1667.13 446.049L1666.4 445.36ZM1664.96 436.72L1665.76 437.32L1665.77 437.311L1664.96 436.72ZM1671.59 425.2L1672.49 425.633L1672.59 425.428V425.2H1671.59ZM1671.59 383.44H1672.59V382.44H1671.59V383.44ZM1646.24 384.88L1646.13 383.887L1646.12 383.888L1646.24 384.88ZM1634.15 386.32L1634.06 385.324L1633.48 385.377L1633.24 385.906L1634.15 386.32ZM1631.27 394.96L1632.24 395.214L1632.24 395.214L1631.27 394.96ZM1633.28 440.464L1634.13 439.931L1634.13 439.931L1633.28 440.464ZM1634.15 457.32C1617.19 457.32 1604.29 453.697 1595.31 446.592L1594.07 448.16C1603.53 455.647 1616.93 459.32 1634.15 459.32V457.32ZM1595.31 446.592C1586.33 439.477 1581.87 430.449 1581.87 419.44H1579.87C1579.87 431.087 1584.63 440.683 1594.07 448.16L1595.31 446.592ZM1581.87 419.44C1581.87 412.102 1583.47 404.849 1586.68 397.672L1584.85 396.856C1581.53 404.271 1579.87 411.802 1579.87 419.44H1581.87ZM1586.7 397.626C1588.01 394.249 1589.7 391.158 1591.76 388.351L1590.14 387.169C1587.98 390.122 1586.21 393.367 1584.83 396.902L1586.7 397.626ZM1591.19 388.732C1599.03 386.818 1607.55 385.095 1616.75 383.562L1616.42 381.59C1607.18 383.129 1598.61 384.862 1590.71 386.788L1591.19 388.732ZM1616.75 383.562C1637.45 380.111 1655.75 378.004 1671.64 377.239L1671.54 375.241C1655.56 376.012 1637.18 378.129 1616.42 381.59L1616.75 383.562ZM1672.59 376.24V367.6H1670.59V376.24H1672.59ZM1672.59 367.6C1672.59 356.908 1671.94 347.846 1670.63 340.426C1669.32 333.016 1667.35 327.183 1664.65 322.995L1662.97 324.077C1665.46 327.953 1667.38 333.496 1668.66 340.774C1669.94 348.042 1670.59 356.98 1670.59 367.6H1672.59ZM1664.65 322.995C1659.26 314.606 1650.95 310.44 1639.91 310.44V312.44C1650.37 312.44 1658 316.338 1662.97 324.077L1664.65 322.995ZM1639.91 310.44C1635.8 310.44 1632.23 310.928 1629.22 311.931L1629.86 313.829C1632.61 312.912 1635.95 312.44 1639.91 312.44V310.44ZM1629.2 311.938L1625.17 313.378L1625.85 315.262L1629.88 313.822L1629.2 311.938ZM1624.51 314.32V357.52H1626.51V314.32H1624.51ZM1625.28 356.546L1621.54 357.41L1621.99 359.358L1625.73 358.494L1625.28 356.546ZM1621.64 357.392C1618.59 357.773 1616.05 357.96 1613.99 357.96V359.96C1616.16 359.96 1618.79 359.763 1621.89 359.376L1621.64 357.392ZM1613.99 357.96C1607.67 357.96 1602.65 356.109 1598.84 352.476L1597.46 353.924C1601.71 357.971 1607.25 359.96 1613.99 359.96V357.96ZM1598.87 352.51C1595.24 348.696 1593.39 343.679 1593.39 337.36H1591.39C1591.39 344.097 1593.38 349.64 1597.42 353.89L1598.87 352.51ZM1593.39 337.36C1593.39 328.929 1597.58 321.72 1606.21 315.717L1605.07 314.075C1596.03 320.36 1591.39 328.127 1591.39 337.36H1593.39ZM1606.2 315.723C1614.98 309.742 1628.09 306.68 1645.67 306.68V304.68C1627.92 304.68 1614.34 307.762 1605.07 314.069L1606.2 315.723ZM1645.67 306.68C1660.53 306.68 1673.23 309.347 1683.81 314.638L1684.71 312.85C1673.79 307.389 1660.76 304.68 1645.67 304.68V306.68ZM1683.83 314.648C1694.62 319.756 1702.71 326.923 1708.17 336.141L1709.89 335.123C1704.21 325.525 1695.79 318.1 1684.69 312.84L1683.83 314.648ZM1708.18 336.162C1713.83 345.202 1716.67 355.67 1716.67 367.6H1718.67C1718.67 355.338 1715.75 344.494 1709.88 335.102L1708.18 336.162ZM1716.67 367.6V445.36H1718.67V367.6H1716.67ZM1717.43 446.33L1734.71 450.65L1735.19 448.71L1717.91 444.39L1717.43 446.33ZM1733.95 449.68V454H1735.95V449.68H1733.95ZM1734.95 453H1709.03V455H1734.95V453ZM1709.03 453C1697.73 453 1689.1 449.525 1682.99 442.678L1681.5 444.01C1688.06 451.371 1697.29 455 1709.03 455V453ZM1682.98 442.662C1680.4 439.901 1678.35 436.38 1676.85 432.071L1674.96 432.729C1676.54 437.252 1678.71 441.027 1681.51 444.026L1682.98 442.662ZM1675.04 431.911C1672.39 436.642 1669.27 440.894 1665.68 444.671L1667.13 446.049C1670.84 442.146 1674.05 437.758 1676.78 432.889L1675.04 431.911ZM1665.7 444.653C1657.26 453.095 1646.76 457.32 1634.15 457.32V459.32C1647.26 459.32 1658.27 454.905 1667.11 446.067L1665.7 444.653ZM1645.67 449.24C1653.19 449.24 1659.89 445.156 1665.76 437.32L1664.16 436.12C1658.52 443.644 1652.36 447.24 1645.67 447.24V449.24ZM1665.77 437.311C1667.93 434.364 1670.17 430.464 1672.49 425.633L1670.69 424.767C1668.4 429.536 1666.22 433.316 1664.16 436.129L1665.77 437.311ZM1672.59 425.2V383.44H1670.59V425.2H1672.59ZM1671.59 382.44C1662.72 382.44 1654.23 382.922 1646.13 383.887L1646.36 385.873C1654.38 384.918 1662.79 384.44 1671.59 384.44V382.44ZM1646.12 383.888C1640.16 384.657 1636.15 385.134 1634.06 385.324L1634.24 387.316C1636.37 387.122 1640.42 386.639 1646.37 385.872L1646.12 383.888ZM1633.24 385.906C1632.25 388.091 1631.27 391.032 1630.3 394.706L1632.24 395.214C1633.19 391.592 1634.13 388.773 1635.06 386.734L1633.24 385.906ZM1630.3 394.706C1628.36 402.079 1627.39 409.365 1627.39 416.56H1629.39C1629.39 409.547 1630.34 402.433 1632.24 395.214L1630.3 394.706ZM1627.39 416.56C1627.39 427.376 1629.02 435.573 1632.44 440.997L1634.13 439.931C1631.02 434.987 1629.39 427.248 1629.39 416.56H1627.39ZM1632.44 440.997C1635.84 446.395 1640.25 449.24 1645.67 449.24V447.24C1641.1 447.24 1637.26 444.901 1634.13 439.931L1632.44 440.997ZM1742.28 449.68L1742 448.722L1741.28 448.936V449.68H1742.28ZM1756.68 445.36L1756.97 446.318L1757.47 446.169L1757.63 445.676L1756.68 445.36ZM1768.2 410.8L1769.15 411.116L1768.2 410.8ZM1792.68 390.64L1792.41 389.678L1792.39 389.683L1792.38 389.687L1792.68 390.64ZM1811.4 387.76L1811.46 388.759L1812.4 388.707V387.76H1811.4ZM1811.4 386.32H1812.4V385.341L1811.43 385.32L1811.4 386.32ZM1785.48 381.712L1785.15 382.654L1785.16 382.659L1785.48 381.712ZM1777.13 321.232L1776.6 320.386L1776.59 320.389L1777.13 321.232ZM1910.76 310H1911.76V309H1910.76V310ZM1910.76 314.32L1911.01 315.29L1911.76 315.101V314.32H1910.76ZM1893.48 318.64L1893.24 317.67L1892.48 317.859V318.64H1893.48ZM1893.48 445.36H1892.48V446.141L1893.24 446.33L1893.48 445.36ZM1910.76 449.68H1911.76V448.899L1911.01 448.71L1910.76 449.68ZM1910.76 454V455H1911.76V454H1910.76ZM1830.12 454H1829.12V455H1830.12V454ZM1830.12 449.68L1829.88 448.71L1829.12 448.899V449.68H1830.12ZM1847.4 445.36L1847.65 446.33L1848.4 446.141V445.36H1847.4ZM1847.4 390.64H1848.4V389.64H1847.4V390.64ZM1824.36 390.64V389.64H1823.63L1823.41 390.334L1824.36 390.64ZM1811.4 430.96L1812.35 431.276L1812.36 431.266L1811.4 430.96ZM1799.02 447.376L1799.62 448.179L1799.62 448.176L1799.02 447.376ZM1742.28 454H1741.28V455H1742.28V454ZM1847.4 383.44V384.44H1848.4V383.44H1847.4ZM1847.4 317.2H1848.4V316.2H1847.4V317.2ZM1814.57 325.84L1815.32 326.508L1815.32 326.501L1815.33 326.495L1814.57 325.84ZM1814.57 375.088L1813.82 375.743L1813.82 375.749L1813.83 375.756L1814.57 375.088ZM1742.57 450.638L1756.97 446.318L1756.4 444.402L1742 448.722L1742.57 450.638ZM1757.63 445.676L1769.15 411.116L1767.26 410.484L1755.74 445.044L1757.63 445.676ZM1769.15 411.116C1772.08 402.319 1779.9 395.764 1792.99 391.593L1792.38 389.687C1778.97 393.964 1770.47 400.849 1767.26 410.484L1769.15 411.116ZM1792.96 391.602C1798.25 390.091 1804.41 389.14 1811.46 388.759L1811.35 386.761C1804.19 387.148 1797.87 388.117 1792.41 389.678L1792.96 391.602ZM1812.4 387.76V386.32H1810.4V387.76H1812.4ZM1811.43 385.32C1802.7 385.13 1794.16 383.613 1785.81 380.765L1785.16 382.659C1793.71 385.571 1802.45 387.126 1811.38 387.32L1811.43 385.32ZM1785.82 380.77C1777.29 377.738 1770.99 373.671 1766.81 368.619C1762.66 363.583 1760.56 357.502 1760.56 350.32H1758.56C1758.56 357.922 1760.79 364.465 1765.27 369.893C1769.74 375.305 1776.4 379.542 1785.15 382.654L1785.82 380.77ZM1760.56 350.32C1760.56 338.819 1766.19 329.415 1777.67 322.075L1776.59 320.389C1764.65 328.025 1758.56 338.013 1758.56 350.32H1760.56ZM1777.66 322.078C1789.32 314.745 1808.19 311 1834.44 311V309C1808.09 309 1788.75 312.743 1776.6 320.386L1777.66 322.078ZM1834.44 311H1910.76V309H1834.44V311ZM1909.76 310V314.32H1911.76V310H1909.76ZM1910.52 313.35L1893.24 317.67L1893.73 319.61L1911.01 315.29L1910.52 313.35ZM1892.48 318.64V445.36H1894.48V318.64H1892.48ZM1893.24 446.33L1910.52 450.65L1911.01 448.71L1893.73 444.39L1893.24 446.33ZM1909.76 449.68V454H1911.76V449.68H1909.76ZM1910.76 453H1830.12V455H1910.76V453ZM1831.12 454V449.68H1829.12V454H1831.12ZM1830.37 450.65L1847.65 446.33L1847.16 444.39L1829.88 448.71L1830.37 450.65ZM1848.4 445.36V390.64H1846.4V445.36H1848.4ZM1847.4 389.64H1824.36V391.64H1847.4V389.64ZM1823.41 390.334L1810.45 430.654L1812.36 431.266L1825.32 390.946L1823.41 390.334ZM1810.46 430.644C1808.42 436.759 1804.43 442.071 1798.42 446.576L1799.62 448.176C1805.9 443.465 1810.17 437.833 1812.35 431.276L1810.46 430.644ZM1798.42 446.573C1792.68 450.838 1785.5 453 1776.84 453V455C1785.85 455 1793.46 452.746 1799.62 448.179L1798.42 446.573ZM1776.84 453H1742.28V455H1776.84V453ZM1743.28 454V449.68H1741.28V454H1743.28ZM1848.4 383.44V317.2H1846.4V383.44H1848.4ZM1847.4 316.2H1834.44V318.2H1847.4V316.2ZM1834.44 316.2C1825.92 316.2 1819.02 319.186 1813.82 325.185L1815.33 326.495C1820.11 320.974 1826.45 318.2 1834.44 318.2V316.2ZM1813.83 325.172C1808.61 330.99 1806.08 339.428 1806.08 350.32H1808.08C1808.08 339.708 1810.55 331.826 1815.32 326.508L1813.83 325.172ZM1806.08 350.32C1806.08 361.215 1808.61 369.739 1813.82 375.743L1815.33 374.433C1810.55 368.917 1808.08 360.929 1808.08 350.32H1806.08ZM1813.83 375.756C1819.03 381.559 1825.94 384.44 1834.44 384.44V382.44C1826.44 382.44 1820.1 379.753 1815.32 374.42L1813.83 375.756ZM1834.44 384.44H1847.4V382.44H1834.44V384.44ZM2034.94 438.16L2034.23 438.867L2034.23 438.872L2034.94 438.16ZM2034.94 326.128L2035.64 326.84L2035.64 326.835L2034.94 326.128ZM2131.99 314.896L2131.42 315.717L2131.43 315.723L2131.99 314.896ZM2115.86 358.384L2115.62 359.354L2115.67 359.367L2115.72 359.374L2115.86 358.384ZM2112.41 357.52H2111.41V358.301L2112.17 358.49L2112.41 357.52ZM2112.41 314.32H2113.41V313.615L2112.75 313.378L2112.41 314.32ZM2108.38 312.88L2108.71 311.938L2108.7 311.935L2108.69 311.931L2108.38 312.88ZM2072.38 326.992L2071.52 326.482L2071.51 326.494L2072.38 326.992ZM2072.38 435.856L2071.51 436.354L2071.51 436.363L2071.52 436.373L2072.38 435.856ZM2118.74 445.936L2119.22 446.814L2119.23 446.809L2118.74 445.936ZM2134.01 431.824L2133.17 431.282L2133.16 431.289L2134.01 431.824ZM2139.77 413.68V412.68H2138.77V413.68H2139.77ZM2146.97 413.68H2147.97V412.68H2146.97V413.68ZM2140.06 435.568L2139.22 435.013L2139.22 435.013L2140.06 435.568ZM2120.76 452.272L2121.2 453.171L2121.21 453.166L2121.22 453.162L2120.76 452.272ZM2092.25 457.32C2067.86 457.32 2049.03 450.655 2035.64 437.448L2034.23 438.872C2048.1 452.545 2067.49 459.32 2092.25 459.32V457.32ZM2035.64 437.453C2022.24 424.05 2015.49 405.609 2015.49 382H2013.49C2013.49 406.007 2020.37 425.006 2034.23 438.867L2035.64 437.453ZM2015.49 382C2015.49 358.391 2022.24 340.049 2035.64 326.84L2034.23 325.416C2020.37 339.087 2013.49 357.993 2013.49 382H2015.49ZM2035.64 326.835C2049.04 313.439 2067.86 306.68 2092.25 306.68V304.68C2067.48 304.68 2048.1 311.553 2034.23 325.421L2035.64 326.835ZM2092.25 306.68C2109.83 306.68 2122.83 309.743 2131.42 315.717L2132.56 314.075C2123.49 307.761 2110 304.68 2092.25 304.68V306.68ZM2131.43 315.723C2140.25 321.73 2144.53 328.939 2144.53 337.36H2146.53C2146.53 328.117 2141.78 320.35 2132.56 314.069L2131.43 315.723ZM2144.53 337.36C2144.53 343.664 2142.59 348.676 2138.77 352.493L2140.19 353.907C2144.43 349.66 2146.53 344.111 2146.53 337.36H2144.53ZM2138.77 352.493C2135.16 356.108 2130.25 357.96 2123.93 357.96V359.96C2130.66 359.96 2136.12 357.972 2140.19 353.907L2138.77 352.493ZM2123.93 357.96C2121.29 357.96 2118.65 357.771 2116.01 357.394L2115.72 359.374C2118.46 359.765 2121.19 359.96 2123.93 359.96V357.96ZM2116.11 357.414L2112.65 356.55L2112.17 358.49L2115.62 359.354L2116.11 357.414ZM2113.41 357.52V314.32H2111.41V357.52H2113.41ZM2112.75 313.378L2108.71 311.938L2108.04 313.822L2112.07 315.262L2112.75 313.378ZM2108.69 311.931C2105.68 310.928 2102.12 310.44 2098.01 310.44V312.44C2101.97 312.44 2105.31 312.912 2108.06 313.829L2108.69 311.931ZM2098.01 310.44C2086.67 310.44 2077.82 315.847 2071.52 326.482L2073.24 327.502C2079.22 317.401 2087.46 312.44 2098.01 312.44V310.44ZM2071.51 326.494C2065.41 337.11 2062.45 355.684 2062.45 382H2064.45C2064.45 355.708 2067.43 337.61 2073.24 327.49L2071.51 326.494ZM2062.45 382C2062.45 407.554 2065.42 425.74 2071.51 436.354L2073.24 435.358C2067.43 425.236 2064.45 407.518 2064.45 382H2062.45ZM2071.52 436.373C2077.83 446.818 2086.68 452.12 2098.01 452.12V450.12C2087.45 450.12 2079.21 445.246 2073.23 435.339L2071.52 436.373ZM2098.01 452.12C2105.66 452.12 2112.74 450.353 2119.22 446.814L2118.27 445.058C2112.08 448.431 2105.34 450.12 2098.01 450.12V452.12ZM2119.23 446.809C2125.89 443.088 2131.11 438.273 2134.85 432.359L2133.16 431.289C2129.61 436.895 2124.65 441.488 2118.26 445.063L2119.23 446.809ZM2134.85 432.366C2138.78 426.278 2140.77 420.044 2140.77 413.68H2138.77C2138.77 419.604 2136.92 425.466 2133.17 431.282L2134.85 432.366ZM2139.77 414.68H2146.97V412.68H2139.77V414.68ZM2145.97 413.68C2145.97 421.146 2143.73 428.252 2139.22 435.013L2140.89 436.123C2145.6 429.06 2147.97 421.574 2147.97 413.68H2145.97ZM2139.22 435.013C2134.72 441.767 2128.43 447.226 2120.31 451.382L2121.22 453.162C2129.61 448.87 2136.18 443.193 2140.89 436.123L2139.22 435.013ZM2120.32 451.373C2112.22 455.328 2102.87 457.32 2092.25 457.32V459.32C2103.13 459.32 2112.79 457.28 2121.2 453.171L2120.32 451.373ZM2184.84 438.16L2184.14 438.867L2184.14 438.872L2184.84 438.16ZM2173.32 341.392L2172.43 340.933L2172.43 340.933L2173.32 341.392ZM2198.09 314.896L2197.59 314.028L2197.59 314.032L2198.09 314.896ZM2271.24 313.456L2270.8 314.35L2270.8 314.354L2271.24 313.456ZM2295.44 334.48L2294.59 335.013L2294.6 335.024L2294.6 335.035L2295.44 334.48ZM2302.64 375.664L2303.59 375.946L2303.6 375.939L2303.6 375.932L2302.64 375.664ZM2301.2 380.56L2301.4 381.539L2301.99 381.416L2302.15 380.842L2301.2 380.56ZM2274.41 384.88L2274.29 383.887L2274.28 383.888L2274.27 383.89L2274.41 384.88ZM2213.36 389.2V388.2H2212.36V389.2H2213.36ZM2222.57 437.008L2221.73 437.547L2221.73 437.555L2222.57 437.008ZM2268.65 445.936L2269.13 446.814L2269.14 446.809L2268.65 445.936ZM2283.92 431.824L2283.07 431.282L2283.07 431.289L2283.92 431.824ZM2289.68 413.68V412.68H2288.68V413.68H2289.68ZM2296.88 413.68H2297.88V412.68H2296.88V413.68ZM2289.96 435.568L2289.13 435.013L2289.13 435.013L2289.96 435.568ZM2270.67 452.272L2271.11 453.171L2271.11 453.166L2271.12 453.162L2270.67 452.272ZM2213.36 382H2212.36V383H2213.36V382ZM2243.31 380.56L2243.25 379.562L2243.22 379.564L2243.18 379.568L2243.31 380.56ZM2253.68 379.12L2253.88 380.099L2254.53 379.963L2254.66 379.316L2253.68 379.12ZM2255.12 372.784L2256.09 373.013L2256.09 372.997L2256.1 372.98L2255.12 372.784ZM2250.22 322.672L2249.35 323.163L2249.35 323.173L2250.22 322.672ZM2242.16 457.32C2217.76 457.32 2198.94 450.655 2185.55 437.448L2184.14 438.872C2198.01 452.545 2217.39 459.32 2242.16 459.32V457.32ZM2185.55 437.453C2172.15 424.05 2165.4 405.609 2165.4 382H2163.4C2163.4 406.007 2170.27 425.006 2184.14 438.867L2185.55 437.453ZM2165.4 382C2165.4 366.576 2168.35 353.203 2174.21 341.851L2172.43 340.933C2166.4 352.621 2163.4 366.32 2163.4 382H2165.4ZM2174.21 341.851C2180.08 330.489 2188.21 321.803 2198.59 315.76L2197.59 314.032C2186.85 320.277 2178.47 329.255 2172.43 340.933L2174.21 341.851ZM2198.59 315.764C2209.17 309.716 2221.28 306.68 2234.96 306.68V304.68C2220.98 304.68 2208.51 307.788 2197.59 314.028L2198.59 315.764ZM2234.96 306.68C2248.65 306.68 2260.59 309.248 2270.8 314.35L2271.69 312.562C2261.16 307.296 2248.9 304.68 2234.96 304.68V306.68ZM2270.8 314.354C2281.22 319.467 2289.13 326.357 2294.59 335.013L2296.28 333.947C2290.6 324.939 2282.39 317.813 2271.68 312.558L2270.8 314.354ZM2294.6 335.035C2300.25 343.507 2303.08 352.914 2303.08 363.28H2305.08C2305.08 352.526 2302.14 342.733 2296.27 333.925L2294.6 335.035ZM2303.08 363.28C2303.08 368.018 2302.6 372.051 2301.67 375.396L2303.6 375.932C2304.59 372.365 2305.08 368.142 2305.08 363.28H2303.08ZM2301.68 375.382L2300.24 380.278L2302.15 380.842L2303.59 375.946L2301.68 375.382ZM2300.99 379.581C2292.77 381.302 2283.87 382.738 2274.29 383.887L2274.53 385.873C2284.15 384.718 2293.11 383.274 2301.4 381.539L2300.99 379.581ZM2274.27 383.89C2254.16 386.763 2233.85 388.2 2213.36 388.2V390.2C2233.95 390.2 2254.35 388.757 2274.55 385.87L2274.27 383.89ZM2212.36 389.2C2212.36 411.511 2215.42 427.694 2221.73 437.547L2223.41 436.469C2217.43 427.122 2214.36 411.433 2214.36 389.2H2212.36ZM2221.73 437.555C2228.05 447.23 2236.81 452.12 2247.92 452.12V450.12C2237.52 450.12 2229.38 445.602 2223.41 436.461L2221.73 437.555ZM2247.92 452.12C2255.56 452.12 2262.64 450.353 2269.13 446.814L2268.17 445.058C2261.99 448.431 2255.24 450.12 2247.92 450.12V452.12ZM2269.14 446.809C2275.8 443.088 2281.01 438.273 2284.76 432.359L2283.07 431.289C2279.52 436.895 2274.56 441.488 2268.16 445.063L2269.14 446.809ZM2284.76 432.366C2288.68 426.278 2290.68 420.044 2290.68 413.68H2288.68C2288.68 419.604 2286.83 425.466 2283.07 431.282L2284.76 432.366ZM2289.68 414.68H2296.88V412.68H2289.68V414.68ZM2295.88 413.68C2295.88 421.146 2293.64 428.252 2289.13 435.013L2290.8 436.123C2295.5 429.06 2297.88 421.574 2297.88 413.68H2295.88ZM2289.13 435.013C2284.63 441.767 2278.33 447.226 2270.21 451.382L2271.12 453.162C2279.51 448.87 2286.08 443.193 2290.8 436.123L2289.13 435.013ZM2270.23 451.373C2262.13 455.328 2252.78 457.32 2242.16 457.32V459.32C2253.03 459.32 2262.69 457.28 2271.11 453.171L2270.23 451.373ZM2213.36 383C2225.66 383 2235.69 382.519 2243.43 381.552L2243.18 379.568C2235.56 380.521 2225.62 381 2213.36 381V383ZM2243.37 381.558C2246.69 381.363 2250.19 380.875 2253.88 380.099L2253.47 378.141C2249.86 378.901 2246.46 379.373 2243.25 379.562L2243.37 381.558ZM2254.66 379.316C2254.84 378.376 2255.32 376.281 2256.09 373.013L2254.14 372.555C2253.37 375.815 2252.89 377.944 2252.69 378.924L2254.66 379.316ZM2256.1 372.98C2257.07 368.11 2257.56 362.955 2257.56 357.52H2255.56C2255.56 362.837 2255.08 367.858 2254.13 372.588L2256.1 372.98ZM2257.56 357.52C2257.56 341.539 2255.44 329.703 2251.08 322.171L2249.35 323.173C2253.44 330.233 2255.56 341.629 2255.56 357.52H2257.56ZM2251.09 322.181C2246.78 314.533 2241.42 310.44 2234.96 310.44V312.44C2240.4 312.44 2245.21 315.835 2249.35 323.163L2251.09 322.181ZM2234.96 310.44C2227.04 310.44 2221.42 316.947 2217.8 328.787C2214.15 340.693 2212.36 358.454 2212.36 382H2214.36C2214.36 358.506 2216.16 340.987 2219.71 329.373C2223.29 317.693 2228.47 312.44 2234.96 312.44V310.44ZM2352.91 449.68L2352.67 448.71L2351.91 448.899V449.68H2352.91ZM2370.19 445.36L2370.43 446.33L2371.19 446.141V445.36H2370.19ZM2370.19 317.2H2371.19V316.2H2370.19V317.2ZM2348.59 317.2V316.2H2347.59V317.2H2348.59ZM2339.09 349.168L2339.94 349.694L2339.94 349.685L2339.95 349.676L2339.09 349.168ZM2329.87 360.4V361.4H2330.27L2330.56 361.126L2329.87 360.4ZM2321.23 360.4H2320.23V361.4H2321.23V360.4ZM2321.23 310V309H2320.23V310H2321.23ZM2465.23 310H2466.23V309H2465.23V310ZM2465.23 360.4V361.4H2466.23V360.4H2465.23ZM2456.59 360.4L2455.92 361.145L2456.21 361.4H2456.59V360.4ZM2447.09 349.168L2446.23 349.678L2446.24 349.691L2446.24 349.705L2447.09 349.168ZM2437.87 317.2H2438.87V316.2H2437.87V317.2ZM2416.27 317.2V316.2H2415.27V317.2H2416.27ZM2416.27 445.36H2415.27V446.141L2416.03 446.33L2416.27 445.36ZM2433.55 449.68H2434.55V448.899L2433.79 448.71L2433.55 449.68ZM2433.55 454V455H2434.55V454H2433.55ZM2352.91 454H2351.91V455H2352.91V454ZM2353.15 450.65L2370.43 446.33L2369.95 444.39L2352.67 448.71L2353.15 450.65ZM2371.19 445.36V317.2H2369.19V445.36H2371.19ZM2370.19 316.2H2348.59V318.2H2370.19V316.2ZM2347.59 317.2C2347.59 327.551 2344.49 338.034 2338.23 348.66L2339.95 349.676C2346.36 338.798 2349.59 327.969 2349.59 317.2H2347.59ZM2338.24 348.642C2335.79 352.596 2332.77 356.274 2329.18 359.674L2330.56 361.126C2334.27 357.614 2337.39 353.804 2339.94 349.694L2338.24 348.642ZM2329.87 359.4H2321.23V361.4H2329.87V359.4ZM2322.23 360.4V310H2320.23V360.4H2322.23ZM2321.23 311H2465.23V309H2321.23V311ZM2464.23 310V360.4H2466.23V310H2464.23ZM2465.23 359.4H2456.59V361.4H2465.23V359.4ZM2457.26 359.655C2453.68 356.453 2450.57 352.78 2447.93 348.631L2446.24 349.705C2448.98 354.004 2452.21 357.819 2455.92 361.145L2457.26 359.655ZM2447.95 348.658C2441.89 338.428 2438.87 327.947 2438.87 317.2H2436.87C2436.87 328.341 2440 339.172 2446.23 349.678L2447.95 348.658ZM2437.87 316.2H2416.27V318.2H2437.87V316.2ZM2415.27 317.2V445.36H2417.27V317.2H2415.27ZM2416.03 446.33L2433.31 450.65L2433.79 448.71L2416.51 444.39L2416.03 446.33ZM2432.55 449.68V454H2434.55V449.68H2432.55ZM2433.55 453H2352.91V455H2433.55V453ZM2353.91 454V449.68H2351.91V454H2353.91ZM2483.9 449.68L2483.65 448.71L2482.9 448.899V449.68H2483.9ZM2501.18 445.36L2501.42 446.33L2502.18 446.141V445.36H2501.18ZM2501.18 318.64H2502.18V317.859L2501.42 317.67L2501.18 318.64ZM2483.9 314.32H2482.9V315.101L2483.65 315.29L2483.9 314.32ZM2483.9 310V309H2482.9V310H2483.9ZM2564.54 310H2565.54V309H2564.54V310ZM2564.54 314.32L2564.78 315.29L2565.54 315.101V314.32H2564.54ZM2547.26 318.64L2547.01 317.67L2546.26 317.859V318.64H2547.26ZM2547.26 367.6H2546.26V368.6H2547.26V367.6ZM2483.9 454H2482.9V455H2483.9V454ZM2581.53 437.872L2580.75 437.241L2580.75 437.244L2581.53 437.872ZM2581.53 384.016L2580.74 384.632L2580.75 384.645L2580.76 384.659L2581.53 384.016ZM2547.26 374.8V373.8H2546.26V374.8H2547.26ZM2547.26 446.8H2546.26V447.8H2547.26V446.8ZM2484.14 450.65L2501.42 446.33L2500.93 444.39L2483.65 448.71L2484.14 450.65ZM2502.18 445.36V318.64H2500.18V445.36H2502.18ZM2501.42 317.67L2484.14 313.35L2483.65 315.29L2500.93 319.61L2501.42 317.67ZM2484.9 314.32V310H2482.9V314.32H2484.9ZM2483.9 311H2564.54V309H2483.9V311ZM2563.54 310V314.32H2565.54V310H2563.54ZM2564.29 313.35L2547.01 317.67L2547.5 319.61L2564.78 315.29L2564.29 313.35ZM2546.26 318.64V367.6H2548.26V318.64H2546.26ZM2547.26 368.6H2561.66V366.6H2547.26V368.6ZM2561.66 368.6C2586.55 368.6 2605.06 372.197 2617.32 379.266C2629.49 386.288 2635.54 396.758 2635.54 410.8H2637.54C2637.54 396.042 2631.1 384.912 2618.31 377.534C2605.61 370.203 2586.68 366.6 2561.66 366.6V368.6ZM2635.54 410.8C2635.54 424.842 2629.49 435.312 2617.32 442.334C2605.06 449.403 2586.55 453 2561.66 453V455C2586.68 455 2605.61 451.397 2618.31 444.066C2631.1 436.688 2637.54 425.558 2637.54 410.8H2635.54ZM2561.66 453H2483.9V455H2561.66V453ZM2484.9 454V449.68H2482.9V454H2484.9ZM2561.66 447.8C2570.37 447.8 2577.29 444.714 2582.31 438.5L2580.75 437.244C2576.16 442.934 2569.84 445.8 2561.66 445.8V447.8ZM2582.3 438.503C2587.5 432.11 2590.02 422.823 2590.02 410.8H2588.02C2588.02 422.585 2585.54 431.346 2580.75 437.241L2582.3 438.503ZM2590.02 410.8C2590.02 398.781 2587.5 389.58 2582.29 383.373L2580.76 384.659C2585.54 390.356 2588.02 399.011 2588.02 410.8H2590.02ZM2582.32 383.4C2577.31 376.991 2570.38 373.8 2561.66 373.8V375.8C2569.82 375.8 2576.15 378.753 2580.74 384.632L2582.32 383.4ZM2561.66 373.8H2547.26V375.8H2561.66V373.8ZM2546.26 374.8V446.8H2548.26V374.8H2546.26ZM2547.26 447.8H2561.66V445.8H2547.26V447.8Z" fill="white" fill-opacity="0.12"></path> </svg> 