<?xml version="1.0" encoding="UTF-8"?> <svg xmlns="http://www.w3.org/2000/svg" width="44" height="55" viewBox="0 0 44 55" fill="none"> <mask id="path-1-inside-1" fill="white"> <path d="M22 44C9.84974 44 2.32194e-06 34.1503 2.85305e-06 22C3.38415e-06 9.84973 9.84974 -1.49276e-06 22 -9.6165e-07C34.1503 -4.30546e-07 44 9.84974 44 22C44 34.1503 34.1503 44 22 44ZM22 6.76823C13.5877 6.76823 6.76823 13.5877 6.76823 22C6.76823 30.4123 13.5877 37.2318 22 37.2318C30.4123 37.2318 37.2318 30.4123 37.2318 22C37.2318 13.5877 30.4123 6.76823 22 6.76823Z"></path> </mask> <path d="M22 44C9.84974 44 2.32194e-06 34.1503 2.85305e-06 22C3.38415e-06 9.84973 9.84974 -1.49276e-06 22 -9.6165e-07C34.1503 -4.30546e-07 44 9.84974 44 22C44 34.1503 34.1503 44 22 44ZM22 6.76823C13.5877 6.76823 6.76823 13.5877 6.76823 22C6.76823 30.4123 13.5877 37.2318 22 37.2318C30.4123 37.2318 37.2318 30.4123 37.2318 22C37.2318 13.5877 30.4123 6.76823 22 6.76823Z" stroke="#2B4362" stroke-width="20" mask="url(#path-1-inside-1)"></path> <rect x="3" y="49" width="39" height="6" fill="#D5484C"></rect> </svg> 