<?xml version="1.0" encoding="UTF-8"?> <svg xmlns="http://www.w3.org/2000/svg" width="36" height="36" viewBox="0 0 36 36" fill="none"> <path d="M18 4.5C10.575 4.5 4.5 10.575 4.5 18C4.5 25.425 10.575 31.5 18 31.5C25.425 31.5 31.5 25.425 31.5 18C31.5 10.575 25.425 4.5 18 4.5ZM18 7.5C20.325 7.5 22.5 8.325 24.3 9.6L9.6 24.3C8.325 22.5 7.5 20.325 7.5 18C7.5 12.225 12.225 7.5 18 7.5ZM18 28.5C15.675 28.5 13.5 27.675 11.7 26.4L26.4 11.7C27.675 13.5 28.5 15.675 28.5 18C28.5 23.775 23.775 28.5 18 28.5Z" fill="#D5484C"></path> </svg> 