<?xml version="1.0" encoding="UTF-8"?> <svg xmlns="http://www.w3.org/2000/svg" width="110" height="110" viewBox="0 0 110 110" fill="none"> <g filter="url(#filter0_d)"> <circle cx="59" cy="56" r="38" fill="white"></circle> </g> <g clip-path="url(#clip0)"> <path fill-rule="evenodd" clip-rule="evenodd" d="M50.0649 72.5932L43.8349 69.0008L43.7279 68.8938L43.6209 68.7869L43.5352 68.68L43.4282 68.5517L43.364 68.4234L43.2783 68.2737L43.2141 68.124L43.1713 67.953L43.107 67.7819L43.0856 67.6108L43.0428 67.4184L43.0214 67.2259L43 67.0121V66.7982V66.5844L43.0214 66.3706L43.0428 66.1354L43.0856 65.9215L43.107 65.6863L43.1713 65.4725L43.2141 65.2372L43.2783 65.002L43.364 64.7882L43.4282 64.553L43.5352 64.3391L43.6209 64.1039L43.7279 63.8901L43.8349 63.6762L43.942 63.441L44.0704 63.2272L44.1989 63.0133L44.3273 62.8209L44.4558 62.6071L44.6057 62.4146L44.7555 62.2221L44.9054 62.0297L45.0552 61.8586L45.2265 61.6662L45.3764 61.4951L45.5477 61.3454L45.7189 61.1743L45.8902 61.0247L46.0829 60.8964L46.2541 60.7681L46.4468 60.6398L46.6395 60.5328L46.8108 60.4259L47.0035 60.3404L47.1747 60.2549L47.3674 60.1907L47.5387 60.1266L47.7099 60.1052L47.8812 60.0624L48.0311 60.041H48.2023H48.3522H48.5235L48.6519 60.0838L48.8018 60.1052L48.9302 60.1479L49.0587 60.2121L49.1872 60.2762L49.3156 60.3404L49.4227 60.4473L55.674 64.0398L55.5456 63.9542L55.4385 63.8687L55.3101 63.8045L55.1816 63.7404L55.0318 63.6976L54.9033 63.6762L54.7535 63.6549L54.6036 63.6335H54.4323H54.2825L54.1112 63.6549L53.9399 63.6976L53.7686 63.7404L53.5974 63.7832L53.4261 63.8473L53.2334 63.9328L53.0622 64.0184L52.8695 64.1253L52.6768 64.2322L52.4841 64.3605L52.3128 64.4888L52.1416 64.6385L51.9489 64.7882L51.7776 64.9379L51.6278 65.1089L51.4565 65.2586L51.2852 65.4511L51.1354 65.6221L50.9855 65.8146L50.8356 66.0071L50.6858 66.1995L50.5573 66.4133L50.4289 66.6272L50.3004 66.841L50.172 67.0549L50.0649 67.2687L49.9579 67.4825L49.8508 67.6964L49.7652 67.9316L49.6796 68.1454L49.5939 68.3806L49.5297 68.6159L49.4655 68.8297L49.4012 69.0649L49.3584 69.3001L49.3156 69.514L49.2728 69.7492L49.2514 69.963V70.1769L49.23 70.4121L49.2514 70.6259V70.8184L49.2728 71.0108L49.3156 71.2033L49.3584 71.3743L49.4012 71.5454L49.4655 71.7165L49.5297 71.8662L49.5939 72.0159L49.6796 72.1442L49.7652 72.2725L49.8508 72.3794L49.9579 72.4863L50.0649 72.5932Z" fill="#2D65AE"></path> <path fill-rule="evenodd" clip-rule="evenodd" d="M69.9108 62.137L63.6808 58.5446L63.6166 58.4804L63.5524 58.3949L63.4881 58.3093L63.4239 58.2024L63.4025 58.0955L63.3811 57.9672L63.3597 57.8175L63.2741 56.7483L63.1456 55.7433L62.9957 54.7596L62.7816 53.8188L62.5247 52.942L62.2464 52.0867L61.9253 51.2741L61.5613 50.5043L61.1546 49.7986L60.7264 49.1144L60.2554 48.4942L59.7416 47.9169L59.2064 47.3609L58.6497 46.8905L58.0503 46.4414L64.2803 50.0339L64.8797 50.4829L65.4363 50.9747L65.9716 51.5093L66.4854 52.0867L66.9564 52.7068L67.3845 53.3911L67.7913 54.1181L68.1553 54.8666L68.4764 55.6791L68.7761 56.5345L69.0116 57.4326L69.2257 58.3521L69.397 59.3357L69.504 60.3622L69.5897 61.41L69.6111 61.5596L69.6325 61.6879L69.6753 61.7949L69.7181 61.9018L69.7823 62.0087L69.8466 62.0729L69.9108 62.137Z" fill="#2D65AE"></path> <path fill-rule="evenodd" clip-rule="evenodd" d="M49.5725 59.3789L43.3425 55.7864L43.2783 55.7223L43.1927 55.6581L43.1499 55.5726L43.0856 55.4657L43.0428 55.3588L43.0214 55.2305L43 55.1022V54.9525V52.921V52.8355V52.75L43.0214 52.6644V52.5789L43.0428 52.4933L43.0642 52.4078L43.0856 52.3223L43.107 52.2367L43.1285 52.1512L43.1713 52.0657L43.2141 51.9801L43.2355 51.8946L43.2783 51.8091L43.3211 51.7235L43.3854 51.638L43.4282 51.5525L43.5352 51.3814L43.6423 51.2103L43.7707 51.082L43.8992 50.9537L44.0276 50.8254L44.1561 50.7399L44.2845 50.633L44.4344 50.5688L45.2051 50.2053L45.9758 49.9059L46.7251 49.6493L47.453 49.4355L48.1809 49.2644L48.8874 49.1361L49.5725 49.0506L50.2576 49.0078H50.9213L51.5635 49.0506L52.2058 49.1147L52.8052 49.243L53.4047 49.4141L53.9827 49.6066L54.518 49.8418L55.0532 50.1411L55.567 50.4405L56.0594 50.804L62.2894 54.3965L61.797 54.0544L61.3046 53.7336L60.7693 53.4556L60.2127 53.199L59.6347 53.0066L59.0566 52.8355L58.4358 52.7286L57.8149 52.643L57.1727 52.6003H56.4876L55.8239 52.643L55.1174 52.7286L54.4109 52.8569L53.683 53.0279L52.9551 53.2418L52.2058 53.4984L51.4351 53.8191L50.6644 54.1613L50.5359 54.2468L50.3861 54.3323L50.2576 54.4179L50.1291 54.5462L50.0007 54.6745L49.8936 54.8242L49.7652 54.9739L49.6581 55.1449L49.6153 55.2305L49.5725 55.316L49.5297 55.4015L49.4869 55.4871L49.4441 55.5726L49.4012 55.6581L49.3798 55.7437L49.337 55.8292L49.3156 55.9147L49.2942 56.0003L49.2728 56.0858V56.1713L49.2514 56.2569V56.3424L49.23 56.4279V56.5135V58.5449L49.2514 58.6946V58.8229L49.2942 58.9512L49.337 59.0581L49.3798 59.165L49.4441 59.2506L49.5083 59.3147L49.5725 59.3789Z" fill="#2D65AE"></path> <path fill-rule="evenodd" clip-rule="evenodd" d="M62.1608 66.6492L55.9308 63.0353L55.8452 62.9712L55.781 62.907L55.7167 62.8215L55.6739 62.7146L55.6311 62.6077L55.6097 62.4793L55.5883 62.351L55.5241 61.7309L55.4384 61.1536L55.31 60.5976L55.1815 60.0416L55.0317 59.5284L54.839 59.0366L54.6463 58.5661L54.4108 58.1385L54.1753 57.7108L53.897 57.3259L53.6187 56.9624L53.3189 56.6202L52.9978 56.2995L52.6553 56.0215L58.9067 59.6139L59.2278 59.9133L59.5703 60.2127L59.8701 60.5548L60.1484 60.9183L60.4053 61.3246L60.6408 61.7309L60.8763 62.18L61.0689 62.629L61.2616 63.1422L61.4115 63.6554L61.5614 64.19L61.6684 64.746L61.754 65.3448L61.8183 65.9435L61.8397 66.0718L61.8611 66.2001L61.9039 66.307L61.9681 66.4139L62.0109 66.4995L62.0966 66.585L62.1608 66.6492Z" fill="#2D65AE"></path> <path fill-rule="evenodd" clip-rule="evenodd" d="M49.5939 50.4189L43.364 46.8264L43.2783 46.7623L43.2141 46.6981L43.1499 46.6126L43.0856 46.5057L43.0642 46.3987L43.0214 46.2704L43 46.1421V45.9925V43.961V43.8755V43.7899L43.0214 43.7044V43.6189L43.0428 43.5333L43.0642 43.4478L43.0856 43.3623L43.107 43.2767L43.1285 43.2126L43.1713 43.127L43.1927 43.0415L43.2355 42.956L43.2783 42.8704L43.3211 42.7849L43.364 42.6994L43.4068 42.6138L43.5138 42.4428L43.6209 42.2931L43.7493 42.1434L43.8778 42.0151L44.0062 41.8868L44.1347 41.7799L44.2631 41.6943L44.3916 41.6302L45.5691 41.0528L46.7251 40.561L47.8598 40.1333L48.9945 39.7698L50.0863 39.4704L51.1782 39.2566L52.2272 39.1069L53.2548 39.0214L54.261 39L55.2459 39.0428L56.2093 39.1497L57.1512 39.3208L58.029 39.556L58.9068 39.8553L59.7417 40.2189L60.5338 40.6465L61.3046 41.1384L67.5345 44.7308L66.7852 44.239L65.9717 43.8113L65.1367 43.4692L64.2804 43.1698L63.3812 42.9346L62.4392 42.7421L61.4972 42.6352L60.5124 42.5925L59.5062 42.6138L58.4572 42.6994L57.4081 42.8491L56.3163 43.0843L55.2244 43.3623L54.1112 43.7258L52.9765 44.1535L51.799 44.6453L50.643 45.2226L50.4931 45.2868L50.3646 45.3937L50.2362 45.5006L50.1077 45.6075L49.9793 45.7359L49.8722 45.8855L49.7652 46.0352L49.6581 46.2063L49.5939 46.2918L49.5511 46.3774L49.5083 46.4629L49.4655 46.5484L49.4227 46.634L49.4012 46.7195L49.3798 46.805L49.337 46.8906L49.3156 46.9761L49.2942 47.0616L49.2728 47.1472L49.2514 47.2113V47.2969V47.3824L49.23 47.4679V47.5535V49.5849L49.2514 49.7346V49.8629L49.2942 49.9912L49.337 50.0981L49.3798 50.205L49.4441 50.2906L49.5083 50.3547L49.5939 50.4189Z" fill="#2D65AE"></path> <path fill-rule="evenodd" clip-rule="evenodd" d="M69.5898 61.4098C68.9689 49.9268 60.7479 45.1797 50.4931 50.3973C49.7866 50.7394 49.23 50.3973 49.23 49.5847V47.5532C49.2436 47.073 49.392 46.6062 49.6582 46.2061C49.8828 45.7889 50.2253 45.4468 50.643 45.2224C63.2314 38.8073 73.2935 44.5809 74 58.6941C74.0056 59.1681 73.8796 59.6344 73.6361 60.0413C73.4198 60.4684 73.0855 60.8247 72.6727 61.0677L70.8315 62.0941C70.125 62.5004 69.547 62.0941 69.5042 61.4098H69.5898ZM61.8184 65.9432C61.8184 66.6916 62.4606 66.9696 63.1457 66.5633L64.9013 65.5583C65.3173 65.2938 65.6568 64.9252 65.8861 64.4891C66.1311 64.0837 66.2503 63.6149 66.2286 63.1419C65.5435 53.9683 58.9496 50.1834 50.6644 54.1608C50.2489 54.3956 49.9021 54.7346 49.6582 55.1444C49.3913 55.5522 49.2431 56.026 49.23 56.513V58.6514C49.23 59.4426 49.7652 59.8061 50.4289 59.4853C56.4662 56.5558 61.2617 59.3356 61.8184 65.9432Z" fill="#81A3CE"></path> <path fill-rule="evenodd" clip-rule="evenodd" d="M52.8695 64.1254C54.8605 62.9707 56.4876 63.9116 56.4876 66.2638C56.4181 67.5182 56.0544 68.7388 55.4259 69.8271C54.7975 70.9153 53.9218 71.8409 52.8695 72.5292C50.8571 73.7053 49.23 72.7644 49.23 70.3908C49.2985 69.1337 49.664 67.9106 50.2966 66.8216C50.9291 65.7327 51.8108 64.8087 52.8695 64.1254Z" fill="#81A3CE"></path> </g> <defs> <filter id="filter0_d" x="0" y="0" width="110" height="110" filterUnits="userSpaceOnUse" color-interpolation-filters="sRGB"> <feFlood flood-opacity="0" result="BackgroundImageFix"></feFlood> <feColorMatrix in="SourceAlpha" type="matrix" values="0 0 0 0 0 0 0 0 0 0 0 0 0 0 0 0 0 0 127 0"></feColorMatrix> <feOffset dx="-4" dy="-1"></feOffset> <feGaussianBlur stdDeviation="8.5"></feGaussianBlur> <feColorMatrix type="matrix" values="0 0 0 0 1 0 0 0 0 1 0 0 0 0 1 0 0 0 0.78 0"></feColorMatrix> <feBlend mode="normal" in2="BackgroundImageFix" result="effect1_dropShadow"></feBlend> <feBlend mode="normal" in="SourceGraphic" in2="effect1_dropShadow" result="shape"></feBlend> </filter> <clipPath id="clip0"> <rect width="31" height="34" fill="white" transform="translate(43 39)"></rect> </clipPath> </defs> </svg> 