<?xml version="1.0" encoding="UTF-8"?> <svg xmlns="http://www.w3.org/2000/svg" width="19" height="19" viewBox="0 0 19 19" fill="none"> <path d="M18.3213 14.2517V6.10882C18.3213 6.10882 10.088 11.8541 9.28726 12.1522C8.50012 11.8676 0.226074 6.10882 0.226074 6.10882V14.2517C0.226074 15.3826 0.465836 15.6088 1.58322 15.6088H16.9642C18.1082 15.6088 18.3213 15.4102 18.3213 14.2517ZM18.3082 4.51236C18.3082 3.68858 18.068 3.39453 16.9642 3.39453H1.58322C0.447741 3.39453 0.226074 3.74739 0.226074 4.57072L0.239646 4.69739C0.239646 4.69739 8.41372 10.325 9.28726 10.6326C10.2101 10.2752 18.3213 4.57072 18.3213 4.57072L18.3082 4.51236Z" fill="#2B4362"></path> </svg> 