<?xml version="1.0" encoding="UTF-8"?> <svg xmlns="http://www.w3.org/2000/svg" width="110" height="110" viewBox="0 0 110 110" fill="none"> <g filter="url(#filter0_d)"> <circle cx="59" cy="56" r="38" fill="white"></circle> </g> <g clip-path="url(#clip0)"> <path fill-rule="evenodd" clip-rule="evenodd" d="M71.754 73.0512L71.2598 72.9369L70.9902 72.1826L71.1699 71.954L71.3272 71.7254L71.5069 71.474L71.6417 71.2226L71.7989 70.9483L71.9337 70.674L72.0685 70.3997L72.1808 70.1254L72.3156 69.8283L72.4279 69.5312L72.5178 69.234L72.6077 68.9369L72.6975 68.6397L72.7874 68.3197L72.8548 68.0226L72.9222 67.7026L72.9896 67.3597L73.0345 67.0169L73.0794 66.674L73.1243 66.3312L73.1468 65.9654L73.1693 65.6226V65.2797L73.1468 64.9597V64.6169L73.1019 64.2969L73.0794 63.954L73.0345 63.634L72.9671 63.314L72.8997 63.0169L72.8323 62.6969L72.72 62.3997L72.2258 60.8912L72.7424 60.2969L73.2367 60.3883L72.72 60.9826L73.2367 62.514L73.3265 62.8112L73.4164 63.1083L73.4838 63.4283L73.5287 63.7483L73.5736 64.0683L73.6186 64.3883L73.641 64.7083L73.6635 65.0512V65.394V65.7369L73.641 66.0797L73.6186 66.4226L73.5961 66.7654L73.5512 67.1083L73.4838 67.4512L73.4388 67.794L73.3714 68.114L73.2816 68.434L73.2142 68.7312L73.1243 69.0512L73.0345 69.3483L72.9222 69.6454L72.8098 69.9426L72.6975 70.2169L72.5627 70.514L72.4504 70.7883L72.2932 71.0626L72.1584 71.314L72.0011 71.5654L71.8439 71.8169L71.6866 72.0683L71.5069 72.2969L71.754 73.0512Z" fill="#386DB2"></path> <path fill-rule="evenodd" clip-rule="evenodd" d="M73.7538 61.9203C74.3272 63.8647 74.4045 65.9257 73.9784 67.9089C73.632 69.7773 72.8629 71.538 71.732 73.0517L71.4849 72.2975C72.4624 70.9431 73.1231 69.3796 73.4168 67.726C73.7932 65.9773 73.7236 64.1597 73.2146 62.446L72.6979 60.9146L73.2146 60.3203L73.7538 61.9203Z" fill="#3C70B4"></path> <path fill-rule="evenodd" clip-rule="evenodd" d="M70.6986 75.9768C71.076 75.9547 71.4448 75.8533 71.7818 75.6792C72.1189 75.505 72.4168 75.2618 72.657 74.9648C72.8972 74.6678 73.0745 74.3235 73.1776 73.9534C73.2807 73.5834 73.3074 73.1956 73.2561 72.8146C73.2048 72.4335 73.0766 72.0673 72.8796 71.7391C72.6825 71.4109 72.4208 71.1277 72.111 70.9073C71.8012 70.687 71.4499 70.5342 71.0793 70.4586C70.7086 70.3831 70.3266 70.3863 69.9573 70.4682C69.2747 70.6137 68.6723 71.0184 68.2727 71.6C67.8732 72.1815 67.7066 72.8962 67.8068 73.5984C67.907 74.3006 68.2666 74.9375 68.8122 75.3794C69.3578 75.8213 70.0485 76.035 70.7435 75.9768H70.6986Z" fill="#2D65AE"></path> <path fill-rule="evenodd" clip-rule="evenodd" d="M70.9233 75.3827C71.2461 75.3556 71.5594 75.2577 71.8416 75.0958C72.1238 74.9339 72.3682 74.7117 72.5582 74.4447C72.7481 74.1776 72.879 73.8719 72.9419 73.5486C73.0048 73.2252 72.9982 72.8918 72.9226 72.5713C72.8557 72.1017 72.6534 71.6628 72.3415 71.3101C72.0295 70.9574 71.6217 70.7067 71.1697 70.5897C70.7178 70.4727 70.2418 70.4947 69.8021 70.6528C69.3624 70.811 68.9787 71.0982 68.6993 71.4782C68.42 71.8582 68.2577 72.3139 68.2328 72.7878C68.208 73.2616 68.3218 73.7324 68.5598 74.1404C68.7978 74.5485 69.1493 74.8757 69.57 75.0805C69.9907 75.2853 70.4616 75.3587 70.9233 75.2913V75.3827Z" fill="#356BB1"></path> <path fill-rule="evenodd" clip-rule="evenodd" d="M72.2037 71.475C71.4624 70.7436 70.5638 71.155 70.6986 72.1608C70.7178 72.3025 70.7646 72.4389 70.8363 72.562C70.908 72.6851 71.0031 72.7924 71.1161 72.8775C71.2291 72.9627 71.3577 73.024 71.4943 73.058C71.6309 73.0919 71.7728 73.0977 71.9117 73.075C72.8552 72.9379 72.6979 72.0008 72.2037 71.475Z" fill="#5381BD"></path> <path fill-rule="evenodd" clip-rule="evenodd" d="M46.4595 59.6576L49.0653 58.1034L49.2675 58.0576L49.4697 57.9891L49.6719 57.9662L49.874 57.9434H50.0987L50.3009 57.9662L50.548 57.9891L50.7726 58.0348L51.0197 58.0805L51.2444 58.1719L51.4915 58.2634L51.761 58.3776L52.0081 58.4919L52.2553 58.6291L52.5248 58.7891L52.7719 58.9719L53.019 59.1548L53.2661 59.3605L53.5133 59.5662L53.7604 59.7719L53.985 60.0005L54.2096 60.2519L54.4343 60.5034L54.6589 60.7548L54.8611 61.0291L55.0633 61.2805L55.2655 61.5776L55.4452 61.8519L55.6249 62.1491L55.8046 62.4462L55.9843 62.7434L56.1191 63.0634L56.2764 63.3605L56.4111 63.6805L56.5459 64.0005L56.6807 64.3205L56.7706 64.6405L56.8829 64.9376L56.9727 65.2576L57.0401 65.6005L57.13 65.9205L57.1749 66.2176L57.2199 66.5376L57.2423 66.8576L57.2648 67.1548L57.2872 67.4748L57.2648 67.7719L57.2423 68.0691L57.2199 68.3434L57.1749 68.5948L57.13 68.8462L57.0401 69.0976L56.9727 69.3262L56.8829 69.5319L56.7706 69.7376L56.6807 69.9205L56.5459 70.1034L56.4111 70.2634L56.2764 70.4005L56.1191 70.5376L53.5133 72.0919L53.648 71.9548L53.8053 71.7948L53.9176 71.6348L54.0524 71.4748L54.1647 71.2691L54.2546 71.0862L54.3444 70.8576L54.4343 70.6291L54.5017 70.4005L54.5466 70.1491L54.5915 69.8748L54.6365 69.6005V69.3034L54.6589 69.0062L54.6365 68.7091V68.3891L54.5915 68.0919L54.5466 67.7719L54.5017 67.4519L54.4343 67.1319L54.3444 66.8119L54.2546 66.4919L54.1647 66.1719L54.0524 65.8519L53.9176 65.5319L53.8053 65.2119L53.648 64.9148L53.5133 64.5948L53.356 64.2976L53.1763 63.9776L53.019 63.6805L52.8393 63.4062L52.6371 63.1091L52.435 62.8348L52.2328 62.5605L52.0306 62.2862L51.806 62.0348L51.5813 61.7834L51.3567 61.5548L51.132 61.3262L50.8849 61.0976L50.6603 60.8919L50.4132 60.6862L50.1436 60.5034L49.8965 60.3434L49.6494 60.1834L49.3798 60.0462L49.1327 59.9091L48.8856 59.7948L48.6385 59.7034L48.3914 59.6348L48.1443 59.5662L47.9196 59.5205L47.695 59.4976L47.4704 59.4748L47.2457 59.4976H47.0435L46.8414 59.5434L46.6392 59.5891L46.4595 59.6576Z" fill="#5381BD"></path> <path fill-rule="evenodd" clip-rule="evenodd" d="M49.739 71.9549C48.2612 71.0024 47.0277 69.7052 46.1409 68.1709C45.254 66.6365 44.7394 64.9092 44.6396 63.1321C44.6396 59.8635 46.8861 58.5606 49.6492 60.1835C51.1066 61.1504 52.3197 62.453 53.19 63.9859C54.0604 65.5188 54.5635 67.2387 54.6587 69.0063C54.6587 72.2749 52.4123 73.5778 49.739 71.9549Z" fill="#81A3CE"></path> <path fill-rule="evenodd" clip-rule="evenodd" d="M64.3633 48.5038L67.1713 46.8352L67.3735 46.7666L67.5981 46.7209L67.8003 46.6752L68.025 46.6523H68.2721L68.5192 46.6752L68.7438 46.6981L69.0134 46.7438L69.2605 46.8123L69.5301 46.9038L69.7996 46.9952L70.0467 47.1095L70.3388 47.2466L70.6083 47.4066L70.8779 47.5895L71.17 47.7723L71.4395 47.9552L71.7091 48.1838L71.9562 48.3895L72.2258 48.6409L72.4729 48.8695L72.72 49.1438L72.9446 49.4181L73.1917 49.6923L73.4164 49.9666L73.6186 50.2638L73.8432 50.5609L74.0454 50.8809L74.2476 51.1781L74.4273 51.4981L74.607 51.8409L74.7867 52.1609L74.9439 52.5038L75.0787 52.8238L75.236 53.1666L75.3483 53.5095L75.4831 53.8523L75.5954 54.1952L75.6853 54.5609L75.7751 54.9038L75.8425 55.2466L75.9099 55.5895L75.9548 55.9095L75.9773 56.2523L75.9998 56.5952L76.0222 56.9152L75.9998 57.2352L75.9773 57.5552L75.9548 57.8523L75.9099 58.1495L75.8425 58.4009L75.7751 58.6752L75.6853 58.9038L75.5954 59.1552L75.4831 59.3609L75.3483 59.5666L75.236 59.7495L75.0787 59.9323L74.9439 60.0923L74.7867 60.2295L71.9562 61.8981L72.1135 61.7381L72.2707 61.5781L72.4055 61.4181L72.5403 61.2352L72.6526 61.0295L72.7649 60.8009L72.8548 60.5723L72.9446 60.3209L73.012 60.0695L73.0794 59.7952L73.1243 59.5209L73.1693 59.2238V58.9038L73.1917 58.5838L73.1693 58.2409V57.9209L73.1243 57.5781L73.0794 57.2352L73.012 56.8923L72.9446 56.5495L72.8548 56.2066L72.7649 55.8638L72.6526 55.5209L72.5403 55.1781L72.4055 54.8352L72.2707 54.4923L72.1135 54.1495L71.9562 53.8295L71.7765 53.4866L71.5968 53.1666L71.4171 52.8466L71.2149 52.5266L71.0127 52.2295L70.8105 51.9323L70.5859 51.6352L70.3612 51.3381L70.1141 51.0638L69.8895 50.7895L69.6424 50.5381L69.3953 50.2866L69.1257 50.0581L68.8786 49.8295L68.609 49.6238L68.3395 49.4181L68.0699 49.2352L67.7778 49.0752L67.5083 48.9152L67.2387 48.7781L66.9691 48.6638L66.6996 48.5495L66.43 48.4809L66.1829 48.4123L65.9358 48.3666L65.6887 48.3209H65.4416H65.2169L64.9923 48.3438L64.7676 48.3666L64.5655 48.4352L64.3633 48.5038Z" fill="#EAF0F7"></path> <path fill-rule="evenodd" clip-rule="evenodd" d="M67.7108 61.7591C66.1543 60.7029 64.8622 59.2908 63.9378 57.6359C63.0134 55.9809 62.4822 54.1288 62.3867 52.2277C62.3867 48.7306 64.8129 47.4277 67.7108 49.0734C69.2859 50.112 70.5974 51.5147 71.5383 53.1672C72.4791 54.8197 73.0227 56.6751 73.1246 58.582C73.192 62.0791 70.7659 63.4277 67.7108 61.7591Z" fill="#AFC4E0"></path> <path fill-rule="evenodd" clip-rule="evenodd" d="M44.9766 59.8866L47.7846 58.218L47.9868 58.1494L48.2114 58.1037L48.4361 58.058H48.6607L48.8853 58.0352L49.1325 58.058L49.3571 58.0809L49.6267 58.1266L49.8738 58.1952L50.1433 58.2866L50.3904 58.378L50.6825 58.5152L50.9521 58.6294L51.2216 58.7894L51.5137 58.9723L51.7832 59.1552L52.0528 59.3609L52.2999 59.5666L52.5695 59.7952L52.8391 60.0237L53.0862 60.2752L53.3333 60.5266L53.5579 60.8009L53.805 61.0752L54.0297 61.3494L54.2318 61.6466L54.4565 61.9437L54.6587 62.2637L54.8608 62.5837L55.0406 62.9037L55.2203 63.2237L55.4 63.5437L55.5572 63.8866L55.692 64.2294L55.8493 64.5723L55.9841 64.8923L56.0964 65.258L56.2087 65.6009L56.2985 65.9437L56.3884 66.2866L56.4558 66.6294L56.5232 66.9723L56.5681 67.3152L56.5906 67.658L56.613 67.978L56.6355 68.3209L56.613 68.6409L56.5906 68.938L56.5681 69.2352L56.5232 69.5323L56.4558 69.8066L56.3884 70.058L56.2985 70.3094L56.2087 70.538L56.0964 70.7437L55.9841 70.9494L55.8493 71.1323L55.692 71.3152L55.5572 71.4752L55.4 71.6123L52.5695 73.2809L52.7267 73.1437L52.884 72.9837L53.0188 72.8009L53.1536 72.618L53.2659 72.4123L53.3782 72.1837L53.4681 71.9552L53.5579 71.7266L53.6253 71.4523L53.6927 71.178L53.7376 70.9037L53.7601 70.6066L53.7826 70.2866L53.805 69.9666L53.7826 69.6466L53.7601 69.3037L53.7376 68.9609L53.6927 68.618L53.6253 68.298L53.5579 67.9323L53.4681 67.5894L53.3782 67.2466L53.2659 66.9037L53.1536 66.5609L53.0188 66.218L52.884 65.8752L52.7267 65.5552L52.5695 65.2123L52.3898 64.8694L52.2101 64.5494L52.0303 64.2294L51.8282 63.9094L51.626 63.6123L51.4238 63.3152L51.1992 63.018L50.9745 62.7437L50.7274 62.4466L50.5028 62.1952L50.2557 61.9209L50.0086 61.6923L49.739 61.4409L49.4919 61.2123L49.2223 61.0066L48.9527 60.8237L48.6832 60.618L48.3911 60.458L48.1216 60.298L47.852 60.1609L47.5824 60.0466L47.3128 59.9323L47.0433 59.8637L46.7962 59.7952L46.5491 59.7494L46.302 59.7266L46.0548 59.7037H45.8302L45.6056 59.7266L45.3809 59.7723L45.1563 59.818L44.9766 59.8866Z" fill="#EAF0F7"></path> <path fill-rule="evenodd" clip-rule="evenodd" d="M48.3914 73.1427C46.8242 72.0976 45.5199 70.6928 44.5835 69.0413C43.6471 67.3898 43.1047 65.5378 43 63.6341C43 60.1141 45.4261 58.697 48.3914 60.457C49.9666 61.4955 51.2781 62.8983 52.2189 64.5507C53.1598 66.2032 53.7034 68.0586 53.8053 69.9656C53.8053 73.4856 51.3792 74.857 48.3914 73.1427Z" fill="#AFC4E0"></path> <path fill-rule="evenodd" clip-rule="evenodd" d="M65.5763 42.332L65.464 41.9206L65.3292 41.5549L65.172 41.1892L65.0147 40.8463L64.8126 40.572L64.6104 40.2977L64.4082 40.0234C65.4672 40.3613 66.386 41.0474 67.0203 41.9741C67.6546 42.9008 67.9684 44.0156 67.9126 45.1434C67.9126 45.3949 67.9126 47.7949 67.9126 48.0692C67.9126 48.3434 67.9126 48.8006 67.9126 49.1892H67.8003C67.1603 48.781 66.4389 48.5233 65.6887 48.4349V48.4349C65.966 46.4072 65.9281 44.3477 65.5763 42.332V42.332Z" fill="#2D65AE"></path> <path fill-rule="evenodd" clip-rule="evenodd" d="M57.4443 37.44L57.9835 37.1429L58.5002 36.8686L59.0168 36.64L59.5335 36.4571L60.0277 36.2971H60.522L60.9712 36H61.443H62.3416H62.7908L63.2177 36.1143H63.622L64.0264 36.2514L64.3858 36.4114L64.7452 36.6857L66.8569 37.9429L66.4974 37.7371L66.1156 37.5771L65.7337 37.44H65.3293H64.9025H64.4757H63.5771L63.2177 37.3257H62.7459L62.1394 37.5314L61.6452 37.6914L61.1285 37.8971L60.6118 38.1029L60.0951 38.2857L59.556 38.5829L59.0393 38.9029L58.5002 39.2686L57.9835 39.6343L57.4893 40.0457L56.9726 40.5714L56.4784 41.0057L55.9842 41.4857L55.5124 41.9886L55.0631 42.4914L54.6138 43.0171L54.232 43.5657L53.8051 44.1371L53.4008 44.7086L53.0189 45.3029L52.637 45.8971L52.2776 46.5143L51.9855 47.1314L51.671 47.7486L51.3565 48.3886L51.0645 49.0514L50.7275 49.7143L50.4804 50.3771L50.2558 51.0171L50.0536 51.68L49.8739 52.3429L49.7391 52.9829L49.6043 53.6229V54.2857V54.9486V55.5886V58.3314V59.8629C48.9585 59.4713 48.2391 59.2221 47.4927 59.1314V54.2857V53.6229V52.9829V52.3886L47.6275 51.7486L47.7847 51.0857L47.9644 50.4229L48.1441 49.7143L48.3912 49.0514L48.6384 48.4114L48.9079 47.7486L49.1775 47.1086L49.492 46.4686L49.7391 45.8971L50.0985 45.28L50.458 44.6629L50.8174 44.0457L51.2217 43.4743L51.6935 42.8571L52.0979 42.3086L52.5247 41.76L52.974 41.2343L53.4457 40.7314L53.895 40.2286L54.3892 39.7486L54.8834 39.3143L55.3776 38.88L55.8718 38.4686L56.4784 38.1029L56.9277 37.76L57.4443 37.44Z" fill="#2D65AE"></path> <path fill-rule="evenodd" clip-rule="evenodd" d="M63.9595 49.5531L64.5885 49.2102L64.7682 49.1416L64.9479 49.0959L65.1501 49.0502H65.3523L65.5769 49.0273L65.7791 49.0502L66.0037 49.0731L66.2284 49.1188L66.4755 49.1873L66.7001 49.2559L66.9472 49.3473L67.1943 49.4616L67.4414 49.5759L67.6885 49.7131L67.9356 49.8731L68.1828 50.0331L68.4299 50.2159L68.677 50.4216L68.9241 50.6045L69.1487 50.8331L69.3734 51.0616L69.598 51.2902L69.8226 51.5188L70.0248 51.7702L70.227 52.0445L70.4292 52.2959L70.6089 52.5702L70.8111 52.8673L70.9908 53.1416L71.148 53.4388L71.3053 53.7359L71.4625 54.0331L71.6198 54.3302L71.7546 54.6273L71.8669 54.9473L72.0017 55.2445L72.0915 55.5645L72.2039 55.8845L72.2937 56.1816L72.3611 56.5016L72.4285 56.8216L72.4959 57.1188L72.5184 57.4388L72.5633 57.7359L72.5857 58.0331V58.3302V58.6273L72.5633 58.9016L72.5184 59.1759L72.4959 59.4502L72.4285 59.6788L72.3611 59.9073L72.2937 60.1359L72.2039 60.3416L72.0915 60.5473L72.0017 60.7302L71.8669 60.8902L71.7546 61.0502L71.6198 61.2102L71.4625 61.3473L70.856 61.6902L70.9908 61.5759L71.148 61.4159L71.2604 61.2559L71.3727 61.0959L71.485 60.9131L71.5973 60.7073L71.6872 60.5016L71.7546 60.2731L71.822 60.0445L71.8669 59.7931L71.9118 59.5416L71.9567 59.2673V58.9931L71.9792 58.6959L71.9567 58.3988V58.1016L71.9118 57.7816L71.8669 57.4845L71.822 57.1645L71.7546 56.8673L71.6872 56.5473L71.5973 56.2273L71.485 55.9302L71.3727 55.6102L71.2604 55.2902L71.148 54.9931L70.9908 54.6959L70.856 54.3759L70.6988 54.0788L70.5415 53.7816L70.3618 53.5073L70.2045 53.2102L70.0024 52.9359L69.8226 52.6616L69.6205 52.3873L69.4183 52.1359L69.1936 51.8845L68.9915 51.6331L68.7668 51.4045L68.5422 51.1759L68.2951 50.9702L68.0704 50.7645L67.8233 50.5816L67.5762 50.3988L67.3291 50.2388L67.082 50.0788L66.8349 49.9416L66.5878 49.8045L66.3407 49.7131L66.0936 49.6216L65.8689 49.5302L65.6218 49.4845L65.3972 49.4388L65.1725 49.4159L64.9704 49.3931H64.7457L64.5435 49.4159L64.3414 49.4388L64.1617 49.5073L63.9595 49.5531Z" fill="#5381BD"></path> <path fill-rule="evenodd" clip-rule="evenodd" d="M67.0818 61.5774C65.6594 60.6316 64.4751 59.3591 63.6245 57.8623C62.7739 56.3656 62.2807 54.6865 62.1846 52.9603C62.1846 49.7832 64.431 48.3889 67.0818 50.0803C68.5067 51.0234 69.6928 52.2953 70.5437 53.7926C71.3947 55.2899 71.8864 56.9704 71.979 58.6974C71.979 61.8746 69.7775 63.1546 67.0818 61.5774Z" fill="#2D65AE"></path> <path fill-rule="evenodd" clip-rule="evenodd" d="M67.0816 60.0678C66.0302 59.3725 65.1548 58.4348 64.5264 57.3308C63.898 56.2267 63.5343 54.9874 63.4648 53.7135C63.4648 51.4278 65.0823 50.4221 67.0816 51.5878C68.133 52.2831 69.0084 53.2208 69.6368 54.3249C70.2652 55.4289 70.6289 56.6682 70.6983 57.9421C70.6983 60.2964 69.0809 61.1421 67.0816 60.0678Z" fill="#356BB1"></path> <path fill-rule="evenodd" clip-rule="evenodd" d="M64.2511 51.5418L64.296 51.4961L64.1388 51.7018L63.9815 51.999L63.8692 52.319L63.7793 52.6618L63.712 53.0504L63.6895 53.4847L63.712 53.6904V53.919L63.7344 54.1475L63.7793 54.3761L63.8018 54.6047L63.8692 54.8332L63.9141 55.0618L63.9815 55.2904L64.0489 55.519L64.1388 55.7475L64.2286 55.9761L64.3185 56.2047L64.4083 56.4332L64.5207 56.6618L64.633 56.8675L64.7453 57.0961L64.8801 57.3018L65.0149 57.5075L65.1497 57.7132L65.2844 57.919L65.4417 58.1247L65.5765 58.3075L65.7337 58.4904L65.9134 58.6732L66.0707 58.8561L66.2279 59.0161L66.4077 59.1761L66.5874 59.3132L66.7446 59.4504L66.9468 59.5875L67.1265 59.7247L67.3062 59.839L67.6657 60.0218L68.0251 60.1818L68.3845 60.2732L68.7215 60.319H69.036L69.328 60.2961L69.5976 60.2047L69.8672 60.0904L70.0918 59.9304L70.1143 59.9075L70.0693 59.9532L69.8672 60.159L69.6425 60.319L69.3729 60.4332L69.1034 60.5247L68.7889 60.5704L68.4968 60.5475L68.1599 60.5018L67.8004 60.4104L67.441 60.2504L67.0816 60.0675L66.9019 59.9532L66.6997 59.8161L66.52 59.7018L66.3627 59.5418L66.183 59.4047L66.0033 59.2447L65.8461 59.0847L65.6663 58.9018L65.5091 58.719L65.3518 58.5361L65.2171 58.3532L65.0598 58.1475L64.925 57.9418L64.7902 57.7361L64.6555 57.5304L64.5207 57.3247L64.4083 57.0961L64.296 56.8904L64.1837 56.6618L64.0938 56.4332L64.004 56.2047L63.9141 55.9761L63.8243 55.7475L63.7569 55.519L63.6895 55.2904L63.6446 55.0618L63.5772 54.8332L63.5547 54.6047L63.5098 54.3761L63.4873 54.1475V53.919L63.4648 53.7132L63.4873 53.279L63.5547 52.8904L63.6446 52.5475L63.7569 52.2275L63.9141 51.9304L64.0938 51.7018L64.2511 51.5418Z" fill="#5381BD"></path> <path fill-rule="evenodd" clip-rule="evenodd" d="M59.5562 38.6729C65.2621 35.3129 69.9572 38.0329 69.9572 44.7301V47.2901C69.9572 47.5415 69.9572 47.7244 69.9572 47.9758L68.0028 49.1187C68.0028 48.7301 68.0028 48.3872 68.0028 47.9758C68.0028 47.5644 68.0028 45.3015 68.0028 45.0501C67.531 40.2044 63.9367 38.2844 59.5562 40.9587C57.2074 42.5205 55.2358 44.6022 53.7888 47.0482C52.3417 49.4943 51.4566 52.2414 51.1995 55.0844C51.1995 55.2901 51.1995 57.6215 51.1995 57.8272C51.1995 58.0329 51.1995 58.4901 51.1995 58.7872L51.0872 58.8558L49.2676 59.8158C49.2676 59.5415 49.2676 59.2215 49.2676 58.9244C49.2676 58.6272 49.2676 56.1358 49.2676 55.8158C49.6261 52.361 50.7353 49.0305 52.5147 46.0656C54.2942 43.1006 56.6994 40.5755 59.5562 38.6729V38.6729Z" fill="#3C70B4"></path> <path fill-rule="evenodd" clip-rule="evenodd" d="M45.4487 62.2415L45.7408 62.0815L45.8531 62.0129L45.9879 61.9444L46.1451 61.8986L46.2799 61.8758L46.4372 61.8301H46.5944H46.7741H46.9314L47.1111 61.8529L47.2908 61.8986L47.448 61.9444L47.6502 61.9901L47.8299 62.0586L48.0097 62.1501L48.2118 62.2415L48.3915 62.3558L48.5937 62.4701L48.7959 62.6072L48.9756 62.7444L49.1553 62.8815L49.3575 63.0415L49.5148 63.2015L49.6945 63.3844L49.8742 63.5672L50.0314 63.7501L50.2112 63.9329L50.3684 64.1387L50.5257 64.3444L50.6604 64.5501L50.8177 64.7786L50.9525 65.0072L51.0873 65.2129L51.1996 65.4415L51.3119 65.6701L51.4242 65.9215L51.5365 66.1501L51.6264 66.3786L51.7163 66.6301L51.8061 66.8586L51.896 67.1101L51.9409 67.3387L52.0083 67.5901L52.0757 67.8415L52.0982 68.0701L52.1431 68.2987L52.1655 68.5501L52.188 68.7787V69.0072V69.2358L52.1655 69.4644L52.1431 69.6701L52.0982 69.8529L52.0757 70.0586L52.0083 70.2415L51.9409 70.4015L51.896 70.5615L51.8061 70.7215L51.7163 70.8587L51.6264 70.9958L51.5365 71.1101L51.4242 71.2244L51.3119 71.3387L51.1996 71.4301L51.0873 71.4986L50.8177 71.6587L50.93 71.5672L51.0423 71.4986L51.1547 71.3844L51.267 71.2701L51.3568 71.1558L51.4692 71.0186L51.5365 70.8815L51.6264 70.7215L51.6938 70.5615L51.7387 70.3787L51.8061 70.2187L51.8286 70.0129L51.8735 69.8301L51.896 69.6244L51.9184 69.3958V69.1672V68.9386L51.896 68.7101L51.8735 68.4586L51.8286 68.2301L51.8061 67.9786L51.7387 67.7501L51.6938 67.4986L51.6264 67.2701L51.5365 67.0186L51.4692 66.7901L51.3568 66.5386L51.267 66.3101L51.1547 66.0815L51.0423 65.8301L50.93 65.6015L50.8177 65.3729L50.6829 65.1444L50.5257 64.9386L50.3909 64.7101L50.2561 64.5044L50.0988 64.2986L49.9416 64.0929L49.7619 63.9101L49.6046 63.7272L49.4249 63.5444L49.2677 63.3615L49.0879 63.2015L48.8858 63.0415L48.706 62.9044L48.5263 62.7672L48.3242 62.6301L48.1444 62.5158L47.9423 62.4015L47.7401 62.3101L47.5604 62.2186L47.3807 62.1501L47.1785 62.0815L46.9988 62.0358L46.8415 62.0129L46.6618 61.9901H46.5046H46.3248H46.1676L46.0103 62.0129L45.8756 62.0586L45.7408 62.1044L45.5835 62.1729L45.4487 62.2415Z" fill="#EAF0F7"></path> <path fill-rule="evenodd" clip-rule="evenodd" d="M48.1221 71.3826C47.0255 70.6516 46.1128 69.669 45.4573 68.5138C44.8019 67.3586 44.422 66.063 44.3481 64.7312C44.3481 62.2855 46.0554 61.2798 48.1221 62.4455C49.2468 63.1702 50.1846 64.1585 50.8568 65.3276C51.529 66.4968 51.9162 67.8128 51.986 69.1655C51.986 71.6112 50.2113 72.5712 48.1221 71.3826Z" fill="#CBD9EB"></path> </g> <defs> <filter id="filter0_d" x="0" y="0" width="110" height="110" filterUnits="userSpaceOnUse" color-interpolation-filters="sRGB"> <feFlood flood-opacity="0" result="BackgroundImageFix"></feFlood> <feColorMatrix in="SourceAlpha" type="matrix" values="0 0 0 0 0 0 0 0 0 0 0 0 0 0 0 0 0 0 127 0"></feColorMatrix> <feOffset dx="-4" dy="-1"></feOffset> <feGaussianBlur stdDeviation="8.5"></feGaussianBlur> <feColorMatrix type="matrix" values="0 0 0 0 1 0 0 0 0 1 0 0 0 0 1 0 0 0 0.78 0"></feColorMatrix> <feBlend mode="normal" in2="BackgroundImageFix" result="effect1_dropShadow"></feBlend> <feBlend mode="normal" in="SourceGraphic" in2="effect1_dropShadow" result="shape"></feBlend> </filter> <clipPath id="clip0"> <rect width="33" height="40" fill="white" transform="translate(43 36)"></rect> </clipPath> </defs> </svg> 